<svg width="64" height="54" viewBox="0 0 64 54" fill="none" xmlns="http://www.w3.org/2000/svg">
<path d="M26.6781 24.1748H0V54H26.6781V24.1748Z" fill="white"/>
<path d="M44.1298 9.76294H17.4517V54H44.1298V9.76294Z" fill="#006D68"/>
<path d="M63.6913 0H37.0132V54H63.6913V0Z" fill="#AECC53"/>
<path d="M63.6914 51.2107H0V54.0001H63.6914V51.2107Z" fill="white"/>
<path d="M50.3523 32.6146C46.7761 32.6146 43.8794 29.718 43.8794 26.1418C43.8794 22.816 49.2079 15.8782 49.8158 15.0915C50.0662 14.7696 50.6384 14.7696 50.8887 15.0915C51.4966 15.8425 56.8609 22.7802 56.8609 26.106C56.8609 29.6822 53.9284 32.6146 50.3523 32.6146ZM50.3523 16.6292C48.5284 19.061 45.2384 23.9246 45.2384 26.106C45.2384 28.9312 47.5271 31.2199 50.3523 31.2199C53.1774 31.2199 55.4662 28.9312 55.4662 26.106C55.4662 23.9246 52.1761 19.061 50.3523 16.6292Z" fill="white"/>
<path d="M50.3522 36.4409C49.9588 36.4409 49.6729 36.1191 49.6729 35.7614V25.5694C49.6729 25.176 49.9946 24.8899 50.3522 24.8899C50.7098 24.8899 51.0317 25.2118 51.0317 25.5694V35.7614C51.0317 36.1191 50.7456 36.4409 50.3522 36.4409Z" fill="white"/>
</svg>
