<svg width="202" height="54" viewBox="0 0 202 54" fill="none" xmlns="http://www.w3.org/2000/svg">
<g clip-path="url(#clip0_1040_1612)">
<path d="M77.0303 22.4226C76.2078 22.1722 75.4926 21.8146 74.9204 21.314L75.6714 19.6689C76.2794 20.1338 76.8873 20.4557 77.5668 20.6703C78.2462 20.8848 78.9615 20.9921 79.7125 20.9921C80.5707 20.9921 81.2144 20.8491 81.6793 20.5272C82.1442 20.2411 82.3588 19.812 82.3588 19.2756C82.3588 18.8107 82.1443 18.453 81.7151 18.2027C81.286 17.9524 80.5707 17.7378 79.5694 17.4875C78.5323 17.2729 77.7098 17.0226 77.0661 16.7007C76.4224 16.4146 75.9217 16.0212 75.5999 15.5563C75.278 15.0914 75.0992 14.5193 75.0992 13.804C75.0992 13.0888 75.3138 12.4093 75.7072 11.8371C76.1005 11.265 76.6727 10.8001 77.388 10.4782C78.1032 10.1563 78.9615 9.97754 79.8913 9.97754C80.7495 9.97754 81.5721 10.1206 82.3946 10.3709C83.1813 10.6212 83.825 11.0146 84.3257 11.4438L83.5747 13.0888C82.4661 12.1948 81.2502 11.7656 79.8913 11.7656C79.1045 11.7656 78.4608 11.9444 77.9959 12.2663C77.531 12.5881 77.3164 13.053 77.3164 13.6252C77.3164 14.0901 77.531 14.4835 77.9244 14.7338C78.3535 14.9842 79.033 15.2345 80.0343 15.4491C81.0714 15.6994 81.9297 15.9497 82.5734 16.2358C83.2171 16.5219 83.7178 16.8795 84.0754 17.3444C84.433 17.7736 84.6118 18.3458 84.6118 19.0252C84.6118 19.7762 84.3972 20.4199 84.0039 20.9563C83.6105 21.5285 83.0383 21.9577 82.2873 22.2438C81.5363 22.5299 80.678 22.7087 79.6409 22.7087C78.7469 22.7802 77.8529 22.6729 77.0303 22.4226Z" fill="#3C3C3C"/>
<path d="M91.6211 21.0636L91.5138 22.7086C91.1562 22.7444 90.8343 22.7444 90.5482 22.7444C89.3323 22.7444 88.4383 22.4583 87.8661 21.9219C87.2939 21.3497 87.0078 20.5272 87.0078 19.4186V15.6636H85.3628V14.0186H87.0078V11.4437H89.225V14.0186H91.5138V15.6636H89.225V19.3828C89.225 20.5272 89.7615 21.0994 90.8343 21.0994C91.0846 21.1351 91.3707 21.0994 91.6211 21.0636Z" fill="#3C3C3C"/>
<path d="M99.3099 14.698C99.882 15.2702 100.204 16.2 100.204 17.4159V22.6371H98.094V21.3139C97.8794 21.7788 97.5933 22.1364 97.1642 22.3868C96.735 22.6371 96.2344 22.7801 95.6622 22.7801C95.09 22.7801 94.5536 22.6729 94.0887 22.4225C93.6238 22.1722 93.2304 21.8503 92.98 21.457C92.7297 21.0636 92.5867 20.5987 92.5867 20.098C92.5867 19.4543 92.7655 18.9537 93.0873 18.596C93.4092 18.2384 93.9456 17.9523 94.6608 17.8093C95.3761 17.6305 96.3774 17.559 97.6648 17.559H98.094V17.1656C98.094 16.5934 97.9509 16.1643 97.7006 15.9139C97.4503 15.6636 97.0211 15.5205 96.4489 15.5205C95.984 15.5205 95.5191 15.5921 95.0185 15.7709C94.5178 15.9139 94.0171 16.1643 93.5522 16.4146L92.9443 14.9126C93.4092 14.5907 94.0171 14.3404 94.6966 14.1616C95.3761 13.947 96.0198 13.8755 96.6277 13.8755C97.8436 13.804 98.7377 14.0901 99.3099 14.698ZM97.5575 20.5987C97.9151 20.2053 98.1297 19.7046 98.1297 19.0609V18.7033H97.8079C97.0211 18.7033 96.4132 18.7391 95.984 18.8106C95.5549 18.8821 95.233 18.9894 95.0542 19.1682C94.8754 19.347 94.7681 19.5974 94.7681 19.8835C94.7681 20.2768 94.9112 20.5629 95.1615 20.8133C95.4118 21.0636 95.7337 21.1709 96.1628 21.1709C96.6993 21.2066 97.1642 20.9921 97.5575 20.5987Z" fill="#3C3C3C"/>
<path d="M107.678 21.0636L107.571 22.7086C107.213 22.7444 106.891 22.7444 106.605 22.7444C105.389 22.7444 104.495 22.4583 103.923 21.9219C103.351 21.3497 103.065 20.5272 103.065 19.4186V15.6636H101.42V14.0186H103.065V11.4437H105.282V14.0186H107.571V15.6636H105.282V19.3828C105.282 20.5272 105.818 21.0994 106.891 21.0994C107.106 21.1351 107.392 21.0994 107.678 21.0636Z" fill="#3C3C3C"/>
<path d="M116.511 18.7392H110.646C110.718 19.5259 110.968 20.1339 111.361 20.5272C111.755 20.9206 112.363 21.0994 113.114 21.0994C114.079 21.0994 114.938 20.7776 115.724 20.1696L116.368 21.6716C115.975 21.9935 115.474 22.2796 114.866 22.4584C114.258 22.6729 113.65 22.7445 113.042 22.7445C111.648 22.7445 110.503 22.3511 109.716 21.5286C108.894 20.7418 108.5 19.6332 108.5 18.2385C108.5 17.3445 108.679 16.5577 109.037 15.8782C109.395 15.1988 109.895 14.6623 110.539 14.3047C111.183 13.9114 111.898 13.7325 112.72 13.7325C113.9 13.7325 114.83 14.1259 115.546 14.8769C116.225 15.6279 116.583 16.7008 116.583 18.0239V18.7392H116.511ZM111.29 15.914C110.932 16.3074 110.718 16.8438 110.646 17.5233H114.616C114.58 16.808 114.401 16.2716 114.079 15.8782C113.757 15.5206 113.293 15.3061 112.72 15.3061C112.148 15.3418 111.648 15.5564 111.29 15.914Z" fill="#3C3C3C"/>
<path d="M125.666 22.0292C124.772 21.5285 124.092 20.7776 123.628 19.812C123.163 18.8464 122.912 17.7021 122.912 16.4146C122.912 15.1272 123.163 13.9828 123.628 13.053C124.092 12.0875 124.772 11.3723 125.666 10.8358C126.56 10.3352 127.597 10.0491 128.813 10.0491C130.029 10.0491 131.066 10.2994 131.96 10.8358C132.854 11.3365 133.534 12.0875 133.998 13.053C134.463 14.0186 134.714 15.1272 134.714 16.4146C134.714 17.7021 134.463 18.8464 133.998 19.812C133.534 20.7776 132.818 21.5285 131.96 22.0292C131.066 22.5299 130.029 22.816 128.813 22.816C127.597 22.7802 126.56 22.5299 125.666 22.0292ZM131.495 19.812C132.139 19.0252 132.461 17.8809 132.461 16.4146C132.461 14.9484 132.139 13.804 131.495 13.053C130.851 12.2663 129.957 11.8729 128.813 11.8729C127.669 11.8729 126.775 12.2663 126.131 13.053C125.487 13.8398 125.165 14.9484 125.165 16.4146C125.165 17.8809 125.487 19.0252 126.131 19.812C126.775 20.5987 127.669 20.9921 128.813 20.9921C129.957 20.9921 130.851 20.5987 131.495 19.812Z" fill="#3C3C3C"/>
<path d="M139.613 14.0186H141.902V15.6637H139.613V22.6372H137.396V15.6637H135.751V14.0186H137.396C137.396 12.767 137.718 11.8729 138.362 11.2292C139.005 10.6213 140.007 10.2637 141.366 10.1921L142.224 10.1564L142.367 11.8014L141.544 11.8372C140.865 11.8729 140.364 12.016 140.078 12.3021C139.792 12.5882 139.649 13.0173 139.649 13.6252V14.0186H139.613Z" fill="#3C3C3C"/>
<path d="M85.8635 37.0849V43.0571C85.2913 43.3432 84.6118 43.5577 83.8251 43.7365C83.0026 43.9153 82.2158 43.9869 81.3575 43.9869C80.0701 43.9869 78.9615 43.7365 78.0317 43.2359C77.1019 42.7352 76.3867 41.9842 75.886 41.0186C75.3853 40.0531 75.135 38.9087 75.135 37.6213C75.135 36.3339 75.3853 35.1895 75.886 34.2239C76.3867 33.2584 77.1019 32.5432 78.0317 32.0067C78.9615 31.4703 80.0343 31.2557 81.286 31.2557C82.1443 31.2557 82.9668 31.3988 83.7536 31.6491C84.5045 31.8994 85.1483 32.2571 85.6489 32.722L84.8979 34.367C84.3257 33.9379 83.7536 33.616 83.1814 33.4014C82.6092 33.2226 82.0012 33.1153 81.3218 33.1153C80.0343 33.1153 79.0688 33.5087 78.4251 34.2597C77.7814 35.0107 77.4595 36.1551 77.4595 37.6213C77.4595 40.661 78.7827 42.1988 81.4648 42.1988C82.2516 42.1988 83.0741 42.0915 83.8608 41.8769V38.7657H81.1787V37.1564H85.8635V37.0849Z" fill="#3C3C3C"/>
<path d="M93.9097 36.7987L92.6223 36.906C91.1561 37.049 90.4409 37.8 90.4409 39.1232V43.7722H88.2236V35.1894H90.3336V36.6914C90.7627 35.6543 91.6925 35.0821 93.0872 35.0106L93.7667 34.9749L93.9097 36.7987Z" fill="#3C3C3C"/>
<path d="M102.349 39.8742H96.4846C96.5561 40.6609 96.8064 41.2689 97.1998 41.6623C97.5932 42.0556 98.2011 42.2344 98.9521 42.2344C99.9177 42.2344 100.776 41.9126 101.563 41.3046L102.206 42.8066C101.813 43.1285 101.312 43.4146 100.704 43.5934C100.096 43.808 99.4885 43.8795 98.8806 43.8795C97.4859 43.8795 96.3415 43.4861 95.5548 42.6636C94.7323 41.8768 94.3389 40.7682 94.3389 39.3735C94.3389 38.4795 94.5177 37.6927 94.8753 37.0132C95.2329 36.3338 95.7336 35.7974 96.3773 35.4397C97.021 35.0464 97.7362 34.8676 98.5587 34.8676C99.7389 34.8676 100.669 35.2609 101.384 36.0119C102.063 36.7629 102.421 37.8358 102.421 39.1589V39.8742H102.349ZM97.164 37.0848C96.8064 37.4781 96.5918 38.0146 96.5203 38.694H100.49C100.454 37.9788 100.275 37.4424 99.9534 37.049C99.6316 36.6914 99.1667 36.4768 98.5945 36.4768C97.9866 36.5126 97.5217 36.6914 97.164 37.0848Z" fill="#3C3C3C"/>
<path d="M111.719 39.8742H105.854C105.926 40.6609 106.176 41.2689 106.569 41.6623C106.963 42.0556 107.571 42.2344 108.322 42.2344C109.287 42.2344 110.146 41.9126 110.932 41.3046L111.576 42.8066C111.183 43.1285 110.682 43.4146 110.074 43.5934C109.466 43.808 108.858 43.8795 108.25 43.8795C106.856 43.8795 105.711 43.4861 104.924 42.6636C104.102 41.8768 103.708 40.7682 103.708 39.3735C103.708 38.4795 103.887 37.6927 104.245 37.0132C104.603 36.3338 105.103 35.7974 105.747 35.4397C106.391 35.0464 107.106 34.8676 107.928 34.8676C109.108 34.8676 110.038 35.2609 110.754 36.0119C111.433 36.7629 111.791 37.8358 111.791 39.1589V39.8742H111.719ZM106.498 37.0848C106.14 37.4781 105.926 38.0146 105.854 38.694H109.824C109.788 37.9788 109.609 37.4424 109.287 37.049C108.965 36.6914 108.501 36.4768 107.928 36.4768C107.356 36.5126 106.856 36.6914 106.498 37.0848Z" fill="#3C3C3C"/>
<path d="M120.838 35.8331C121.339 36.4053 121.589 37.2994 121.589 38.4795V43.7722H119.372V38.6225C119.372 37.9431 119.229 37.4782 118.979 37.1563C118.728 36.8345 118.335 36.6914 117.799 36.6914C117.155 36.6914 116.654 36.906 116.261 37.2994C115.867 37.6927 115.689 38.2292 115.689 38.9086V43.808H113.471V35.1894H115.617V36.4768C115.903 36.0119 116.297 35.6186 116.797 35.3682C117.298 35.1179 117.834 34.9749 118.478 34.9749C119.551 34.9749 120.338 35.2609 120.838 35.8331Z" fill="#3C3C3C"/>
<path d="M130.351 43.5577C129.528 43.3074 128.813 42.9498 128.241 42.4491L128.992 40.8041C129.6 41.269 130.208 41.5908 130.887 41.8054C131.567 42.02 132.282 42.1272 133.033 42.1272C133.891 42.1272 134.535 41.9842 135 41.6623C135.465 41.3762 135.679 40.9471 135.679 40.4107C135.679 39.9458 135.465 39.5882 135.036 39.3378C134.607 39.0875 133.891 38.8729 132.89 38.6226C131.853 38.408 131.03 38.1577 130.387 37.8359C129.743 37.5498 129.242 37.1564 128.92 36.6915C128.599 36.2266 128.42 35.6544 128.42 34.9392C128.42 34.2239 128.634 33.5445 129.028 32.9723C129.421 32.4001 129.993 31.9352 130.709 31.6133C131.424 31.2915 132.282 31.1127 133.212 31.1127C134.07 31.1127 134.893 31.2557 135.715 31.506C136.502 31.7564 137.146 32.1498 137.646 32.5789L136.895 34.2239C135.787 33.3299 134.571 32.9008 133.212 32.9008C132.425 32.9008 131.781 33.0796 131.316 33.4014C130.852 33.7233 130.637 34.1882 130.637 34.7604C130.637 35.2253 130.852 35.6186 131.245 35.869C131.674 36.1193 132.354 36.3696 133.355 36.5842C134.392 36.8345 135.25 37.0849 135.894 37.3709C136.538 37.657 137.038 38.0147 137.396 38.4796C137.754 38.9087 137.932 39.4809 137.932 40.1604C137.932 40.9113 137.718 41.5551 137.324 42.0915C136.931 42.6637 136.359 43.0928 135.608 43.3789C134.857 43.665 133.999 43.8438 132.961 43.8438C132.067 43.9511 131.173 43.808 130.351 43.5577Z" fill="#3C3C3C"/>
<path d="M141.473 43.3788C140.793 43.0212 140.292 42.4848 139.935 41.8053C139.577 41.1258 139.398 40.3391 139.398 39.4093C139.398 38.5152 139.577 37.7285 139.935 37.049C140.292 36.3696 140.829 35.8689 141.473 35.4755C142.152 35.1179 142.903 34.9391 143.797 34.9391C144.691 34.9391 145.442 35.1179 146.122 35.4755C146.801 35.8331 147.302 36.3696 147.659 37.049C148.017 37.7285 148.196 38.5152 148.196 39.4093C148.196 40.3033 148.017 41.1258 147.659 41.8053C147.302 42.4848 146.801 43.0212 146.122 43.3788C145.442 43.7364 144.691 43.9152 143.797 43.9152C142.903 43.9152 142.116 43.7364 141.473 43.3788ZM145.406 41.5192C145.8 41.0543 145.979 40.3391 145.979 39.445C145.979 38.551 145.8 37.8358 145.406 37.3709C145.013 36.906 144.477 36.6556 143.797 36.6556C143.118 36.6556 142.545 36.906 142.152 37.3709C141.759 37.8358 141.58 38.551 141.58 39.445C141.58 40.3749 141.759 41.0543 142.152 41.5192C142.545 41.9841 143.082 42.2345 143.761 42.2345C144.477 42.2345 145.049 41.9841 145.406 41.5192Z" fill="#3C3C3C"/>
<path d="M152.738 35.1894H155.026V36.8344H152.738V43.8079H150.556V36.8344H148.911V35.1894H150.556C150.556 33.9377 150.878 33.0437 151.522 32.4C152.165 31.792 153.167 31.4344 154.526 31.3629L155.384 31.3271L155.527 32.9722L154.705 33.0079C154.025 33.0437 153.524 33.1868 153.238 33.4728C152.952 33.7589 152.809 34.1881 152.809 34.796V35.1894H152.738Z" fill="#3C3C3C"/>
<path d="M160.999 42.2345L160.891 43.8795C160.534 43.9153 160.212 43.9153 159.926 43.9153C158.71 43.9153 157.816 43.6292 157.244 43.0928C156.671 42.5206 156.385 41.6981 156.385 40.5895V36.8345H154.74V35.1895H156.385V32.6146H158.602V35.1895H160.891V36.8345H158.602V40.5537C158.602 41.6981 159.139 42.2703 160.212 42.2703C160.426 42.2703 160.712 42.2703 160.999 42.2345Z" fill="#3C3C3C"/>
<path d="M176.197 35.1895L172.8 43.808H170.869L168.759 38.2649L166.685 43.808H164.789L161.392 35.1895H163.645L165.862 41.1974L168.079 35.1895H169.653L171.87 41.2332L174.051 35.1895H176.197Z" fill="#3C3C3C"/>
<path d="M183.779 35.8332C184.351 36.4054 184.673 37.3352 184.673 38.5511V43.7723H182.563V42.4491C182.348 42.914 182.062 43.2716 181.633 43.5219C181.204 43.7723 180.703 43.9153 180.131 43.9153C179.559 43.9153 179.022 43.808 178.557 43.5577C178.092 43.3074 177.699 42.9855 177.449 42.5921C177.163 42.1988 177.055 41.7339 177.055 41.2332C177.055 40.5895 177.234 40.0888 177.556 39.7312C177.878 39.3736 178.414 39.0875 179.13 38.9445C179.845 38.7656 180.846 38.6941 182.134 38.6941H182.563V38.3007C182.563 37.7286 182.42 37.2994 182.169 37.0491C181.919 36.7988 181.49 36.6557 180.918 36.6557C180.453 36.6557 179.988 36.7272 179.487 36.906C178.987 37.0491 178.486 37.2994 178.021 37.5497L177.413 36.0478C177.878 35.7259 178.486 35.4756 179.165 35.2968C179.845 35.0822 180.489 35.0107 181.096 35.0107C182.312 34.9749 183.206 35.261 183.779 35.8332ZM182.026 41.7696C182.384 41.3762 182.598 40.8756 182.598 40.2319V39.8743H182.277C181.49 39.8743 180.882 39.91 180.453 39.9815C180.024 40.0531 179.702 40.1603 179.523 40.3392C179.344 40.518 179.237 40.7683 179.237 41.0544C179.237 41.4478 179.38 41.7339 179.63 41.9842C179.881 42.2345 180.202 42.3418 180.632 42.3418C181.168 42.3418 181.633 42.163 182.026 41.7696Z" fill="#3C3C3C"/>
<path d="M192.576 36.7987L191.289 36.906C189.822 37.049 189.107 37.8 189.107 39.1232V43.7722H186.89V35.1894H189V36.6914C189.429 35.6543 190.359 35.0821 191.753 35.0106L192.433 34.9749L192.576 36.7987Z" fill="#3C3C3C"/>
<path d="M201.052 39.8742H195.187C195.258 40.6609 195.509 41.2689 195.902 41.6623C196.295 42.0556 196.903 42.2344 197.654 42.2344C198.62 42.2344 199.478 41.9126 200.265 41.3046L200.909 42.8066C200.515 43.1285 200.015 43.4146 199.407 43.5934C198.799 43.808 198.191 43.8795 197.583 43.8795C196.188 43.8795 195.044 43.4861 194.257 42.6636C193.434 41.8768 193.041 40.7682 193.041 39.3735C193.041 38.4795 193.22 37.6927 193.577 37.0132C193.935 36.3338 194.436 35.7974 195.079 35.4397C195.723 35.0464 196.438 34.8676 197.261 34.8676C198.441 34.8676 199.371 35.2609 200.086 36.0119C200.766 36.7629 201.123 37.8358 201.123 39.1589V39.8742H201.052ZM195.83 37.0848C195.473 37.4781 195.258 38.0146 195.187 38.694H199.156C199.12 37.9788 198.942 37.4424 198.62 37.049C198.298 36.6914 197.833 36.4768 197.261 36.4768C196.689 36.5126 196.188 36.6914 195.83 37.0848Z" fill="#3C3C3C"/>
<path d="M26.6781 24.1748H0V54H26.6781V24.1748Z" fill="#3C3C3C"/>
<path d="M44.1298 9.76294H17.4517V54H44.1298V9.76294Z" fill="#006D68"/>
<path d="M63.6913 0H37.0132V54H63.6913V0Z" fill="#AECC53"/>
<path d="M63.6914 51.2106H0V54H63.6914V51.2106Z" fill="#3C3C3C"/>
<path d="M50.3522 32.6145C46.7761 32.6145 43.8794 29.7179 43.8794 26.1417C43.8794 22.8159 49.2079 15.8781 49.8158 15.0914C50.0662 14.7695 50.6383 14.7695 50.8887 15.0914C51.4966 15.8424 56.8609 22.7801 56.8609 26.1059C56.8609 29.6821 53.9284 32.6145 50.3522 32.6145ZM50.3522 16.6291C48.5284 19.0609 45.2383 23.9245 45.2383 26.1059C45.2383 28.9311 47.5271 31.2198 50.3522 31.2198C53.1774 31.2198 55.4662 28.9311 55.4662 26.1059C55.4662 23.9245 52.1761 19.0609 50.3522 16.6291Z" fill="white"/>
<path d="M50.3523 36.441C49.9589 36.441 49.6729 36.1192 49.6729 35.7615V25.5695C49.6729 25.1761 49.9947 24.89 50.3523 24.89C50.7099 24.89 51.0318 25.2119 51.0318 25.5695V35.7615C51.0318 36.1192 50.7457 36.441 50.3523 36.441Z" fill="white"/>
</g>
<defs>
<clipPath id="clip0_1040_1612">
<rect width="201.052" height="54" fill="white"/>
</clipPath>
</defs>
</svg>
