<svg width="163" height="534" viewBox="0 0 163 534" fill="none" xmlns="http://www.w3.org/2000/svg">
<path d="M253.024 -77.8228C234.971 -81.7737 209.934 -74.2053 192.061 -65.402C166.547 -52.7987 141.665 -27.7659 132.574 1.19578C121.351 37.2053 102.622 49.4632 76.6833 73.6084C56.3785 92.5548 38.9579 115.316 26.833 140.982C-18.507 237.264 -0.0373154 331.593 52.7384 400.913C70.285 423.956 89.669 445.103 107.758 467.674C121.347 484.668 147.261 506.847 143.838 533.303M292.841 236.272C277.724 220.724 259.486 208.555 246.105 202.474C215.471 188.558 163.625 187.509 132.96 216.588C93.783 253.712 98.9095 305.419 123.69 341.141C142.38 367.974 173.566 374.636 206.747 371.274C236.01 368.348 267.598 359.522 293.623 339.398C306.379 329.541 318.773 315.751 320.855 299.653C323.846 276.849 310.402 254.345 292.841 236.272ZM195.122 412.849C234.236 413.028 281.723 402.138 317.485 376.311C332.054 365.749 351.07 346.549 353.517 326.916C365.244 231.268 279.252 132.102 194.632 136.491C147.928 138.916 98.2068 165.145 74.0705 215.658C55.852 253.732 51.3358 298.308 64.3092 333.781C83.9641 387.591 139.658 412.587 195.122 412.849Z" stroke="#ADCB53" stroke-miterlimit="10"/>
</svg>
