<svg width="159" height="605" viewBox="0 0 159 605" fill="none" xmlns="http://www.w3.org/2000/svg">
<path d="M-164.54 -178.643C-141.394 -183.708 -109.295 -174.005 -86.3794 -162.718C-53.6681 -146.559 -21.7671 -114.465 -10.1122 -77.333C4.27778 -31.1653 28.2901 -15.4495 61.5457 15.507C87.5784 39.7982 109.913 68.9799 125.459 101.887C183.589 225.329 159.909 346.269 92.2454 435.143C69.749 464.686 44.8967 491.799 21.705 520.737C4.28211 542.526 -28.9424 570.961 -24.5528 604.88M-215.589 224.057C-196.208 204.123 -172.825 188.522 -155.67 180.726C-116.394 162.884 -49.9221 161.538 -10.6071 198.82C39.622 246.418 33.0494 312.71 1.27884 358.51C-22.6837 392.912 -62.6672 401.453 -105.208 397.143C-142.726 393.392 -183.226 382.076 -216.592 356.275C-232.947 343.637 -248.837 325.957 -251.506 305.318C-255.342 276.081 -238.104 247.229 -215.589 224.057ZM-90.3047 450.446C-140.453 450.676 -201.335 436.714 -247.186 403.601C-265.865 390.06 -290.245 365.444 -293.382 340.272C-308.417 217.642 -198.168 90.5016 -89.6764 96.1286C-29.7973 99.2376 33.9503 132.866 64.8954 197.629C88.2533 246.443 94.0434 303.594 77.4102 349.074C52.2108 418.064 -19.1938 450.11 -90.3047 450.446Z" stroke="#ADCB53" stroke-miterlimit="10"/>
</svg>
