<svg width="277" height="278" viewBox="0 0 277 278" fill="none" xmlns="http://www.w3.org/2000/svg">
<path d="M275.676 276.803C275.236 276.803 274.906 276.473 274.851 276.033C273.587 258.773 270.618 232.278 267.485 217.271C265.012 205.233 260.394 188.577 248.521 182.531C242.474 179.453 233.844 184.18 229.556 188.138C222.74 194.349 218.728 203.144 215.979 210.125C213.89 215.457 212.076 220.954 210.482 226.506C210.372 226.946 209.932 227.166 209.493 227.056C209.053 226.946 208.833 226.506 208.943 226.066C210.537 220.46 212.406 214.908 214.495 209.521C217.298 202.375 221.421 193.36 228.512 186.873C233.184 182.641 242.584 177.584 249.345 181.047C261.823 187.423 266.606 204.574 269.134 216.887C272.213 232.003 275.236 258.553 276.5 275.868C276.555 276.308 276.17 276.693 275.731 276.748C275.731 276.803 275.731 276.803 275.676 276.803Z" fill="#C8D3DD"/>
<path d="M203.336 162.302C198.059 162.302 193.771 158.015 193.771 152.738C193.771 147.461 198.059 143.173 203.336 143.173C216.144 143.173 226.533 132.784 226.533 119.976V84.356C226.533 79.079 230.821 74.7914 236.098 74.7914C241.375 74.7914 245.662 79.079 245.662 84.356V119.976C245.662 143.338 226.698 162.302 203.336 162.302Z" fill="#ADCB53"/>
<path d="M194.321 209.796C201.247 217.052 210.977 235.851 212.901 245.141V12.6763C212.901 7.39926 208.613 3.11167 203.336 3.11167C198.059 3.11167 193.771 7.39926 193.771 12.6763V209.026C193.991 209.246 194.101 209.576 194.321 209.796Z" fill="#ADCB53"/>
<path d="M203.336 153.397C203.006 153.397 202.677 153.122 202.677 152.738C202.677 152.353 202.951 152.078 203.336 152.078C221.036 152.078 235.493 137.676 235.493 119.921V88.8635C235.493 88.5337 235.768 88.2039 236.153 88.2039C236.538 88.2039 236.812 88.4787 236.812 88.8635V119.921C236.757 138.391 221.751 153.397 203.336 153.397Z" fill="#181818"/>
<path d="M236.098 93.9207C238.739 93.9207 240.88 91.7796 240.88 89.1384C240.88 86.4972 238.739 84.356 236.098 84.356C233.457 84.356 231.315 86.4972 231.315 89.1384C231.315 91.7796 233.457 93.9207 236.098 93.9207Z" fill="#181818"/>
<path d="M203.336 221.724C203.006 221.724 202.677 221.449 202.677 221.064V17.2387C202.677 16.9089 202.951 16.5791 203.336 16.5791C203.721 16.5791 203.996 16.8539 203.996 17.2387V221.064C203.941 221.449 203.666 221.724 203.336 221.724Z" fill="#181818"/>
<path d="M203.336 22.2409C205.977 22.2409 208.118 20.0998 208.118 17.4586C208.118 14.8174 205.977 12.6763 203.336 12.6763C200.695 12.6763 198.554 14.8174 198.554 17.4586C198.554 20.0998 200.695 22.2409 203.336 22.2409Z" fill="#181818"/>
<path d="M240.055 276.803C239.616 276.803 239.231 276.418 239.231 275.978V201.935C239.231 201.495 239.616 201.11 240.055 201.11C240.495 201.11 240.88 201.495 240.88 201.935V275.978C240.825 276.418 240.495 276.803 240.055 276.803Z" fill="#C8D3DD"/>
<path d="M244.948 202.155C244.948 199.461 242.749 197.208 240 197.208C237.252 197.208 235.053 199.406 235.053 202.155C235.053 204.903 237.252 207.102 240 207.102C242.749 207.102 244.948 204.903 244.948 202.155Z" fill="#C8D3DD"/>
<path d="M228.732 275.209C228.292 275.209 227.907 274.824 227.907 274.384V224.143C227.907 223.703 228.292 223.318 228.732 223.318C229.172 223.318 229.556 223.703 229.556 224.143V274.384C229.556 274.879 229.172 275.209 228.732 275.209Z" fill="#C8D3DD"/>
<path d="M228.732 229.365C231.464 229.365 233.679 227.15 233.679 224.417C233.679 221.685 231.464 219.47 228.732 219.47C226 219.47 223.785 221.685 223.785 224.417C223.785 227.15 226 229.365 228.732 229.365Z" fill="#C8D3DD"/>
<path d="M252.479 276.803C252.039 276.803 251.654 276.418 251.654 275.978V216.282C251.654 215.842 252.039 215.457 252.479 215.457C252.918 215.457 253.303 215.842 253.303 216.282V275.978C253.303 276.418 252.918 276.803 252.479 276.803Z" fill="#C8D3DD"/>
<path d="M257.426 216.557C257.426 213.863 255.227 211.61 252.478 211.61C249.73 211.61 247.531 213.808 247.531 216.557C247.531 219.305 249.73 221.504 252.478 221.504C255.227 221.504 257.426 219.25 257.426 216.557Z" fill="#C8D3DD"/>
<path d="M4.07303 136.742C2.36899 139.93 1.32458 143.558 1.26961 147.406C1.1047 160.049 16.7159 174.231 23.9719 174.231C33.7564 174.231 47.3337 160.543 47.3337 147.735C47.3337 142.458 45.5747 137.621 42.6064 133.773C41.1772 131.904 40.8474 129.486 41.7269 127.342C42.6614 125.143 43.1561 122.67 43.1561 120.086C43.1561 115.743 41.6719 111.731 39.1983 108.542C37.6592 106.509 37.3843 103.815 38.5387 101.561C39.6381 99.4176 40.2427 96.944 40.2427 94.3604C40.2427 85.5654 30.5682 68.0302 24.3566 68.0302C18.8597 68.0302 8.47056 85.5654 8.47056 94.3604C8.47056 96.944 9.07522 99.4176 10.1746 101.561C11.329 103.815 11.0541 106.564 9.51498 108.542C7.04136 111.731 5.5572 115.743 5.5572 120.086C5.5572 122.67 6.05192 125.088 6.9864 127.342C7.8659 129.486 7.53609 131.904 6.10689 133.773C5.33732 134.653 4.67769 135.697 4.07303 136.742Z" fill="#ADCB53"/>
<path d="M24.3016 201.605C23.8618 201.605 23.4771 201.22 23.4771 200.781V88.2588C23.4771 87.8191 23.8618 87.4343 24.3016 87.4343C24.7413 87.4343 25.1261 87.8191 25.1261 88.2588V200.781C25.1261 201.22 24.7963 201.605 24.3016 201.605Z" fill="white"/>
<path d="M61.3509 176.649C60.9112 176.649 60.5264 176.264 60.5264 175.825V61.8737C60.5264 61.4339 60.9112 61.0491 61.3509 61.0491C61.7907 61.0491 62.1754 61.4339 62.1754 61.8737V175.825C62.1754 176.319 61.7907 176.649 61.3509 176.649Z" fill="#ADCB53"/>
<path d="M66.2432 62.1485C66.2432 59.455 64.0445 57.2563 61.351 57.2563C58.6575 57.2563 56.4587 59.455 56.4587 62.1485C56.4587 64.842 58.6575 67.0408 61.351 67.0408C64.0445 67.0408 66.2432 64.842 66.2432 62.1485Z" fill="#ADCB53"/>
<path d="M76.7423 181.541C76.3025 181.541 75.9177 181.157 75.9177 180.717V76.2756C75.9177 75.8358 76.3025 75.451 76.7423 75.451C77.182 75.451 77.5668 75.8358 77.5668 76.2756V180.772C77.5668 181.212 77.182 181.541 76.7423 181.541Z" fill="#ADCB53"/>
<path d="M81.6895 76.4955C81.6895 73.802 79.4908 71.6032 76.7973 71.6032C74.1038 71.6032 71.905 73.802 71.905 76.4955C71.905 79.1889 74.1038 81.3877 76.7973 81.3877C79.4908 81.3877 81.6895 79.1889 81.6895 76.4955Z" fill="#ADCB53"/>
<path d="M1.32461 255.31C1.26964 255.31 1.21467 255.31 1.10473 255.31C0.664979 255.2 0.390134 254.76 0.500072 254.321C3.13859 243.382 6.10692 235.796 8.91035 229.2C12.8132 219.965 17.0458 211.829 21.7182 204.354C30.3483 190.611 42.3316 174.835 58.9872 174.835C75.5329 174.835 87.5162 190.556 96.1464 204.244C96.3662 204.628 96.2563 205.123 95.8715 205.398C95.4867 205.618 94.992 205.508 94.7172 205.123C86.3619 191.821 74.7084 176.484 58.9323 176.484C43.1011 176.484 31.4477 191.876 23.0924 205.288C18.475 212.709 14.2973 220.734 10.4495 229.914C7.64606 236.346 4.7327 243.876 2.09418 254.65C2.03921 255.035 1.70939 255.31 1.32461 255.31Z" fill="#C8D3DD"/>
<path d="M59.5918 33.1248C61.808 33.1248 63.6046 31.3282 63.6046 29.1121C63.6046 26.8959 61.808 25.0993 59.5918 25.0993C57.3757 25.0993 55.5791 26.8959 55.5791 29.1121C55.5791 31.3282 57.3757 33.1248 59.5918 33.1248Z" fill="#ADCB53"/>
<path d="M59.5919 14.8751C63.4475 14.8751 66.573 11.7495 66.573 7.89398C66.573 4.03844 63.4475 0.912903 59.5919 0.912903C55.7364 0.912903 52.6108 4.03844 52.6108 7.89398C52.6108 11.7495 55.7364 14.8751 59.5919 14.8751Z" fill="#ADCB53"/>
<path d="M78.1714 256.794H32.8219C32.3821 256.794 31.9973 256.409 31.9973 255.97C31.9973 255.53 32.3821 255.145 32.8219 255.145H78.2263C78.6661 255.145 79.0509 255.53 79.0509 255.97C79.0509 256.409 78.6111 256.794 78.1714 256.794Z" fill="#ADCB53"/>
<path d="M26.1156 256.794H8.91023C8.47048 256.794 8.08569 256.409 8.08569 255.97C8.08569 255.53 8.47048 255.145 8.91023 255.145H26.1156C26.5553 255.145 26.9401 255.53 26.9401 255.97C26.9401 256.409 26.5553 256.794 26.1156 256.794Z" fill="#ADCB53"/>
<path d="M56.0189 255.31C55.5791 255.31 55.1943 254.925 55.1943 254.485V222.933C55.1943 222.493 55.5791 222.109 56.0189 222.109C56.4586 222.109 56.8434 222.493 56.8434 222.933V254.485C56.7884 254.925 56.4586 255.31 56.0189 255.31Z" fill="#ADCB53"/>
<path d="M67.6724 209.191C67.8922 209.026 68.0571 208.806 68.2221 208.586C69.0466 207.542 68.9916 206.058 68.0571 205.068L66.1332 203.144C60.5813 197.592 51.5664 197.592 46.0145 203.144L44.0906 205.068C43.1561 206.003 43.1012 207.542 43.9257 208.586C44.0906 208.806 44.2555 209.026 44.4204 209.246C45.7397 211.115 47.8835 211.939 49.5325 213.533C51.7313 215.622 52.7208 218.975 55.4692 220.515C58.8773 222.384 60.8562 219.8 62.3953 216.887C63.4397 215.018 64.2093 212.984 65.4186 211.225C66.0783 210.4 66.9578 209.851 67.6724 209.191Z" fill="white"/>
<path d="M56.6235 224.417C54.2598 223.758 51.7312 223.428 49.2576 223.483C46.9489 223.538 44.6952 224.198 42.3865 224.143C42.1666 224.143 41.9467 224.143 41.7268 224.143C40.6824 224.198 39.748 223.483 39.583 222.439L39.2532 220.295C38.3188 214.303 42.4414 208.586 48.4331 207.652L50.5769 207.322C51.6213 207.157 52.6107 207.817 52.8306 208.806C52.8856 209.026 52.9405 209.246 52.9955 209.411C53.8201 211.775 54.7545 214.138 55.4142 216.557C56.1288 219.03 56.3486 221.504 56.5685 224.033" fill="#C8D3DD"/>
<path d="M56.5136 224.417C57.4481 224.472 58.5475 223.758 59.427 223.538C60.5813 223.263 61.7357 223.098 62.945 223.043C64.9239 222.988 66.9028 223.263 68.7717 223.868C70.2009 224.307 72.2897 224.417 72.5646 222.439L72.8944 220.295C73.8289 214.303 69.7062 208.586 63.7146 207.652L61.5708 207.322C60.5263 207.157 59.5369 207.817 59.317 208.806C59.2621 209.026 59.2071 209.246 59.1521 209.411L56.1288 218.261C55.799 219.195 55.5242 220.075 55.4142 221.064C55.3043 222.054 55.3592 223.043 55.799 223.923C55.9089 224.088 55.9639 224.252 56.1288 224.362C56.2387 224.582 56.3487 224.527 56.5136 224.417Z" fill="#C8D3DD"/>
<path d="M59.2069 224.143C59.2069 222.493 57.8877 222.658 56.2386 222.658C54.5895 222.658 53.2703 222.493 53.2703 224.143C53.2703 225.792 54.5895 228.595 56.2386 228.595C57.8877 228.595 59.2069 225.792 59.2069 224.143Z" fill="#ADCB53"/>
<path d="M137.208 275.264H95.1019C94.6621 275.264 94.2773 274.879 94.2773 274.439C94.2773 274 94.6621 273.615 95.1019 273.615H137.208C137.648 273.615 138.033 274 138.033 274.439C138.033 274.879 137.703 275.264 137.208 275.264Z" fill="#ADCB53"/>
<path d="M164.858 214.303C169.75 209.961 176.016 203.254 182.888 203.914C183.822 204.024 186.021 204.519 186.845 204.848V66.1063C186.845 58.9603 180.964 53.0786 173.818 53.0786H100.159C93.013 53.0786 87.1313 58.9603 87.1313 66.1063V220.515C87.1313 227.661 93.013 233.542 100.159 233.542H152.655C157.162 224.417 159.196 219.36 164.858 214.303Z" fill="white"/>
<path d="M101.258 229.365C94.9369 229.365 89.7698 224.198 89.7698 217.876V68.7998C89.7698 62.4783 94.9369 57.3112 101.258 57.3112H129.293C131.052 57.3112 132.481 58.7404 132.481 60.4994V62.3134C132.481 64.787 134.515 66.8209 136.988 66.8209C139.462 66.8209 141.496 64.787 141.496 62.3134V60.4994C141.496 58.7404 142.925 57.3112 144.684 57.3112H172.718C179.04 57.3112 184.207 62.4783 184.207 68.7998H183.657C183.657 62.7532 178.765 57.8609 172.718 57.8609H144.684C143.255 57.8609 142.045 59.0153 142.045 60.4994V62.3134C142.045 65.1168 139.792 67.3706 136.988 67.3706C134.185 67.3706 131.931 65.1168 131.931 62.3134V60.4994C131.931 59.0702 130.777 57.8609 129.293 57.8609H101.258C95.2117 57.8609 90.3195 62.7532 90.3195 68.7998V217.876C90.3195 223.923 95.2117 228.815 101.258 228.815V229.365Z" fill="#EDECEC"/>
<path d="M154.469 229.09H101.258C95.1018 229.09 90.0447 224.033 90.0447 217.876V68.7998C90.0447 62.6432 95.1018 57.5861 101.258 57.5861H129.293C130.887 57.5861 132.206 58.9053 132.206 60.4994V62.3134C132.206 64.9519 134.35 67.0957 136.988 67.0957C139.627 67.0957 141.771 64.9519 141.771 62.3134V60.4994C141.771 58.9053 143.09 57.5861 144.684 57.5861H172.718C178.875 57.5861 183.932 62.6432 183.932 68.7998V204.134" fill="#181818"/>
<path d="M136.988 64.4023C138.385 64.4023 139.517 63.2702 139.517 61.8737C139.517 60.4772 138.385 59.3451 136.988 59.3451C135.592 59.3451 134.46 60.4772 134.46 61.8737C134.46 63.2702 135.592 64.4023 136.988 64.4023Z" fill="#181818"/>
<path d="M183.932 68.9647H89.9897V69.5144H183.932V68.9647Z" fill="#EDECEC"/>
<path d="M164.253 214.413H89.9897V214.963H164.253V214.413Z" fill="#EDECEC"/>
<path d="M136.988 225.022C134.955 225.022 133.25 223.373 133.25 221.284C133.25 219.195 134.9 217.546 136.988 217.546C139.077 217.546 140.726 219.195 140.726 221.284C140.726 223.373 139.022 225.022 136.988 225.022ZM136.988 218.151C135.229 218.151 133.8 219.58 133.8 221.339C133.8 223.098 135.229 224.527 136.988 224.527C138.747 224.527 140.177 223.098 140.177 221.339C140.122 219.58 138.692 218.151 136.988 218.151Z" fill="#9D9D9C"/>
<path d="M108.899 225.022C108.734 225.022 108.624 224.912 108.624 224.747V218.481C108.624 218.316 108.734 218.206 108.899 218.206C109.064 218.206 109.174 218.316 109.174 218.481V224.747C109.174 224.912 109.064 225.022 108.899 225.022Z" fill="#9D9D9C"/>
<path d="M111.703 225.022C111.538 225.022 111.428 224.912 111.428 224.747V218.481C111.428 218.316 111.538 218.206 111.703 218.206C111.867 218.206 111.977 218.316 111.977 218.481V224.747C111.977 224.912 111.867 225.022 111.703 225.022Z" fill="#9D9D9C"/>
<path d="M114.506 225.022C114.341 225.022 114.231 224.912 114.231 224.747V218.481C114.231 218.316 114.341 218.206 114.506 218.206C114.671 218.206 114.781 218.316 114.781 218.481V224.747C114.781 224.912 114.616 225.022 114.506 225.022Z" fill="#9D9D9C"/>
<path d="M156.997 177.639H116.98C116.65 177.639 116.43 177.419 116.43 177.089V117.228C116.43 116.898 116.65 116.678 116.98 116.678H156.997C157.327 116.678 157.547 116.898 157.547 117.228V177.089C157.547 177.419 157.272 177.639 156.997 177.639ZM117.529 176.539H156.447V117.777H117.529V176.539V176.539Z" fill="#C8D3DD"/>
<path d="M148.202 117.777H125.775C125.445 117.777 125.225 117.557 125.225 117.228V109.532C125.225 109.202 125.445 108.982 125.775 108.982H148.202C148.532 108.982 148.752 109.202 148.752 109.532V117.228C148.752 117.557 148.477 117.777 148.202 117.777ZM126.324 116.678H147.653V110.082H126.324V116.678V116.678Z" fill="#C8D3DD"/>
<path d="M152.215 157.63H121.707V169.778H152.215V157.63Z" fill="#ABCA52"/>
<path d="M152.215 141.139H121.707V153.287H152.215V141.139Z" fill="#ABCA52"/>
<path d="M152.215 124.593H121.707V136.742H152.215V124.593Z" fill="#ABCA52"/>
<path d="M220.322 277.902C219.882 277.902 219.497 277.518 219.497 277.078C219.497 264.215 215.154 252.232 210.977 240.688C207.569 231.234 202.512 219.305 193.881 210.62C193.332 210.07 192.727 209.521 192.177 208.971C187.23 204.519 180.744 203.419 175.302 206.168C171.894 207.927 169.09 210.73 166.452 213.479C158.536 221.614 153.479 232.388 148.587 242.777C148.147 243.767 147.652 244.756 147.213 245.69C142.925 254.76 139.792 264.545 138.253 274.055C138.198 274.494 137.758 274.824 137.318 274.714C136.878 274.659 136.549 274.219 136.659 273.78C138.253 264.105 141.441 254.156 145.783 244.976C146.223 243.986 146.718 243.052 147.158 242.062C152.105 231.563 157.217 220.68 165.352 212.324C167.991 209.631 170.959 206.552 174.642 204.683C180.689 201.605 187.89 202.76 193.332 207.707C193.936 208.256 194.541 208.806 195.091 209.411C203.941 218.316 209.108 230.464 212.571 240.084C216.804 251.792 221.201 263.885 221.201 277.023C221.146 277.573 220.761 277.902 220.322 277.902Z" fill="#ADCB53"/>
<path d="M160.68 275.209C160.295 275.209 159.965 274.934 159.855 274.549C158.481 266.854 156.227 260.037 153.369 255.475C152.05 253.331 149.411 251.022 146.223 251.572C145.728 251.682 145.289 251.792 144.904 251.957C144.519 252.122 144.024 251.957 143.804 251.572C143.639 251.187 143.804 250.693 144.189 250.473C144.684 250.253 145.289 250.033 145.893 249.923C149.906 249.208 153.149 252.012 154.743 254.595C157.657 259.378 160.02 266.359 161.449 274.219C161.504 274.659 161.23 275.099 160.79 275.154C160.735 275.209 160.735 275.209 160.68 275.209Z" fill="#ADCB53"/>
<path d="M174.367 274.824C173.982 274.824 173.653 274.549 173.598 274.164C171.124 262.566 166.287 251.847 159.086 242.282C158.096 240.963 156.887 239.479 155.293 238.874C153.974 238.38 152.545 238.435 150.895 239.094C150.456 239.259 150.016 239.039 149.851 238.654C149.686 238.215 149.906 237.775 150.291 237.61C152.325 236.785 154.194 236.73 155.898 237.39C157.822 238.105 159.196 239.699 160.405 241.348C167.716 251.132 172.718 262.071 175.247 273.89C175.357 274.329 175.082 274.769 174.642 274.879C174.477 274.824 174.422 274.824 174.367 274.824Z" fill="#ADCB53"/>
<path d="M187.78 273.945C187.395 273.945 187.065 273.67 187.01 273.285C183.767 258.388 177.226 244.206 168.046 232.333C165.297 228.76 160.735 225.462 156.722 226.121C156.282 226.176 155.843 225.902 155.788 225.462C155.733 225.022 156.008 224.582 156.447 224.527C161.45 223.648 166.562 227.661 169.365 231.344C178.655 243.437 185.306 257.839 188.604 272.955C188.714 273.395 188.439 273.835 188 273.945C187.89 273.89 187.835 273.945 187.78 273.945Z" fill="#ADCB53"/>
</svg>
