<svg width="410" height="533" viewBox="0 0 410 533" fill="none" xmlns="http://www.w3.org/2000/svg">
<g clip-path="url(#clip0_725_5790)">
<path d="M295.551 461.456V47.6667" stroke="#353535" stroke-width="3.9278" stroke-miterlimit="10" stroke-linecap="round" stroke-linejoin="round"/>
<path d="M325.38 92.5034H369.992C379.905 92.5034 387.96 100.639 387.96 110.456C387.96 110.633 387.96 110.81 387.96 110.898C387.96 111.075 387.96 111.252 387.96 111.34V133.891C387.96 138.578 384.685 142.735 380.082 143.442C374.24 144.327 369.195 139.816 369.195 134.156V133.007C369.195 130.442 367.071 128.32 364.504 128.32C361.937 128.32 359.812 130.442 359.812 133.007V148.925C359.812 154.054 355.564 158.299 350.43 158.299C345.296 158.299 341.047 154.054 341.047 148.925V133.007C341.047 130.442 338.923 128.32 336.356 128.32H325.469C315.555 128.32 307.5 120.184 307.5 110.367C307.412 100.639 315.467 92.5034 325.38 92.5034Z" fill="#353535"/>
<path d="M347.332 76.585H391.943C401.414 76.585 409.204 83.9252 409.912 93.2109C409.912 93.4762 410 93.8299 410 94.1837V94.6258V123.721C410 127.258 407.522 130.354 403.981 130.884C399.733 131.415 396.103 128.143 396.103 123.986V116.558C396.103 114.347 394.245 112.578 392.032 112.578H347.42C337.507 112.578 329.452 104.442 329.452 94.6258C329.363 84.7211 337.418 76.585 347.332 76.585Z" fill="#ADCB53"/>
<path d="M295.551 181.027H303.517C322.902 181.027 338.834 165.109 338.834 145.741V129.912" stroke="#353535" stroke-width="3.9278" stroke-miterlimit="10" stroke-linecap="round" stroke-linejoin="round"/>
<path d="M334.055 168.204H342.021C355.298 168.204 373.886 167.762 376.984 143.531" stroke="#353535" stroke-width="3.9278" stroke-miterlimit="10" stroke-linecap="round" stroke-linejoin="round"/>
<path d="M259.525 131.592H251.559C238.282 131.592 219.694 131.15 216.596 106.918" stroke="#353535" stroke-width="3.9278" stroke-miterlimit="10" stroke-linecap="round" stroke-linejoin="round"/>
<path d="M273.953 60.7551V76.5851C273.953 91.1769 282.893 103.735 295.551 109.129" stroke="#353535" stroke-width="3.9278" stroke-miterlimit="10" stroke-linecap="round" stroke-linejoin="round"/>
<path d="M252.267 93.6531V109.483C252.267 128.85 268.2 144.769 287.584 144.769H295.551" stroke="#353535" stroke-width="3.9278" stroke-miterlimit="10" stroke-linecap="round" stroke-linejoin="round"/>
<path d="M227.66 72.8707H205.354C195.441 72.8707 187.386 81.0068 187.386 90.8231C187.386 91 187.386 91.1768 187.386 91.2653C187.386 91.4422 187.386 91.619 187.386 91.7075V114.258C187.386 118.946 190.661 123.102 195.264 123.809C201.106 124.694 206.151 120.184 206.151 114.524V113.374C206.151 110.809 208.275 108.687 210.842 108.687C213.409 108.687 227.66 108.687 227.66 108.687C237.574 108.687 245.628 100.551 245.628 90.7347C245.628 80.9183 237.574 72.8707 227.66 72.8707Z" fill="#353535"/>
<path d="M343.614 82.5102H364.415C369.637 82.5102 373.886 78.2653 373.886 73.0476V72.9592C373.886 67.7415 369.637 63.4966 364.415 63.4966H343.614C338.392 63.4966 334.143 67.7415 334.143 72.9592V73.0476C334.054 78.1768 338.392 82.5102 343.614 82.5102Z" fill="#ADCB53"/>
<path d="M247.045 60.7551H295.816C302.986 60.7551 308.916 54.9184 308.916 47.6667V47.5782C308.916 40.415 303.074 34.4898 295.816 34.4898H247.045C239.875 34.4898 233.944 40.3265 233.944 47.5782V47.6667C233.944 54.8299 239.786 60.7551 247.045 60.7551Z" fill="#353535"/>
<path d="M250.319 9.81633H258.817V7.95918C258.817 3.62585 262.357 0 266.783 0H309.27C313.607 0 317.237 3.53742 317.237 7.95918V9.81633H323.167C332.815 9.81633 340.693 17.6871 340.693 27.3265V33.8707C340.693 43.5102 332.815 51.381 323.167 51.381H250.408C240.76 51.381 232.882 43.5102 232.882 33.8707V27.3265C232.794 17.6871 240.671 9.81633 250.319 9.81633Z" fill="#ADCB53"/>
<path d="M201.725 100.109C201.725 91.0884 209.072 83.7483 218.1 83.7483H249.346C258.375 83.7483 265.721 91.0884 265.721 100.109C265.721 109.129 258.375 116.469 249.346 116.469H218.1C218.012 116.469 218.012 116.469 217.923 116.469C216.242 116.469 214.737 117.354 213.94 118.857C212.701 121.156 210.045 122.66 207.213 122.218C203.938 121.687 201.725 118.769 201.725 115.497V103.293C201.725 102.85 201.814 102.408 201.814 102.054C201.814 101.435 201.725 100.816 201.725 100.109Z" fill="#ADCB53"/>
<path d="M376.896 25.4694C379.242 25.4694 381.144 23.5689 381.144 21.2245C381.144 18.8801 379.242 16.9796 376.896 16.9796C374.549 16.9796 372.647 18.8801 372.647 21.2245C372.647 23.5689 374.549 25.4694 376.896 25.4694Z" stroke="#ADCB53" stroke-width="3.902" stroke-miterlimit="10"/>
<path d="M203.053 38.8231C207.697 38.8231 211.462 35.0617 211.462 30.4217C211.462 25.7818 207.697 22.0204 203.053 22.0204C198.409 22.0204 194.644 25.7818 194.644 30.4217C194.644 35.0617 198.409 38.8231 203.053 38.8231Z" stroke="#ADCB53" stroke-width="7.8041" stroke-miterlimit="10"/>
<path d="M129.94 406.272C129.409 404.503 127.904 403.177 126.133 402.823C124.275 402.381 122.416 401.673 120.823 400.524C117.99 398.578 116.043 395.748 115.069 392.742C114.45 390.796 112.856 389.381 110.82 389.116C108.962 388.85 107.014 388.143 105.333 386.993C102.146 384.782 101.526 381.687 99.3135 378.946C97.1007 376.204 93.206 374.878 90.108 373.463C89.2229 373.02 88.2492 372.578 87.8066 371.694C86.9215 370.014 88.4262 368.068 89.931 366.918C97.7203 360.993 111.706 360.639 119.849 366.299C121.531 367.449 122.858 368.952 123.744 370.633C124.717 372.401 126.576 373.463 128.612 373.374C131.798 373.197 135.073 374.082 137.906 376.027C139.588 377.177 140.915 378.592 141.978 380.272C143.571 382.837 147.643 383.986 150.121 385.49C153.308 387.435 156.406 389.646 158.53 392.83C160.831 396.191 161.628 399.02 161.008 402.912C160.123 408.748 164.106 419.98 156.76 423.429C154.193 424.667 151.095 423.34 148.793 421.748C146.934 420.422 144.987 418.565 142.686 417.946C140.561 417.327 138.88 417.327 136.932 415.912C133.48 413.347 131.09 409.986 129.94 406.272Z" stroke="#ADCB53" stroke-width="1.6833" stroke-miterlimit="10" stroke-linecap="round" stroke-linejoin="round"/>
<path d="M107.191 372.932C123.124 379.742 137.198 390.796 147.731 404.592C156.317 415.823 160.92 431.299 161.185 445.361" stroke="#ADCB53" stroke-width="1.6833" stroke-miterlimit="10" stroke-linecap="round" stroke-linejoin="round"/>
<path d="M203.761 376.558C205.177 379.122 205.885 381.952 205.974 385.048C206.062 395.041 193.759 406.272 188.005 406.272C180.216 406.272 169.506 395.395 169.506 385.313C169.506 381.156 170.922 377.265 173.223 374.259C174.374 372.755 174.64 370.898 173.932 369.129C173.223 367.361 172.781 365.415 172.781 363.381C172.781 359.932 173.932 356.748 175.967 354.184C177.207 352.592 177.384 350.469 176.499 348.612C175.613 346.932 175.171 344.986 175.171 342.952C175.171 335.966 182.872 322.082 187.74 322.082C192.077 322.082 200.309 335.966 200.309 342.952C200.309 344.986 199.778 346.932 198.981 348.612C198.096 350.381 198.273 352.592 199.512 354.184C201.46 356.748 202.699 359.932 202.699 363.381C202.699 365.415 202.256 367.361 201.548 369.129C200.84 370.81 201.106 372.755 202.256 374.259C202.787 374.878 203.318 375.673 203.761 376.558Z" stroke="#ADCB53" stroke-width="1.6833" stroke-miterlimit="10" stroke-linecap="round" stroke-linejoin="round"/>
<path d="M187.74 338.088V438.197" stroke="#ADCB53" stroke-width="1.6833" stroke-miterlimit="10" stroke-linecap="round" stroke-linejoin="round"/>
<path d="M110.024 479.231C110.732 480.116 111.794 480.735 112.945 481.265C116.043 482.592 119.495 483.211 122.859 483.83C134.897 485.864 147.643 487.456 159.15 483.741C162.159 482.769 167.824 480.646 167.736 477.374C167.647 473.837 165.169 469.327 163.752 466.054C161.805 461.544 159.592 457.034 156.937 452.789C153.042 446.51 146.492 437.136 137.286 437.136C128.169 437.136 121.619 446.422 117.725 452.701C115.069 456.857 112.856 461.279 110.909 465.789C109.581 469.061 107.457 475.959 110.024 479.231Z" fill="#C8D3DD"/>
<path d="M233.944 481.531C232.882 477.197 230.05 472.333 228.633 469.061C227.483 466.497 220.579 451.551 217.923 446.864C213.055 437.048 207.124 424.49 195.883 420.068C191.634 417.769 186.766 416.707 181.367 418.211C166.85 422.19 160.654 439.082 154.901 449.782C151.714 455.796 148.793 461.809 146.226 468C144.81 471.272 141.977 476.136 140.915 480.469C140.384 482.592 140.296 484.626 141.092 486.218C146.403 497.272 228.456 498.333 233.856 487.279C234.564 485.687 234.475 483.653 233.944 481.531Z" fill="#353535"/>
<path d="M260.499 489.844C260.056 490.374 259.348 490.816 258.64 491.17C256.604 492.054 254.391 492.408 252.267 492.85C244.478 494.177 236.334 495.15 228.899 492.85C226.952 492.231 223.323 490.816 223.411 488.782C223.411 486.483 225.093 483.565 225.978 481.531C227.217 478.612 228.634 475.694 230.404 472.952C232.971 468.884 237.131 462.871 243.062 462.871C248.903 462.871 253.152 468.884 255.631 472.864C257.312 475.605 258.729 478.435 259.968 481.265C260.764 483.299 262.181 487.721 260.499 489.844Z" fill="#C8D3DD"/>
<path d="M372.735 276.007V313.769C372.735 332.871 357.068 348.435 338.038 348.435" stroke="#ADCB53" stroke-width="22.9345" stroke-miterlimit="10" stroke-linecap="round" stroke-linejoin="round"/>
<path d="M335.205 406.803C338.126 402.469 342.729 399.728 347.863 398.844C347.951 398.844 348.128 398.844 348.217 398.755V237.626C348.217 232.054 343.703 227.456 338.038 227.456C332.461 227.456 327.858 231.966 327.858 237.626V420.687C328.124 420.156 328.389 419.626 328.655 419.184C329.983 414.673 332.638 410.517 335.205 406.803Z" fill="#ADCB53"/>
<path d="M372.735 280.605V313.769C372.735 332.871 357.068 348.435 338.038 348.435" stroke="#1E1E1E" stroke-width="1.4529" stroke-linecap="round" stroke-linejoin="round"/>
<path d="M372.735 285.646C375.424 285.646 377.604 283.469 377.604 280.782C377.604 278.096 375.424 275.918 372.735 275.918C370.047 275.918 367.867 278.096 367.867 280.782C367.867 283.469 370.047 285.646 372.735 285.646Z" fill="#1E1E1E"/>
<path d="M338.038 245.673V403.796" stroke="#1E1E1E" stroke-width="1.4529" stroke-linecap="round" stroke-linejoin="round"/>
<path d="M338.038 250.803C340.726 250.803 342.906 248.625 342.906 245.939C342.906 243.252 340.726 241.075 338.038 241.075C335.349 241.075 333.169 243.252 333.169 245.939C333.169 248.625 335.349 250.803 338.038 250.803Z" fill="#1E1E1E"/>
<path d="M309.979 470.299C312.634 461.456 315.466 452.789 318.653 444.211C324.318 428.912 330.602 404.769 345.119 399.02C359.193 393.449 369.726 412.374 375.302 424.932C381.941 439.701 387.694 455.088 392.474 470.918C395.661 481.354 399.732 503.639 400.44 514.517" stroke="#C8D3DD" stroke-width="1.8608" stroke-miterlimit="10" stroke-linecap="round" stroke-linejoin="round"/>
<path d="M361.14 514.871V434.129" stroke="#C8D3DD" stroke-width="1.8608" stroke-linecap="round" stroke-linejoin="round"/>
<path d="M366.097 434.395C366.097 431.653 363.884 429.442 361.14 429.442C358.396 429.442 356.183 431.653 356.183 434.395C356.183 437.136 358.396 439.347 361.14 439.347C363.884 439.347 366.097 437.136 366.097 434.395Z" fill="#C8D3DD"/>
<path d="M337.684 515.313V467.469" stroke="#C8D3DD" stroke-width="1.8608" stroke-linecap="round" stroke-linejoin="round"/>
<path d="M337.683 472.599C340.421 472.599 342.64 470.381 342.64 467.646C342.64 464.911 340.421 462.694 337.683 462.694C334.946 462.694 332.727 464.911 332.727 467.646C332.727 470.381 334.946 472.599 337.683 472.599Z" fill="#C8D3DD"/>
<path d="M349.545 514.871V451.551" stroke="#C8D3DD" stroke-width="1.8608" stroke-linecap="round" stroke-linejoin="round"/>
<path d="M349.545 456.769C352.282 456.769 354.502 454.551 354.502 451.816C354.502 449.081 352.282 446.864 349.545 446.864C346.807 446.864 344.588 449.081 344.588 451.816C344.588 454.551 346.807 456.769 349.545 456.769Z" fill="#C8D3DD"/>
<path d="M225.181 406.449C225.181 423.163 238.812 436.782 255.542 436.782C272.271 436.782 285.902 423.163 285.902 406.449C285.902 395.129 272.094 370.19 263.065 355.156C259.613 349.497 251.382 349.497 248.018 355.156C238.989 370.19 225.181 395.129 225.181 406.449Z" stroke="#C8D3DD" stroke-width="1.8608" stroke-miterlimit="10" stroke-linecap="round" stroke-linejoin="round"/>
<path d="M243.769 388.85C244.831 394.333 249.7 398.49 255.542 398.49C261.383 398.49 266.252 394.333 267.314 388.85" stroke="#C8D3DD" stroke-width="1.8608" stroke-linecap="round" stroke-linejoin="round"/>
<path d="M241.291 389.204C241.114 387.878 242.176 386.639 243.504 386.463C244.831 386.286 246.071 387.347 246.248 388.673C246.425 390 245.363 391.238 244.035 391.415C242.707 391.592 241.468 390.531 241.291 389.204Z" fill="#C8D3DD"/>
<path d="M269.793 389.204C269.97 387.878 268.907 386.639 267.58 386.463C266.252 386.286 265.013 387.347 264.836 388.673C264.659 390 265.721 391.238 267.049 391.415C268.376 391.592 269.616 390.531 269.793 389.204Z" fill="#C8D3DD"/>
<path d="M237.839 405.211C238.99 413.878 246.513 420.687 255.542 420.687C264.57 420.687 272.094 413.878 273.245 405.211" stroke="#C8D3DD" stroke-width="1.8608" stroke-linecap="round" stroke-linejoin="round"/>
<path d="M235.449 405.476C235.36 404.15 236.334 402.912 237.75 402.823C239.078 402.735 240.317 403.707 240.406 405.122C240.494 406.449 239.521 407.687 238.104 407.776C236.688 407.864 235.537 406.891 235.449 405.476Z" fill="#C8D3DD"/>
<path d="M275.635 405.476C275.723 404.15 274.75 402.912 273.333 402.823C272.006 402.735 270.766 403.707 270.678 405.122C270.589 406.449 271.563 407.687 272.979 407.776C274.396 407.864 275.546 406.891 275.635 405.476Z" fill="#C8D3DD"/>
<path d="M255.542 375.497V471.007" stroke="#C8D3DD" stroke-width="1.8608" stroke-linecap="round" stroke-linejoin="round"/>
<path d="M253.063 375.673C253.063 374.347 254.214 373.197 255.542 373.197C256.87 373.197 258.02 374.347 258.02 375.673C258.02 377 256.87 378.15 255.542 378.15C254.126 378.15 253.063 377 253.063 375.673Z" fill="#C8D3DD"/>
<path d="M269.173 447.571C271.475 445.537 273.864 443.503 276.874 442.265C282.008 440.054 287.85 441.204 291.921 444.299C299.799 450.313 304.49 458.803 308.031 467.027C310.421 472.599 315.909 482.061 314.227 488.694C307.854 480.912 297.852 475.429 288.027 479.85C281.919 482.592 275.281 488.163 272.36 494.707C272.094 494.973 271.917 495.238 271.74 495.503C271.032 496.741 270.412 498.068 269.793 499.395C260.676 498.245 251.293 495.592 248.107 490.639C247.399 489.49 247.044 488.34 246.867 487.102C246.071 480.116 262.446 453.408 269.173 447.571Z" fill="#353535"/>
<path d="M252.09 474.367C254.922 473.925 257.843 475.517 259.26 477.462C264.039 484.007 266.341 491.789 265.633 499.394" stroke="#1E1E1E" stroke-width="1.9888" stroke-miterlimit="10" stroke-linecap="round" stroke-linejoin="round"/>
<path d="M276.431 490.374C274.484 482.327 270.59 474.721 264.659 468.088C263.685 467.027 262.358 466.054 260.941 465.612C259.525 465.17 258.197 465.258 256.781 465.701" stroke="#1E1E1E" stroke-width="1.9888" stroke-miterlimit="10" stroke-linecap="round" stroke-linejoin="round"/>
<path d="M284.929 481.796C281.83 474.367 277.405 467.292 271.563 460.925C269.173 458.36 265.632 455.884 261.826 456.503" stroke="#1E1E1E" stroke-width="1.9888" stroke-miterlimit="10" stroke-linecap="round" stroke-linejoin="round"/>
<path d="M223.322 344.279C226.011 344.279 228.191 342.101 228.191 339.415C228.191 336.729 226.011 334.551 223.322 334.551C220.634 334.551 218.454 336.729 218.454 339.415C218.454 342.101 220.634 344.279 223.322 344.279Z" fill="#C8D3DD"/>
<path d="M223.323 322.17C228.016 322.17 231.82 318.369 231.82 313.68C231.82 308.991 228.016 305.19 223.323 305.19C218.63 305.19 214.825 308.991 214.825 313.68C214.825 318.369 218.63 322.17 223.323 322.17Z" fill="#C8D3DD"/>
<path d="M138.702 530.701H0.796631" stroke="#ADCB53" stroke-width="1.855" stroke-miterlimit="10" stroke-linecap="round" stroke-linejoin="round"/>
<path d="M184.11 531.762V484.272" stroke="#ADCB53" stroke-width="1.6746" stroke-linecap="round" stroke-linejoin="round"/>
<path d="M186.943 484.361C186.943 482.857 185.704 481.619 184.199 481.619C182.694 481.619 181.455 482.857 181.455 484.361C181.455 485.864 182.694 487.102 184.199 487.102C185.704 487.102 186.943 485.952 186.943 484.361Z" fill="#ADCB53"/>
<path d="M215.976 531.762V512.041" stroke="#ADCB53" stroke-width="1.6746" stroke-linecap="round" stroke-linejoin="round"/>
<path d="M218.808 512.129C218.808 510.626 217.569 509.388 216.064 509.388C214.56 509.388 213.32 510.626 213.32 512.129C213.32 513.633 214.56 514.871 216.064 514.871C217.569 514.871 218.808 513.721 218.808 512.129Z" fill="#ADCB53"/>
<path d="M169.771 532.204V503.551" stroke="#ADCB53" stroke-width="1.6746" stroke-miterlimit="10" stroke-linecap="round" stroke-linejoin="round"/>
<path d="M208.363 529.551V500.81" stroke="#ADCB53" stroke-width="1.6746" stroke-miterlimit="10" stroke-linecap="round" stroke-linejoin="round"/>
<path d="M197.742 488.34C197.565 488.163 197.388 487.986 197.211 487.81C196.414 486.837 196.503 485.51 197.388 484.626L199.158 482.857C204.203 477.816 212.435 477.816 217.392 482.857L219.162 484.626C220.047 485.51 220.047 486.837 219.339 487.81C219.162 487.986 218.985 488.252 218.897 488.429C217.658 490.109 215.799 490.905 214.205 492.32C212.17 494.265 211.373 497.272 208.806 498.687C205.708 500.367 203.938 497.98 202.522 495.415C201.548 493.735 200.84 491.878 199.778 490.286C199.158 489.49 198.361 489.048 197.742 488.34Z" fill="white"/>
<path d="M207.833 502.225C210.045 501.606 212.258 501.34 214.471 501.429C216.595 501.429 218.631 502.048 220.756 502.048C220.933 502.048 221.11 502.048 221.375 502.048C222.349 502.136 223.146 501.429 223.323 500.456L223.588 498.51C224.473 493.027 220.667 487.898 215.268 487.014L213.32 486.748C212.347 486.572 211.462 487.191 211.285 488.075C211.196 488.252 211.196 488.429 211.108 488.606C210.399 490.728 209.514 492.939 208.895 495.15C208.275 497.361 208.01 499.66 207.833 501.959" fill="#C8D3DD"/>
<path d="M207.921 502.225C207.124 502.225 206.062 501.606 205.265 501.429C204.203 501.164 203.141 500.987 202.079 500.987C200.309 500.898 198.45 501.164 196.768 501.783C195.529 502.225 193.581 502.225 193.316 500.544L193.05 498.599C192.165 493.116 195.971 487.987 201.371 487.102L203.318 486.837C204.292 486.66 205.177 487.279 205.354 488.164C205.442 488.34 205.442 488.517 205.531 488.694L208.275 496.742C208.54 497.538 208.806 498.422 208.983 499.306C209.072 500.191 208.983 501.075 208.629 501.871C208.54 502.048 208.452 502.136 208.363 502.313C208.098 502.402 208.009 502.313 207.921 502.225Z" fill="#C8D3DD"/>
<path d="M205.442 501.959C205.442 500.456 206.682 500.633 208.098 500.633C209.514 500.633 210.753 500.456 210.753 501.959C210.753 503.463 209.514 506.027 208.098 506.027C206.682 506.027 205.442 503.463 205.442 501.959Z" fill="#ADCB53"/>
<path d="M118.787 529.374V503.993" stroke="#ADCB53" stroke-width="1.855" stroke-miterlimit="10" stroke-linecap="round" stroke-linejoin="round"/>
<path d="M117.371 502.49C118.964 501.871 120.734 501.429 122.416 501.34C124.009 501.163 125.691 501.517 127.284 501.252C127.461 501.252 127.55 501.252 127.727 501.252C128.435 501.252 129.055 500.633 129.055 499.925L129.143 498.422C129.32 494.177 126.045 490.463 121.797 490.286L120.292 490.197C119.584 490.197 118.876 490.728 118.787 491.435C118.787 491.612 118.699 491.701 118.699 491.878C118.344 493.646 117.813 495.327 117.548 497.095C117.194 498.864 117.282 500.633 117.282 502.401" fill="white"/>
<path d="M118.256 502.136C117.636 502.048 116.928 501.517 116.308 501.252C115.512 500.986 114.715 500.721 113.918 500.633C112.591 500.456 111.175 500.456 109.758 500.721C108.696 500.898 107.28 500.81 107.191 499.395L107.103 497.891C106.926 493.646 110.289 490.02 114.538 489.844L116.043 489.755C116.751 489.755 117.371 490.286 117.548 490.993C117.548 491.17 117.636 491.259 117.636 491.435L119.052 497.803C119.229 498.51 119.318 499.129 119.318 499.837C119.318 500.544 119.141 501.252 118.787 501.782C118.698 501.871 118.61 501.959 118.521 502.048C118.433 502.225 118.433 502.225 118.256 502.136Z" fill="white"/>
<path d="M115.777 501.252C115.777 499.571 117.105 499.748 118.787 499.748C120.469 499.748 121.796 499.571 121.796 501.252C121.796 502.932 120.469 505.673 118.787 505.673C117.194 505.762 115.777 502.932 115.777 501.252Z" fill="#ADCB53"/>
<path d="M168.355 509.211C169.86 508.68 171.364 508.238 172.958 508.15C174.462 508.061 175.879 508.326 177.295 508.15C177.472 508.15 177.561 508.15 177.738 508.15C178.357 508.15 178.888 507.619 178.977 506.911L179.065 505.585C179.242 501.782 176.233 498.422 172.427 498.245L171.099 498.156C170.391 498.156 169.86 498.599 169.771 499.218C169.771 499.394 169.683 499.483 169.683 499.66C169.329 501.252 168.886 502.755 168.621 504.347C168.355 505.939 168.355 507.531 168.355 509.122" fill="white"/>
<path d="M169.152 508.946C168.621 508.857 167.912 508.415 167.381 508.15C166.673 507.884 165.965 507.707 165.168 507.619C163.929 507.442 162.69 507.442 161.451 507.707C160.566 507.884 159.238 507.796 159.149 506.558L159.061 505.231C158.884 501.429 161.982 498.156 165.788 497.98L167.116 497.891C167.824 497.891 168.355 498.333 168.444 499.041C168.444 499.218 168.443 499.306 168.532 499.483L169.771 505.231C169.86 505.85 170.037 506.469 170.037 507C170.037 507.619 169.948 508.238 169.594 508.769C169.506 508.857 169.417 508.946 169.329 509.034C169.24 509.122 169.329 508.946 169.152 508.946Z" fill="white"/>
<path d="M166.938 508.15C166.938 506.646 168.178 506.823 169.594 506.823C171.01 506.823 172.249 506.646 172.249 508.15C172.249 509.653 171.01 512.218 169.594 512.218C168.178 512.218 166.938 509.565 166.938 508.15Z" fill="#ADCB53"/>
<path d="M257.755 530.966C258.817 523.272 261.03 515.667 264.216 508.592C268.819 498.333 275.192 489.49 283.955 482.592C292.718 475.605 302.543 476.843 310.687 484.272C319.715 492.497 327.239 509.034 330.691 529.374" stroke="#ADCB53" stroke-width="1.855" stroke-miterlimit="10" stroke-linecap="round" stroke-linejoin="round"/>
<path d="M262.8 511.864C263.951 509.565 266.252 507.354 269.085 508.415C271.74 509.476 273.068 512.837 273.688 515.401C274.927 520.619 275.369 526.014 275.104 531.408" stroke="#ADCB53" stroke-width="1.855" stroke-miterlimit="10" stroke-linecap="round" stroke-linejoin="round"/>
<path d="M267.492 502.224C269.173 499.66 273.776 498.156 276.609 499.129C278.999 499.925 280.946 501.871 282.097 504.17C283.247 506.381 283.867 508.945 284.221 511.422C285.283 517.789 285.549 524.245 285.106 530.612" stroke="#ADCB53" stroke-width="1.855" stroke-miterlimit="10" stroke-linecap="round" stroke-linejoin="round"/>
<path d="M274.573 492.054C277.405 489.313 280.68 486.306 284.752 488.517C290.682 491.789 293.426 501.694 295.197 507.707C297.498 515.401 298.649 522.476 298.472 530.524" stroke="#ADCB53" stroke-width="1.855" stroke-miterlimit="10" stroke-linecap="round" stroke-linejoin="round"/>
<path d="M152.334 532.204H257.755" stroke="#ADCB53" stroke-width="1.855" stroke-miterlimit="10" stroke-linecap="round" stroke-linejoin="round"/>
<path d="M361.051 514.871H409.734" stroke="#C8D3DD" stroke-width="1.1222" stroke-miterlimit="10"/>
<path d="M395.572 521.503H370.699" stroke="#C8D3DD" stroke-width="1.1222" stroke-miterlimit="10"/>
<path d="M0.796631 529.374C1.68178 522.653 3.6291 516.109 6.37306 509.918C9.11701 503.816 12.5691 498.333 16.9948 493.469C18.9421 491.258 21.155 489.224 23.5449 487.367C31.1572 481.354 39.6546 482.415 46.7357 488.782C54.525 495.857 61.0751 510.184 64.0846 527.871" stroke="#ADCB53" stroke-width="1.608" stroke-miterlimit="10" stroke-linecap="round" stroke-linejoin="round"/>
<path d="M5.13379 512.837C6.19597 510.803 8.14329 508.857 10.5332 509.83C12.8346 510.803 13.9853 513.633 14.5163 515.932C15.5785 520.442 16.0211 525.129 15.7555 529.816" stroke="#ADCB53" stroke-width="1.608" stroke-miterlimit="10" stroke-linecap="round" stroke-linejoin="round"/>
<path d="M9.29395 504.524C10.7102 502.313 14.6933 501.075 17.1718 501.782C19.2961 502.49 20.8894 504.17 21.9515 506.116C23.0137 508.061 23.4563 510.272 23.8104 512.395C24.6955 517.878 25.1381 524.952 24.784 530.524" stroke="#ADCB53" stroke-width="1.608" stroke-miterlimit="10" stroke-linecap="round" stroke-linejoin="round"/>
<path d="M15.4014 495.68C17.7913 493.293 20.7122 490.728 24.2528 492.674C29.3867 495.503 31.7766 504.082 33.3698 509.299C35.4057 516.02 36.3793 523.626 36.2023 530.612" stroke="#ADCB53" stroke-width="1.608" stroke-miterlimit="10" stroke-linecap="round" stroke-linejoin="round"/>
</g>
<defs>
<clipPath id="clip0_725_5790">
<rect width="410" height="533" fill="white"/>
</clipPath>
</defs>
</svg>
