<svg width="35" height="31" viewBox="0 0 35 31" fill="none" xmlns="http://www.w3.org/2000/svg">
<path d="M28.6724 11.1909C28.8922 11.026 29.0571 10.8061 29.2221 10.5863C30.0466 9.54185 29.9916 8.05768 29.0571 7.06824L27.1332 5.14432C21.5813 -0.407563 12.5664 -0.407563 7.01453 5.14432L5.09061 7.06824C4.15613 8.00271 4.10116 9.54185 4.9257 10.5863C5.09061 10.8061 5.25551 11.026 5.42042 11.2459C6.73968 13.1148 8.88347 13.9394 10.5325 15.5335C12.7313 17.6223 13.7208 20.9754 16.4692 22.5146C19.8773 24.3835 21.8562 21.8 23.3953 18.8866C24.4397 17.0177 25.2093 14.9838 26.4186 13.2248C27.0783 12.4003 27.9578 11.8506 28.6724 11.1909Z" fill="white"/>
<path d="M17.6235 26.4174C15.2598 25.7578 12.7312 25.428 10.2576 25.4829C7.94891 25.5379 5.69517 26.1975 3.38647 26.1426C3.16659 26.1426 2.94672 26.1426 2.72684 26.1426C1.68243 26.1975 0.747952 25.4829 0.583045 24.4385L0.253231 22.2947C-0.681244 16.3031 3.44144 10.5863 9.43307 9.65183L11.5769 9.32201C12.6213 9.1571 13.6107 9.81674 13.8306 10.8062C13.8856 11.0261 13.9405 11.2459 13.9955 11.4108C14.8201 13.7745 15.7545 16.1382 16.4142 18.5568C17.1288 21.0304 17.3486 23.504 17.5685 26.0326" fill="#C8D3DD"/>
<path d="M17.5136 26.4174C18.4481 26.4724 19.5475 25.7578 20.427 25.5379C21.5813 25.2631 22.7357 25.0982 23.945 25.0432C25.9239 24.9882 27.9028 25.2631 29.7717 25.8677C31.2009 26.3075 33.2897 26.4174 33.5646 24.4385L33.8944 22.2947C34.8289 16.3031 30.7062 10.5863 24.7146 9.65183L22.5708 9.32201C21.5263 9.1571 20.5369 9.81674 20.317 10.8062C20.2621 11.0261 20.2071 11.2459 20.1521 11.4108L17.1288 20.2609C16.799 21.1953 16.5242 22.0748 16.4142 23.0643C16.3043 24.0537 16.3592 25.0432 16.799 25.9227C16.9089 26.0876 16.9639 26.2525 17.1288 26.3624C17.2387 26.5823 17.3487 26.5273 17.5136 26.4174Z" fill="#C8D3DD"/>
<path d="M20.2069 26.1425C20.2069 24.4935 18.8877 24.6584 17.2386 24.6584C15.5895 24.6584 14.2703 24.4935 14.2703 26.1425C14.2703 27.7916 15.5895 30.595 17.2386 30.595C18.8877 30.595 20.2069 27.7916 20.2069 26.1425Z" fill="#ADCB53"/>
</svg>
