<svg width="70" height="72" viewBox="0 0 70 72" fill="none" xmlns="http://www.w3.org/2000/svg">
<g clip-path="url(#clip0_725_4646)">
<path d="M51.569 66.6487C54.5873 65.3 57.5415 63.6945 59.8534 61.3184C63.0002 58.1716 64.7341 53.9331 66.2754 49.7588C69.1653 42.1166 69.5506 34.1533 70.0002 25.9973C70.3855 19.3826 64.5415 12.3826 60.1103 8.14408C59.5965 7.63031 59.0185 7.11655 58.5048 6.60279C56.835 5.06151 55.0369 3.58444 52.9176 2.68536C49.5139 1.14408 45.3396 1.2083 41.7433 0.822975C37.8259 0.373434 34.358 0.309214 30.4405 1.07986C26.0736 1.97894 19.2662 2.74958 15.7341 5.70371C11.3029 9.4927 8.02771 12.4468 5.26624 17.6487C2.37633 23.1716 -0.320918 29.6578 0.000182824 36.0156C0.192843 39.3551 1.66991 42.8872 2.50477 46.0982C4.17449 52.3918 7.51394 57.6578 12.7158 61.6395C18.1103 65.8138 23.6974 67.612 29.9268 69.9239C38.0185 72.878 44.1194 69.9881 51.569 66.6487Z" fill="white"/>
<path d="M40.7252 52.9999H14.7432V45.1282C14.7432 41.1098 16.5597 37.5318 19.3671 35.1648C21.624 33.2932 24.5415 32.1372 27.7342 32.1372C34.8903 32.1372 40.7252 37.9722 40.7252 45.1282V52.9999V52.9999Z" fill="#ACCA52"/>
<path d="M34.8899 25.6418C36.3761 24.651 37.6972 23.3849 38.4129 21.7886C39.3486 19.7518 39.1835 16.9444 37.422 15.3481C37.0367 15.0178 36.5413 14.7426 36.1009 14.5774C35.6605 14.4123 35.1651 14.3022 34.7247 14.3572C34.0642 14.4123 32.688 15.0729 32.5779 15.8435C32.4678 16.449 33.0183 17.3298 33.6788 16.7793C34.6697 15.8986 34.3944 14.2472 33.6788 13.2563C32.9632 12.2104 31.7522 11.4948 30.5412 11.1645C28.6696 10.6691 26.1374 11.1095 24.9814 12.7609C24.3209 13.6967 23.9356 14.6875 23.9906 15.8435C24.0457 16.7793 25.1466 17.3298 25.642 16.2839C26.1374 15.293 24.5411 14.6875 23.8805 14.5774C20.6328 14.1371 18.7612 17.9903 18.9814 20.6876C19.1465 22.7244 20.4676 24.5959 22.0089 25.862" stroke="#3C3C3B" stroke-width="0.949" stroke-miterlimit="10" stroke-linecap="round"/>
<path d="M28.4497 30.6511C32.2499 30.6511 35.3305 27.5704 35.3305 23.7702C35.3305 19.9701 32.2499 16.8894 28.4497 16.8894C24.6495 16.8894 21.5688 19.9701 21.5688 23.7702C21.5688 27.5704 24.6495 30.6511 28.4497 30.6511Z" fill="#3C3C3B"/>
<path d="M38.0278 22.394H59.8814V47.9357H40.7251" stroke="#3C3C3B" stroke-width="0.949" stroke-miterlimit="10" stroke-linecap="round"/>
<path d="M32.0278 41.3304L37.9729 33.6789L46.0647 42.1561L52.5052 32.0825" stroke="#3C3C3B" stroke-width="0.949" stroke-miterlimit="10" stroke-linecap="round"/>
<path d="M53.2206 33.7338L54.9821 28.1741L50.6885 32.1374L53.2206 33.7338Z" fill="#3C3C3B"/>
</g>
<defs>
<clipPath id="clip0_725_4646">
<rect width="70" height="70.6422" fill="white" transform="translate(0 0.501953)"/>
</clipPath>
</defs>
</svg>
