<svg width="70" height="72" viewBox="0 0 70 72" fill="none" xmlns="http://www.w3.org/2000/svg">
<g clip-path="url(#clip0_725_4624)">
<path d="M51.569 67.0066C54.5873 65.6579 57.5415 64.0524 59.8534 61.6763C63.0002 58.5295 64.7341 54.291 66.2754 50.1167C69.1653 42.4745 69.5506 34.5112 70.0002 26.3552C70.3855 19.7405 64.5415 12.7405 60.1103 8.50199C59.5965 7.98822 59.0185 7.47446 58.5048 6.9607C56.835 5.41942 55.0369 3.94235 52.9176 3.04327C49.5139 1.50199 45.3396 1.56621 41.7433 1.18089C37.8259 0.731344 34.358 0.667124 30.4405 1.43777C26.0736 2.33685 19.2662 3.10749 15.7341 6.06162C11.3029 9.85061 8.02771 12.8047 5.26624 18.0066C2.37633 23.5295 -0.320918 30.0157 0.000182824 36.3735C0.192843 39.713 1.66991 43.2451 2.50477 46.4561C4.17449 52.7497 7.51394 58.0157 12.7158 61.9974C18.1103 66.1717 23.6974 67.9699 29.9268 70.2818C38.0185 73.2359 44.1194 70.346 51.569 67.0066Z" fill="white"/>
<path d="M37.9543 21.0249H14.4497V55.5111H37.9543V21.0249Z" stroke="#ABCA52" stroke-width="1.0296" stroke-miterlimit="10"/>
<path d="M32.7525 16.5295H19.5874V21.0892H32.7525V16.5295Z" stroke="#ABCA52" stroke-width="1.0296" stroke-miterlimit="10"/>
<path d="M33.3306 42.4102C33.3306 46.3919 30.1196 49.6029 26.138 49.6029C22.1563 49.6029 18.9453 46.3919 18.9453 42.4102C18.9453 39.3276 23.3123 32.2634 25.2389 29.2451C25.6884 28.6029 26.5875 28.6029 27.0371 29.2451C29.0279 32.1992 33.3306 39.3276 33.3306 42.4102Z" fill="#ACCA52"/>
<path d="M26.2021 51.9148V37.658" stroke="#3C3C3B" stroke-width="0.949" stroke-miterlimit="10" stroke-linecap="round"/>
<path d="M55.6149 20.8965H32.1104V56.0249H55.6149V20.8965Z" fill="#3C3C3B"/>
<path d="M50.4771 16.3369H37.312V20.8965H50.4771V16.3369Z" fill="#3C3C3B"/>
<path d="M52.8535 44.5938H34.936V51.7222H52.8535V44.5938Z" fill="#ABCA52"/>
<path d="M52.8535 34.8965H34.936V42.0249H52.8535V34.8965Z" fill="#ABCA52"/>
<path d="M52.8535 25.1992H34.936V32.3277H52.8535V25.1992Z" fill="#ABCA52"/>
</g>
<defs>
<clipPath id="clip0_725_4624">
<rect width="70" height="70.6422" fill="white" transform="translate(0 0.859863)"/>
</clipPath>
</defs>
</svg>
