<svg width="277" height="280" viewBox="0 0 277 280" fill="none" xmlns="http://www.w3.org/2000/svg">
<path d="M229.098 140.973H215.073C209.968 140.973 205.088 140.02 200.488 138.112L201.217 136.373C205.593 138.168 210.305 139.066 215.129 139.066H229.154C242.954 139.066 255.632 131.268 260.568 119.712C262.644 114.888 262.868 109.39 261.241 104.173L239.251 33.2658C237.063 26.1976 230.332 21.6537 222.141 21.6537C213.951 21.6537 207.22 26.1976 205.032 33.2658C196.168 61.7634 186.688 92.3366 182.985 104.229C181.807 108.044 181.583 112.083 182.424 115.841L180.573 116.234C179.676 112.139 179.9 107.82 181.19 103.668C184.893 91.8317 194.429 61.2024 203.237 32.7049C205.705 24.8512 213.11 19.7463 222.141 19.7463C231.229 19.7463 238.634 24.8512 241.046 32.7049L263.037 103.668C264.776 109.334 264.495 115.28 262.251 120.498C256.978 132.727 243.627 140.973 229.098 140.973Z" fill="#ADCB53"/>
<path d="M222.086 81.1732C214.064 81.1732 207.051 75.4512 205.369 67.5975C205.256 67.0927 205.593 66.5878 206.098 66.4756C206.603 66.3634 207.108 66.7 207.22 67.2049C208.678 74.2171 214.961 79.2658 222.086 79.2658C229.21 79.2658 235.493 74.2171 236.951 67.2049C237.064 66.7 237.569 66.3634 238.073 66.4756C238.578 66.5878 238.915 67.0927 238.803 67.5975C237.12 75.5073 230.108 81.1732 222.086 81.1732Z" fill="#C8D3DD"/>
<path d="M202.788 67.9902C202.564 66.0268 203.966 64.2878 205.873 64.0634C207.837 63.839 209.576 65.2414 209.8 67.1488C210.025 69.1122 208.622 70.8512 206.715 71.0756C204.751 71.3561 203.012 69.9536 202.788 67.9902Z" fill="#C8D3DD"/>
<path d="M241.327 67.9902C241.551 66.0268 240.149 64.2878 238.242 64.0634C236.278 63.839 234.539 65.2414 234.315 67.1488C234.09 69.1122 235.493 70.8512 237.4 71.0756C239.364 71.3561 241.103 69.9536 241.327 67.9902Z" fill="#C8D3DD"/>
<path d="M222.086 111.073C209.744 111.073 199.086 101.817 197.403 89.5878C197.346 89.0829 197.683 88.578 198.188 88.5219C198.693 88.4658 199.198 88.8024 199.254 89.3073C200.825 100.639 210.698 109.166 222.086 109.166C233.529 109.166 243.346 100.639 244.917 89.3073C244.973 88.8024 245.478 88.4097 245.983 88.5219C246.488 88.578 246.881 89.0829 246.768 89.5878C245.029 101.873 234.427 111.073 222.086 111.073Z" fill="#C8D3DD"/>
<path d="M194.822 89.9805C194.654 88.017 196.112 86.3341 198.076 86.1658C200.039 85.9975 201.722 87.4561 201.89 89.4195C202.059 91.3829 200.6 93.0658 198.637 93.2341C196.673 93.3463 194.99 91.8878 194.822 89.9805Z" fill="#C8D3DD"/>
<path d="M249.293 89.9805C249.461 88.017 248.002 86.3341 246.039 86.1658C244.076 85.9975 242.393 87.4561 242.224 89.4195C242.056 91.3829 243.515 93.0658 245.478 93.2341C247.441 93.3463 249.124 91.8878 249.293 89.9805Z" fill="#C8D3DD"/>
<path d="M222.029 279.871C221.524 279.871 221.076 279.422 221.076 278.917V49.478C221.076 48.9731 221.524 48.5244 222.029 48.5244C222.534 48.5244 222.983 48.9731 222.983 49.478V278.917C222.983 279.478 222.59 279.871 222.029 279.871Z" fill="#C8D3DD"/>
<path d="M218.495 49.7024C218.495 47.739 220.066 46.1683 222.029 46.1683C223.993 46.1683 225.563 47.739 225.563 49.7024C225.563 51.6658 223.993 53.2366 222.029 53.2366C220.122 53.2366 218.495 51.6658 218.495 49.7024Z" fill="#C8D3DD"/>
<path d="M275.546 279.871H200.88C200.376 279.871 199.927 279.422 199.927 278.917C199.927 278.412 200.376 277.963 200.88 277.963H275.546C276.051 277.963 276.5 278.412 276.5 278.917C276.5 279.422 276.051 279.871 275.546 279.871Z" fill="#ADCB53"/>
<path d="M238.241 277.907C237.736 277.907 237.288 277.459 237.288 276.954V244.754C237.288 244.249 237.736 243.8 238.241 243.8C238.746 243.8 239.195 244.249 239.195 244.754V276.954C239.139 277.459 238.746 277.907 238.241 277.907Z" fill="#ADCB53"/>
<path d="M241.719 244.978C241.719 243.015 240.149 241.444 238.185 241.444C236.222 241.444 234.651 243.015 234.651 244.978C234.651 246.941 236.222 248.512 238.185 248.512C240.149 248.512 241.719 246.885 241.719 244.978Z" fill="#ADCB53"/>
<path d="M251.368 277.907C250.864 277.907 250.415 277.459 250.415 276.954V257.824C250.415 257.32 250.864 256.871 251.368 256.871C251.873 256.871 252.322 257.32 252.322 257.824V276.954C252.266 277.459 251.873 277.907 251.368 277.907Z" fill="#ADCB53"/>
<path d="M254.903 258.049C254.903 256.085 253.332 254.515 251.368 254.515C249.405 254.515 247.834 256.085 247.834 258.049C247.834 260.012 249.405 261.583 251.368 261.583C253.276 261.583 254.903 259.956 254.903 258.049Z" fill="#ADCB53"/>
<path d="M14.1878 277.907C13.6829 277.907 13.2341 277.459 13.2341 276.954V257.824C13.2341 257.32 13.6829 256.871 14.1878 256.871C14.6927 256.871 15.1414 257.32 15.1414 257.824V276.954C15.1414 277.459 14.6927 277.907 14.1878 277.907Z" fill="#ADCB53"/>
<path d="M17.7219 258.049C17.7219 256.085 16.1511 254.515 14.1877 254.515C12.2243 254.515 10.6536 256.085 10.6536 258.049C10.6536 260.012 12.2243 261.583 14.1877 261.583C16.1511 261.583 17.7219 259.956 17.7219 258.049Z" fill="#ADCB53"/>
<path d="M56.5416 60.5854H27.3708C20.9196 60.5854 15.5903 65.8586 15.5903 72.3659C15.5903 72.4781 15.5903 72.5903 15.5903 72.7025C15.5903 72.8147 15.5903 72.9269 15.5903 72.983V87.7366C15.5903 90.7659 17.722 93.5147 20.7513 94.0195C24.5659 94.6366 27.8757 91.6634 27.8757 87.961V87.2317C27.8757 85.5488 29.2781 84.1464 30.9611 84.1464C32.644 84.1464 34.0464 85.5488 34.0464 87.2317V97.6098C34.0464 100.976 36.7952 103.781 40.2172 103.781C43.583 103.781 46.3879 101.032 46.3879 97.6098V87.2317C46.3879 85.5488 47.7903 84.1464 49.4733 84.1464H56.5976C63.0489 84.1464 68.3781 78.8732 68.3781 72.3659C68.2659 65.8586 62.9928 60.5854 56.5416 60.5854Z" fill="#353535"/>
<path d="M42.1805 50.1512H13.0097C6.839 50.1512 1.73413 54.9756 1.28535 61.0342C1.28535 61.2586 1.22925 61.4269 1.22925 61.6512V61.9317V81.0049C1.22925 83.3049 2.85608 85.3805 5.15608 85.661C7.90486 86.0537 10.3171 83.8659 10.3171 81.1732V76.2927C10.3171 74.8342 11.4951 73.7122 12.9536 73.7122H42.1244C48.5756 73.7122 53.9049 68.4391 53.9049 61.9317C53.961 55.4244 48.6317 50.1512 42.1805 50.1512Z" fill="#ADCB53"/>
<path d="M76.0072 119.6H70.7901C57.4389 119.6 46.6121 108.717 46.6121 95.4219V85.0439C46.6121 84.4268 47.1169 83.9219 47.734 83.9219C48.3511 83.9219 48.856 84.4268 48.856 85.0439V95.3658C48.856 107.483 58.7291 117.356 70.8462 117.356H76.0633C76.6804 117.356 77.1852 117.861 77.1852 118.478C77.1852 119.095 76.6243 119.6 76.0072 119.6Z" fill="#353535"/>
<path d="M50.8196 111.185H45.6025C37.4684 111.185 23.7806 111.185 21.6489 94.0756C21.5928 93.4585 21.9855 92.8976 22.6025 92.8415C23.2196 92.7854 23.7806 93.1781 23.8367 93.7951C25.5757 107.82 35.1123 108.998 45.6025 108.998H50.8196C51.4367 108.998 51.9416 109.502 51.9416 110.12C51.9416 110.737 51.4367 111.185 50.8196 111.185Z" fill="#353535"/>
<path d="M104.785 87.2317H99.5682C98.9512 87.2317 98.4463 86.7268 98.4463 86.1098C98.4463 85.4927 98.9512 84.9878 99.5682 84.9878H104.785C115.276 84.9878 124.812 83.8098 126.551 69.7854C126.607 69.1683 127.168 68.7756 127.785 68.8317C128.402 68.8878 128.795 69.4488 128.739 70.0658C126.607 87.2317 112.919 87.2317 104.785 87.2317Z" fill="#353535"/>
<path d="M76.0635 72.4781C75.6147 72.4781 75.2221 72.2537 75.0538 71.8049C74.8294 71.2439 75.0538 70.5708 75.6147 70.3464C83.805 66.8683 89.0782 58.9025 89.0782 50.0951V39.7732C89.0782 39.1561 89.583 38.6512 90.2001 38.6512C90.8172 38.6512 91.3221 39.1561 91.3221 39.7732V50.1512C91.3221 59.8561 85.4879 68.6073 76.5123 72.422C76.344 72.4781 76.1757 72.4781 76.0635 72.4781Z" fill="#353535"/>
<path d="M81.2243 95.8707H76.0072C75.3901 95.8707 74.8853 95.3659 74.8853 94.7488C74.8853 94.1317 75.3901 93.6268 76.0072 93.6268H81.2243C93.3413 93.6268 103.215 83.7537 103.215 71.6366V61.2585C103.215 60.6415 103.719 60.1366 104.336 60.1366C104.954 60.1366 105.458 60.6415 105.458 61.2585V71.6366C105.402 85.0439 94.5755 95.8707 81.2243 95.8707Z" fill="#353535"/>
<path d="M120.436 47.6829H135.022C141.473 47.6829 146.802 52.9561 146.802 59.4634C146.802 59.5756 146.802 59.6878 146.802 59.8C146.802 59.9122 146.802 60.0244 146.802 60.0805V74.8341C146.802 77.8634 144.671 80.6122 141.641 81.1171C137.827 81.7341 134.517 78.761 134.517 75.0585V74.3293C134.517 72.6463 133.115 71.2439 131.432 71.2439C129.749 71.2439 120.436 71.2439 120.436 71.2439C113.985 71.2439 108.656 65.9707 108.656 59.4634C108.656 52.9561 113.929 47.6829 120.436 47.6829Z" fill="#353535"/>
<path d="M46.3317 53.9659H29.3342C26.8659 53.9659 24.7903 51.9464 24.7903 49.422V46C24.7903 43.5317 26.8098 41.4561 29.3342 41.4561H46.3317C48.8 41.4561 50.8757 43.4756 50.8757 46V49.422C50.8196 51.9464 48.8 53.9659 46.3317 53.9659Z" fill="#ADCB53"/>
<path d="M76.0072 246.998C75.3901 246.998 74.8853 246.493 74.8853 245.876V39.7732C74.8853 39.1561 75.3901 38.6512 76.0072 38.6512C76.6243 38.6512 77.1292 39.1561 77.1292 39.7732V245.932C77.1292 246.493 76.6243 246.998 76.0072 246.998Z" fill="#353535"/>
<path d="M110.115 39.7732H73.5391C70.1171 39.7732 67.3123 36.9683 67.3123 33.5463V28.8341C67.3123 25.4122 70.1171 22.6073 73.5391 22.6073H110.115C113.537 22.6073 116.342 25.4122 116.342 28.8341V33.5463C116.342 36.9683 113.537 39.7732 110.115 39.7732Z" fill="#353535"/>
<path d="M105.571 6.45122H100.017V5.21707C100.017 2.3561 97.661 0 94.8 0H67.0317C64.1707 0 61.8146 2.3561 61.8146 5.21707V6.45122H57.9439C51.661 6.45122 46.5 11.6122 46.5 17.8951V22.1585C46.5 28.4415 51.661 33.6024 57.9439 33.6024H105.515C111.798 33.6024 116.959 28.4415 116.959 22.1585V17.8951C117.071 11.5561 111.91 6.45122 105.571 6.45122Z" fill="#ADCB53"/>
<path d="M137.378 65.5219C137.378 59.6317 132.554 54.8073 126.663 54.8073H106.244C100.354 54.8073 95.5293 59.6317 95.5293 65.5219C95.5293 71.4122 100.354 76.2366 106.244 76.2366H126.663C126.72 76.2366 126.72 76.2366 126.776 76.2366C127.841 76.2366 128.851 76.8537 129.356 77.8073C130.198 79.3219 131.881 80.2756 133.788 79.9951C135.92 79.6585 137.378 77.7512 137.378 75.6195V67.6537C137.378 67.3732 137.322 67.0927 137.322 66.8122C137.322 66.3634 137.378 65.9707 137.378 65.5219Z" fill="#ADCB53"/>
<path d="M22.8268 17.7829C20.6951 17.7829 18.9561 16.0439 18.9561 13.9122C18.9561 11.7805 20.6951 10.0414 22.8268 10.0414C24.9585 10.0414 26.6975 11.7805 26.6975 13.9122C26.7536 16.0439 24.9585 17.7829 22.8268 17.7829ZM22.8268 12.2292C21.9292 12.2292 21.2 12.9585 21.2 13.8561C21.2 14.7536 21.9292 15.4829 22.8268 15.4829C23.7243 15.4829 24.4536 14.7536 24.4536 13.8561C24.4536 12.9585 23.7243 12.2292 22.8268 12.2292Z" fill="#ADCB53"/>
<path d="M136.537 27.6561C132.273 27.6561 128.739 24.178 128.739 19.8585C128.739 15.5951 132.217 12.061 136.537 12.061C140.856 12.061 144.334 15.539 144.334 19.8585C144.278 24.178 140.8 27.6561 136.537 27.6561ZM136.537 16.661C134.741 16.661 133.283 18.1195 133.283 19.9146C133.283 21.7098 134.741 23.1683 136.537 23.1683C138.332 23.1683 139.79 21.7098 139.79 19.9146C139.79 18.1195 138.332 16.661 136.537 16.661Z" fill="#ADCB53"/>
<path d="M64.7317 277.795C64.6756 277.795 64.6195 277.795 64.5634 277.795C64.0586 277.683 63.722 277.234 63.7781 276.729C64.8439 270.222 66.9756 263.49 69.9488 257.263C70.2854 256.59 70.5659 255.973 70.9025 255.3C74.2122 248.232 77.6903 240.883 83.1878 235.217C84.9829 233.366 87.0025 231.29 89.5268 230C93.7342 227.868 98.7268 228.654 102.541 232.076C102.934 232.468 103.327 232.805 103.776 233.254C106.973 236.451 109.722 240.49 112.19 245.651C112.415 246.1 112.19 246.661 111.741 246.885C111.293 247.11 110.732 246.885 110.507 246.437C108.151 241.5 105.515 237.629 102.485 234.544C102.093 234.151 101.756 233.815 101.363 233.478C98.1659 230.561 94.0146 229.888 90.4805 231.683C88.2366 232.805 86.3854 234.712 84.6464 236.507C79.3732 241.949 76.0073 249.129 72.6976 256.085C72.361 256.759 72.0805 257.432 71.7439 258.049C68.8829 264.107 66.8073 270.671 65.7415 277.01C65.5732 277.459 65.1805 277.795 64.7317 277.795Z" fill="#ADCB53"/>
<path d="M80.3269 278.076C79.8782 278.076 79.4855 277.739 79.4294 277.29C78.5318 272.129 77.0172 267.641 75.166 264.612C74.3245 263.266 72.6977 261.863 70.7342 262.2C70.4538 262.256 70.1733 262.312 69.9489 262.424C69.5001 262.649 68.9391 262.424 68.7147 261.976C68.4903 261.527 68.7147 260.966 69.1635 260.741C69.5562 260.573 69.9489 260.461 70.3977 260.349C72.7538 259.956 75.2221 261.246 76.7367 263.659C78.7001 266.912 80.3269 271.624 81.2806 277.01C81.3928 277.515 81.0562 278.02 80.4952 278.076C80.4391 278.076 80.383 278.076 80.3269 278.076Z" fill="#ADCB53"/>
<path d="M89.5269 277.851C89.0781 277.851 88.6855 277.571 88.6294 277.122C87.0025 269.38 83.7489 262.256 78.9245 255.861C78.1391 254.795 77.4099 254.066 76.5684 253.729C75.783 253.449 74.8855 253.449 73.8757 253.898C73.3708 254.066 72.866 253.841 72.6416 253.393C72.4733 252.888 72.6977 252.383 73.1464 252.159C74.605 251.598 75.9513 251.541 77.1855 251.99C78.5318 252.495 79.5416 253.617 80.383 254.795C85.3196 261.415 88.7416 268.82 90.4245 276.785C90.5367 277.29 90.2001 277.795 89.6952 277.907C89.6952 277.795 89.583 277.851 89.5269 277.851Z" fill="#ADCB53"/>
<path d="M98.5585 277.234C98.1097 277.234 97.717 276.954 97.6609 276.505C95.4731 266.576 91.0975 257.095 84.9828 249.129C83.1877 246.829 80.2706 244.698 77.7463 245.146C77.2414 245.259 76.7365 244.866 76.6804 244.361C76.5682 243.856 76.9609 243.351 77.4658 243.295C80.9999 242.678 84.5341 245.427 86.4975 248.007C92.7804 256.198 97.2682 265.902 99.5121 276.112C99.6243 276.617 99.2877 277.122 98.7828 277.234C98.6707 277.234 98.6146 277.234 98.5585 277.234Z" fill="#ADCB53"/>
<path d="M64.8439 277.851H1.45366C0.948781 277.851 0.5 277.402 0.5 276.898C0.5 276.393 0.948781 275.944 1.45366 275.944H64.8439C65.3488 275.944 65.7976 276.393 65.7976 276.898C65.7976 277.402 65.3488 277.851 64.8439 277.851Z" fill="#ADCB53"/>
<path d="M33.4292 276.841C32.9244 276.841 32.4756 276.393 32.4756 275.888V254.683C32.4756 254.178 32.9244 253.729 33.4292 253.729C33.9341 253.729 34.3829 254.178 34.3829 254.683V275.888C34.3829 276.393 33.9341 276.841 33.4292 276.841Z" fill="#ADCB53"/>
<path d="M41.283 245.483C41.3952 245.371 41.5635 245.202 41.6757 245.09C42.2367 244.417 42.1806 243.351 41.5635 242.734L40.2733 241.444C36.5708 237.741 30.5123 237.741 26.7537 241.444L25.4635 242.734C24.8464 243.351 24.7903 244.417 25.3513 245.09C25.4635 245.259 25.5757 245.371 25.6879 245.539C26.5854 246.829 27.9879 247.334 29.1098 248.4C30.5684 249.802 31.2415 252.046 33.0928 253.112C35.3928 254.346 36.683 252.607 37.7489 250.7C38.422 249.41 38.983 248.063 39.7684 246.885C40.2172 246.268 40.7781 245.932 41.283 245.483Z" fill="white"/>
<path d="M33.8782 255.693C32.2513 255.244 30.6245 255.02 28.9416 255.076C27.3708 255.132 25.8562 255.524 24.3416 255.524C24.1733 255.524 24.0611 255.524 23.8928 255.524C23.2196 255.58 22.6025 255.076 22.4904 254.402L22.266 253C21.6489 248.961 24.3977 245.146 28.4367 244.529L29.8391 244.305C30.5123 244.193 31.1855 244.641 31.3538 245.315C31.4099 245.483 31.4099 245.595 31.466 245.763C32.0269 247.39 32.644 248.961 33.0928 250.588C33.5416 252.271 33.7099 253.898 33.8782 255.58" fill="#C8D3DD"/>
<path d="M33.766 255.693C34.383 255.693 35.1123 255.244 35.7294 255.076C36.5147 254.907 37.3001 254.795 38.0855 254.739C39.4318 254.683 40.7221 254.907 42.0123 255.3C42.966 255.637 44.3684 255.637 44.5928 254.346L44.8172 253C45.4343 248.961 42.6855 245.146 38.6465 244.529L37.244 244.305C36.5708 244.193 35.8977 244.641 35.7294 245.315C35.6733 245.483 35.6733 245.595 35.6172 245.763L33.5977 251.71C33.3733 252.327 33.205 252.944 33.0928 253.561C33.0367 254.234 33.0928 254.907 33.3733 255.468C33.4294 255.58 33.4855 255.693 33.5977 255.749C33.5977 255.805 33.6538 255.749 33.766 255.693Z" fill="#C8D3DD"/>
<path d="M35.6173 255.524C35.6173 254.402 34.7197 254.515 33.6538 254.515C32.5319 254.515 31.6904 254.402 31.6904 255.524C31.6904 256.646 32.588 258.498 33.6538 258.498C34.7197 258.498 35.6173 256.59 35.6173 255.524Z" fill="#ADCB53"/>
<path d="M200.768 113.878H111.461V120.722H200.768V113.878Z" fill="#ADCB53"/>
<path d="M201.049 121.002H111.18V113.598H201.049V121.002ZM111.741 120.441H200.488V114.159H111.741V120.441Z" fill="#ADCB53"/>
<path d="M139.005 178.615C138.781 178.615 138.556 178.446 138.556 178.166V161.056C138.556 157.354 139.454 154.661 141.249 152.922C144.502 149.724 150.393 149.837 157.181 150.005C158.695 150.061 160.21 150.061 161.781 150.061H169.242C170.588 150.061 171.878 150.061 173.224 150.061C176.759 150.061 178.329 149.051 178.498 146.639V135.307C178.498 135.083 178.666 134.859 178.946 134.859C179.227 134.859 179.395 135.027 179.395 135.307V146.695C179.059 150.566 175.749 150.959 173.224 150.959C171.878 150.959 170.588 150.959 169.242 150.959H161.781C160.21 150.959 158.639 150.902 157.181 150.902C150.561 150.79 144.839 150.622 141.866 153.595C140.239 155.222 139.454 157.634 139.454 161.112V178.222C139.398 178.446 139.229 178.615 139.005 178.615Z" fill="#706F6F"/>
<path d="M139.959 178.166C139.959 178.671 139.51 179.12 139.005 179.12C138.5 179.12 138.051 178.671 138.051 178.166C138.051 177.661 138.5 177.212 139.005 177.212C139.51 177.212 139.959 177.661 139.959 178.166Z" fill="#706F6F"/>
<path d="M179.956 135.363C179.956 134.859 179.507 134.41 179.002 134.41C178.498 134.41 178.049 134.859 178.049 135.363C178.049 135.868 178.498 136.317 179.002 136.317C179.507 136.317 179.956 135.868 179.956 135.363Z" fill="#706F6F"/>
<path d="M141.529 178.615C141.305 178.615 141.08 178.446 141.08 178.166V161.056C141.08 157.354 141.978 154.661 143.773 152.922C147.027 149.724 152.917 149.837 159.705 150.005C161.219 150.061 162.734 150.061 164.305 150.061H173.953C174.178 150.061 174.402 150.229 174.402 150.51C174.402 150.79 174.234 150.959 173.953 150.959H164.305C162.734 150.959 161.163 150.902 159.705 150.902C153.085 150.79 147.363 150.622 144.39 153.595C142.763 155.222 141.978 157.634 141.978 161.112V178.222C141.922 178.446 141.753 178.615 141.529 178.615Z" fill="#706F6F"/>
<path d="M142.483 178.166C142.483 178.671 142.034 179.12 141.529 179.12C141.024 179.12 140.575 178.671 140.575 178.166C140.575 177.661 141.024 177.212 141.529 177.212C142.034 177.212 142.483 177.661 142.483 178.166Z" fill="#706F6F"/>
<path d="M173.898 151.463C174.424 151.463 174.851 151.036 174.851 150.51C174.851 149.983 174.424 149.556 173.898 149.556C173.371 149.556 172.944 149.983 172.944 150.51C172.944 151.036 173.371 151.463 173.898 151.463Z" fill="#706F6F"/>
<path d="M136.481 178.615C136.256 178.615 136.032 178.446 136.032 178.166V161.056C136.032 157.354 136.929 154.661 138.724 152.922C141.978 149.724 147.868 149.837 154.656 150.005C156.171 150.061 157.685 150.061 159.256 150.061H173.954C174.178 150.061 174.402 150.229 174.402 150.51C174.402 150.79 174.234 150.959 173.954 150.959H159.256C157.685 150.959 156.115 150.902 154.656 150.902C148.037 150.79 142.315 150.622 139.341 153.595C137.715 155.222 136.929 157.634 136.929 161.112V178.222C136.873 178.446 136.705 178.615 136.481 178.615Z" fill="#706F6F"/>
<path d="M136.481 179.12C137.007 179.12 137.434 178.693 137.434 178.166C137.434 177.639 137.007 177.212 136.481 177.212C135.954 177.212 135.527 177.639 135.527 178.166C135.527 178.693 135.954 179.12 136.481 179.12Z" fill="#706F6F"/>
<path d="M173.898 151.463C174.424 151.463 174.851 151.036 174.851 150.51C174.851 149.983 174.424 149.556 173.898 149.556C173.371 149.556 172.944 149.983 172.944 150.51C172.944 151.036 173.371 151.463 173.898 151.463Z" fill="#706F6F"/>
<path d="M139.005 214.405C138.781 214.405 138.556 214.237 138.556 213.956V196.902C138.556 193.2 139.454 190.507 141.249 188.768C144.502 185.571 150.393 185.683 157.181 185.851C158.695 185.907 160.21 185.907 161.781 185.907H169.242C170.588 185.907 171.878 185.907 173.224 185.907C176.366 185.907 177.881 185.122 178.385 183.271C178.442 183.046 178.666 182.934 178.89 182.99C179.115 183.046 179.227 183.271 179.171 183.495C178.385 186.412 175.356 186.749 173.168 186.749C171.822 186.749 170.532 186.749 169.185 186.749H161.724C160.154 186.749 158.583 186.693 157.124 186.693C150.505 186.581 144.783 186.412 141.81 189.385C140.183 191.012 139.398 193.424 139.398 196.902V214.012C139.398 214.237 139.229 214.405 139.005 214.405Z" fill="#706F6F"/>
<path d="M139.959 213.956C139.959 214.461 139.51 214.91 139.005 214.91C138.5 214.91 138.051 214.461 138.051 213.956C138.051 213.451 138.5 213.002 139.005 213.002C139.51 213.002 139.959 213.395 139.959 213.956Z" fill="#706F6F"/>
<path d="M179.732 183.607C179.844 183.102 179.451 182.598 178.946 182.485C178.442 182.373 177.937 182.766 177.824 183.271C177.712 183.776 178.105 184.281 178.61 184.393C179.171 184.449 179.676 184.112 179.732 183.607Z" fill="#706F6F"/>
<path d="M141.529 214.405C141.305 214.405 141.081 214.237 141.081 213.956V196.902C141.081 193.2 141.978 190.507 143.773 188.768C147.027 185.571 152.917 185.683 159.705 185.851C161.22 185.907 162.734 185.907 164.305 185.907H173.954C174.178 185.907 174.403 186.076 174.403 186.356C174.403 186.637 174.234 186.805 173.954 186.805H164.305C162.734 186.805 161.163 186.749 159.705 186.749C153.085 186.637 147.363 186.468 144.39 189.441C142.763 191.068 141.978 193.48 141.978 196.959V214.068C141.922 214.237 141.754 214.405 141.529 214.405Z" fill="#706F6F"/>
<path d="M142.483 213.956C142.483 214.461 142.034 214.91 141.529 214.91C141.024 214.91 140.576 214.461 140.576 213.956C140.576 213.451 141.024 213.002 141.529 213.002C142.034 213.002 142.483 213.395 142.483 213.956Z" fill="#706F6F"/>
<path d="M173.898 187.254C174.403 187.254 174.851 186.805 174.851 186.3C174.851 185.795 174.403 185.346 173.898 185.346C173.393 185.346 172.944 185.795 172.944 186.3C172.944 186.861 173.393 187.254 173.898 187.254Z" fill="#706F6F"/>
<path d="M136.481 214.405C136.256 214.405 136.032 214.237 136.032 213.956V196.902C136.032 193.2 136.929 190.507 138.724 188.768C141.978 185.571 147.868 185.683 154.656 185.851C156.171 185.907 157.685 185.907 159.256 185.907H173.954C174.178 185.907 174.402 186.076 174.402 186.356C174.402 186.637 174.234 186.805 173.954 186.805H159.256C157.685 186.805 156.115 186.749 154.656 186.749C148.037 186.637 142.315 186.468 139.341 189.441C137.715 191.068 136.929 193.48 136.929 196.959V214.068C136.873 214.237 136.705 214.405 136.481 214.405Z" fill="#706F6F"/>
<path d="M137.434 213.956C137.434 214.461 136.985 214.91 136.481 214.91C135.976 214.91 135.527 214.461 135.527 213.956C135.527 213.451 135.976 213.002 136.481 213.002C136.985 213.002 137.434 213.395 137.434 213.956Z" fill="#706F6F"/>
<path d="M173.898 187.254C174.402 187.254 174.851 186.805 174.851 186.3C174.851 185.795 174.402 185.346 173.898 185.346C173.393 185.346 172.944 185.795 172.944 186.3C172.944 186.861 173.393 187.254 173.898 187.254Z" fill="#706F6F"/>
<path d="M139.005 247.222C138.781 247.222 138.556 247.054 138.556 246.773V229.663C138.556 225.961 139.454 223.268 141.249 221.529C144.502 218.332 150.393 218.5 157.181 218.612C158.695 218.668 160.21 218.668 161.781 218.668H165.427H167.278H169.298C170.644 218.668 171.934 218.668 173.281 218.668C176.422 218.668 177.937 217.883 178.442 216.032C178.498 215.807 178.722 215.695 178.946 215.751C179.171 215.807 179.283 216.032 179.227 216.256C178.442 219.173 175.412 219.51 173.224 219.51C171.878 219.51 170.588 219.51 169.242 219.51H161.781C160.21 219.51 158.639 219.454 157.181 219.454C150.561 219.341 144.839 219.173 141.866 222.146C140.239 223.773 139.454 226.185 139.454 229.663V246.829C139.398 247.054 139.229 247.222 139.005 247.222Z" fill="#706F6F"/>
<path d="M139.959 246.773C139.959 247.278 139.51 247.727 139.005 247.727C138.5 247.727 138.051 247.278 138.051 246.773C138.051 246.268 138.5 245.82 139.005 245.82C139.51 245.82 139.959 246.212 139.959 246.773Z" fill="#706F6F"/>
<path d="M179.732 216.424C179.844 215.92 179.451 215.415 178.946 215.302C178.442 215.19 177.937 215.583 177.824 216.088C177.712 216.593 178.105 217.098 178.61 217.21C179.171 217.266 179.676 216.929 179.732 216.424Z" fill="#706F6F"/>
<path d="M141.529 247.222C141.305 247.222 141.081 247.054 141.081 246.773V229.663C141.081 225.961 141.978 223.268 143.773 221.529C147.027 218.332 152.917 218.444 159.705 218.612C161.22 218.668 162.734 218.668 164.305 218.668H173.954C174.178 218.668 174.403 218.837 174.403 219.117C174.403 219.398 174.234 219.566 173.954 219.566H164.305C162.734 219.566 161.163 219.51 159.705 219.51C153.085 219.398 147.363 219.229 144.39 222.202C142.763 223.829 141.978 226.241 141.978 229.72V246.829C141.922 247.054 141.754 247.222 141.529 247.222Z" fill="#706F6F"/>
<path d="M142.483 246.773C142.483 247.278 142.034 247.727 141.529 247.727C141.024 247.727 140.576 247.278 140.576 246.773C140.576 246.268 141.024 245.82 141.529 245.82C142.034 245.82 142.483 246.212 142.483 246.773Z" fill="#706F6F"/>
<path d="M173.898 220.071C174.403 220.071 174.851 219.622 174.851 219.117C174.851 218.612 174.403 218.163 173.898 218.163C173.393 218.163 172.944 218.612 172.944 219.117C172.944 219.678 173.393 220.071 173.898 220.071Z" fill="#706F6F"/>
<path d="M136.481 247.222C136.256 247.222 136.032 247.054 136.032 246.773V229.663C136.032 225.961 136.929 223.268 138.724 221.529C141.978 218.332 147.868 218.444 154.656 218.612C156.171 218.668 157.685 218.668 159.256 218.668H173.954C174.178 218.668 174.402 218.837 174.402 219.117C174.402 219.398 174.234 219.566 173.954 219.566H159.256C157.685 219.566 156.115 219.51 154.656 219.51C148.037 219.398 142.315 219.229 139.341 222.202C137.715 223.829 136.929 226.241 136.929 229.72V246.829C136.873 247.054 136.705 247.222 136.481 247.222Z" fill="#706F6F"/>
<path d="M137.434 246.773C137.434 247.278 136.985 247.727 136.481 247.727C135.976 247.727 135.527 247.278 135.527 246.773C135.527 246.268 135.976 245.82 136.481 245.82C136.985 245.82 137.434 246.212 137.434 246.773Z" fill="#706F6F"/>
<path d="M173.898 220.071C174.402 220.071 174.851 219.622 174.851 219.117C174.851 218.612 174.402 218.163 173.898 218.163C173.393 218.163 172.944 218.612 172.944 219.117C172.944 219.678 173.393 220.071 173.898 220.071Z" fill="#706F6F"/>
<path d="M201.105 279.59H111.293V120.105H201.105V279.59ZM112.527 278.356H199.815V121.339H112.527V278.356Z" fill="#CCCBCB"/>
<path d="M192.129 154.998H120.324C118.361 154.998 116.79 153.427 116.79 151.463V134.354C116.79 132.39 118.361 130.82 120.324 130.82H192.129C194.093 130.82 195.663 132.39 195.663 134.354V151.463C195.663 153.427 194.037 154.998 192.129 154.998Z" fill="#C8D3DD"/>
<path d="M141.866 145.798H124.42C122.793 145.798 121.502 144.507 121.502 142.88C121.502 141.254 122.793 139.963 124.42 139.963H141.866C143.493 139.963 144.783 141.254 144.783 142.88C144.783 144.507 143.493 145.798 141.866 145.798Z" fill="black"/>
<path d="M156.451 146.134H151.627C149.888 146.134 148.429 144.732 148.429 142.937C148.429 141.198 149.832 139.739 151.627 139.739H156.451C158.19 139.739 159.649 141.141 159.649 142.937C159.593 144.732 158.19 146.134 156.451 146.134ZM151.571 140.3C150.112 140.3 148.934 141.478 148.934 142.937C148.934 144.395 150.112 145.573 151.571 145.573H156.395C157.854 145.573 159.032 144.395 159.032 142.937C159.032 141.478 157.854 140.3 156.395 140.3H151.571V140.3Z" fill="white"/>
<path d="M154.095 143.89C153.871 143.89 153.702 143.722 153.702 143.498V127.566C153.702 124.985 154.376 123.078 155.778 121.676C158.807 118.759 164.529 118.871 171.878 118.983C173.505 119.039 175.188 119.039 176.927 119.039H194.149C194.373 119.039 194.541 119.207 194.541 119.432C194.541 119.656 194.373 119.824 194.149 119.824H176.927C175.188 119.824 173.505 119.768 171.878 119.768C165.034 119.656 159.144 119.488 156.339 122.237C155.105 123.471 154.488 125.21 154.488 127.566V143.498C154.488 143.722 154.319 143.89 154.095 143.89Z" fill="white"/>
<path d="M154.937 143.498C154.937 143.946 154.544 144.339 154.095 144.339C153.646 144.339 153.254 143.946 153.254 143.498C153.254 143.049 153.646 142.656 154.095 142.656C154.544 142.656 154.937 142.993 154.937 143.498Z" fill="white"/>
<path d="M156.619 143.89C156.395 143.89 156.227 143.722 156.227 143.498V127.566C156.227 125.041 156.9 123.134 158.246 121.844C161.107 119.095 166.493 119.263 173.28 119.488C175.244 119.544 177.263 119.6 179.395 119.6H194.037C194.261 119.6 194.429 119.768 194.429 119.993C194.429 120.217 194.261 120.385 194.037 120.385H179.395C177.263 120.385 175.244 120.329 173.28 120.273C166.605 120.049 161.388 119.88 158.751 122.405C157.573 123.583 156.956 125.266 156.956 127.566V143.498C157.012 143.722 156.844 143.89 156.619 143.89Z" fill="white"/>
<path d="M157.461 143.498C157.461 143.946 157.068 144.339 156.62 144.339C156.171 144.339 155.778 143.946 155.778 143.498C155.778 143.049 156.171 142.656 156.62 142.656C157.068 142.656 157.461 142.993 157.461 143.498Z" fill="white"/>
<path d="M151.571 143.89C151.346 143.89 151.178 143.722 151.178 143.498V127.566C151.178 124.985 151.851 123.078 153.254 121.676C156.283 118.759 162.005 118.871 169.354 118.983C170.98 119.039 172.663 119.039 174.402 119.039H194.149C194.373 119.039 194.541 119.207 194.541 119.432C194.541 119.656 194.373 119.824 194.149 119.824H174.402C172.663 119.824 170.98 119.768 169.354 119.768C162.51 119.656 156.619 119.488 153.815 122.237C152.58 123.471 151.963 125.21 151.963 127.566V143.498C151.963 143.722 151.795 143.89 151.571 143.89Z" fill="white"/>
<path d="M152.412 143.498C152.412 143.946 152.019 144.339 151.571 144.339C151.122 144.339 150.729 143.946 150.729 143.498C150.729 143.049 151.122 142.656 151.571 142.656C152.019 142.656 152.412 142.993 152.412 143.498Z" fill="white"/>
<path d="M192.073 138.561H167.839V147.2H192.073V138.561Z" fill="black"/>
<path d="M188.483 143.554H171.429C171.037 143.554 170.756 143.217 170.756 142.881C170.756 142.544 171.093 142.207 171.429 142.207H188.483C188.876 142.207 189.156 142.544 189.156 142.881C189.156 143.217 188.876 143.554 188.483 143.554Z" fill="#ADCB53"/>
<path d="M125.373 143.722C125.149 143.722 124.924 143.61 124.756 143.498C124.7 143.441 124.7 143.441 124.644 143.385C124.588 143.329 124.588 143.273 124.588 143.217C124.588 143.161 124.532 143.105 124.532 143.049C124.532 142.993 124.532 142.937 124.532 142.88C124.532 142.656 124.644 142.432 124.756 142.263C124.812 142.207 124.812 142.207 124.868 142.151C124.924 142.095 124.981 142.095 125.037 142.095C125.093 142.095 125.149 142.039 125.205 142.039C125.317 142.039 125.429 142.039 125.541 142.039C125.598 142.039 125.654 142.039 125.71 142.095C125.766 142.095 125.822 142.151 125.878 142.151C125.934 142.207 125.99 142.207 125.99 142.263C126.159 142.432 126.215 142.656 126.215 142.88C126.215 142.937 126.215 142.993 126.215 143.049C126.215 143.105 126.215 143.161 126.159 143.217C126.159 143.273 126.102 143.329 126.102 143.385C126.046 143.441 126.046 143.498 125.99 143.498C125.934 143.554 125.934 143.554 125.878 143.61C125.822 143.666 125.766 143.666 125.71 143.666C125.654 143.666 125.598 143.722 125.541 143.722C125.485 143.722 125.429 143.722 125.373 143.722Z" fill="#ADCB53"/>
<path d="M135.246 142.88C135.246 142.432 135.639 142.039 136.088 142.039C136.537 142.039 136.929 142.432 136.929 142.88C136.929 143.329 136.537 143.722 136.088 143.722C135.583 143.722 135.246 143.329 135.246 142.88ZM129.861 142.88C129.861 142.432 130.254 142.039 130.703 142.039C131.151 142.039 131.544 142.432 131.544 142.88C131.544 143.329 131.151 143.722 130.703 143.722C130.254 143.722 129.861 143.329 129.861 142.88Z" fill="#ADCB53"/>
<path d="M141.417 143.722C141.193 143.722 140.968 143.61 140.8 143.498C140.744 143.441 140.744 143.441 140.688 143.385C140.632 143.329 140.632 143.273 140.632 143.217C140.632 143.161 140.576 143.105 140.576 143.049C140.576 142.993 140.576 142.937 140.576 142.881C140.576 142.656 140.688 142.432 140.8 142.263C140.968 142.095 141.305 141.983 141.529 142.039C141.585 142.039 141.642 142.039 141.698 142.095C141.754 142.095 141.81 142.151 141.866 142.151C141.922 142.207 141.978 142.207 141.978 142.263C142.146 142.432 142.203 142.656 142.203 142.881C142.203 142.937 142.203 142.993 142.203 143.049C142.203 143.105 142.203 143.161 142.146 143.217C142.146 143.273 142.09 143.329 142.09 143.385C142.034 143.441 142.034 143.498 141.978 143.498C141.922 143.554 141.922 143.554 141.866 143.61C141.81 143.666 141.754 143.666 141.698 143.666C141.642 143.666 141.585 143.722 141.529 143.722C141.529 143.722 141.473 143.722 141.417 143.722Z" fill="#ADCB53"/>
<path d="M192.129 190.788H120.324C118.361 190.788 116.79 189.217 116.79 187.254V170.144C116.79 168.18 118.361 166.61 120.324 166.61H192.129C194.093 166.61 195.663 168.18 195.663 170.144V187.254C195.663 189.161 194.037 190.788 192.129 190.788Z" fill="#C8D3DD"/>
<path d="M192.073 174.351H167.839V182.99H192.073V174.351Z" fill="black"/>
<path d="M188.483 179.344H171.429C171.037 179.344 170.756 179.007 170.756 178.671C170.756 178.334 171.093 177.998 171.429 177.998H188.483C188.876 177.998 189.156 178.334 189.156 178.671C189.156 179.007 188.876 179.344 188.483 179.344Z" fill="#ADCB53"/>
<path d="M141.866 181.588H124.42C122.793 181.588 121.502 180.298 121.502 178.671C121.502 177.044 122.793 175.754 124.42 175.754H141.866C143.493 175.754 144.783 177.044 144.783 178.671C144.783 180.298 143.493 181.588 141.866 181.588Z" fill="black"/>
<path d="M156.451 181.868H151.627C149.888 181.868 148.429 180.466 148.429 178.671C148.429 176.876 149.832 175.473 151.627 175.473H156.451C158.19 175.473 159.649 176.876 159.649 178.671C159.649 180.466 158.19 181.868 156.451 181.868ZM151.571 176.034C150.112 176.034 148.934 177.212 148.934 178.671C148.934 180.129 150.112 181.307 151.571 181.307H156.395C157.854 181.307 159.032 180.129 159.032 178.671C159.032 177.212 157.854 176.034 156.395 176.034H151.571Z" fill="white"/>
<path d="M125.373 179.512C125.149 179.512 124.924 179.4 124.756 179.288C124.588 179.12 124.532 178.895 124.532 178.671C124.532 178.446 124.644 178.222 124.756 178.054C125.093 177.717 125.654 177.717 125.934 178.054C126.102 178.222 126.159 178.446 126.159 178.671C126.159 178.895 126.046 179.12 125.934 179.288C125.822 179.4 125.598 179.512 125.373 179.512Z" fill="#ADCB53"/>
<path d="M135.246 178.671C135.246 178.222 135.639 177.829 136.088 177.829C136.537 177.829 136.929 178.222 136.929 178.671C136.929 179.119 136.537 179.512 136.088 179.512C135.583 179.512 135.246 179.119 135.246 178.671ZM129.861 178.671C129.861 178.222 130.254 177.829 130.703 177.829C131.151 177.829 131.544 178.222 131.544 178.671C131.544 179.119 131.151 179.512 130.703 179.512C130.254 179.512 129.861 179.119 129.861 178.671Z" fill="#ADCB53"/>
<path d="M141.417 179.512C141.193 179.512 140.968 179.4 140.8 179.288C140.632 179.12 140.576 178.895 140.576 178.671C140.576 178.446 140.688 178.222 140.8 178.054C140.968 177.885 141.305 177.773 141.529 177.829C141.585 177.829 141.642 177.829 141.698 177.885C141.754 177.885 141.81 177.941 141.866 177.941C141.922 177.998 141.978 177.998 141.978 178.054C142.146 178.222 142.203 178.446 142.203 178.671C142.203 178.895 142.09 179.12 141.978 179.288C141.922 179.344 141.922 179.344 141.866 179.4C141.81 179.456 141.754 179.456 141.698 179.456C141.642 179.456 141.585 179.512 141.529 179.512C141.529 179.512 141.473 179.512 141.417 179.512Z" fill="#ADCB53"/>
<path d="M154.095 178.615C153.871 178.615 153.646 178.446 153.646 178.166V161.056C153.646 157.354 154.544 154.661 156.339 152.922C159.593 149.724 165.483 149.837 172.271 150.005C173.785 150.061 175.3 150.061 176.871 150.061H184.332C185.678 150.061 186.968 150.061 188.315 150.061C191.849 150.061 193.419 149.051 193.588 146.639V119.824C193.588 119.6 193.756 119.376 194.036 119.376C194.317 119.376 194.485 119.544 194.485 119.824V146.639C194.149 150.51 190.839 150.902 188.315 150.902C186.968 150.902 185.678 150.902 184.332 150.902H176.871C175.3 150.902 173.729 150.846 172.271 150.846C165.651 150.734 159.929 150.566 156.956 153.539C155.329 155.166 154.544 157.578 154.544 161.056V178.166C154.488 178.446 154.319 178.615 154.095 178.615Z" fill="white"/>
<path d="M154.095 179.12C154.622 179.12 155.049 178.693 155.049 178.166C155.049 177.639 154.622 177.212 154.095 177.212C153.568 177.212 153.141 177.639 153.141 178.166C153.141 178.693 153.568 179.12 154.095 179.12Z" fill="white"/>
<path d="M195.046 119.881C195.046 119.376 194.597 118.927 194.093 118.927C193.588 118.927 193.139 119.376 193.139 119.881C193.139 120.385 193.588 120.834 194.093 120.834C194.597 120.89 195.046 120.441 195.046 119.881Z" fill="white"/>
<path d="M156.619 178.615C156.395 178.615 156.171 178.446 156.171 178.166V161.056C156.171 157.354 157.068 154.661 158.863 152.922C162.117 149.724 168.007 149.893 174.795 150.005C176.31 150.061 177.824 150.061 179.395 150.061H189.044C189.268 150.061 189.493 150.229 189.493 150.51C189.493 150.79 189.324 150.959 189.044 150.959H179.395C177.824 150.959 176.254 150.902 174.795 150.902C168.176 150.79 162.454 150.622 159.48 153.595C157.854 155.222 157.068 157.634 157.068 161.112V178.222C157.012 178.446 156.844 178.615 156.619 178.615Z" fill="white"/>
<path d="M157.573 178.166C157.573 178.671 157.124 179.12 156.619 179.12C156.115 179.12 155.666 178.671 155.666 178.166C155.666 177.661 156.115 177.212 156.619 177.212C157.124 177.212 157.573 177.661 157.573 178.166Z" fill="white"/>
<path d="M188.988 151.463C189.492 151.463 189.941 151.015 189.941 150.51C189.941 150.005 189.492 149.556 188.988 149.556C188.483 149.556 188.034 150.005 188.034 150.51C188.034 151.015 188.483 151.463 188.988 151.463Z" fill="white"/>
<path d="M151.571 178.615C151.346 178.615 151.122 178.446 151.122 178.166V161.056C151.122 157.354 152.019 154.661 153.815 152.922C157.068 149.724 162.958 149.837 169.746 150.005C171.261 150.061 172.775 150.061 174.346 150.061H189.044C189.268 150.061 189.493 150.229 189.493 150.51C189.493 150.79 189.324 150.959 189.044 150.959H174.346C172.775 150.959 171.205 150.902 169.746 150.902C163.127 150.79 157.405 150.622 154.432 153.595C152.805 155.222 152.019 157.634 152.019 161.112V178.222C151.963 178.446 151.795 178.615 151.571 178.615Z" fill="white"/>
<path d="M152.524 178.166C152.524 178.671 152.075 179.12 151.571 179.12C151.066 179.12 150.617 178.671 150.617 178.166C150.617 177.661 151.066 177.212 151.571 177.212C152.075 177.212 152.524 177.661 152.524 178.166Z" fill="white"/>
<path d="M188.988 151.463C189.492 151.463 189.941 151.015 189.941 150.51C189.941 150.005 189.492 149.556 188.988 149.556C188.483 149.556 188.034 150.005 188.034 150.51C188.034 151.015 188.483 151.463 188.988 151.463Z" fill="white"/>
<path d="M192.129 226.578H120.324C118.361 226.578 116.79 225.007 116.79 223.044V205.878C116.79 203.915 118.361 202.344 120.324 202.344H192.129C194.093 202.344 195.663 203.915 195.663 205.878V222.988C195.663 224.951 194.037 226.578 192.129 226.578Z" fill="#C8D3DD"/>
<path d="M192.073 210.141H167.839V218.781H192.073V210.141Z" fill="black"/>
<path d="M188.483 215.134H171.429C171.037 215.134 170.756 214.798 170.756 214.461C170.756 214.124 171.093 213.788 171.429 213.788H188.483C188.876 213.788 189.156 214.124 189.156 214.461C189.156 214.798 188.876 215.134 188.483 215.134Z" fill="#ADCB53"/>
<path d="M141.866 217.378H124.42C122.793 217.378 121.502 216.088 121.502 214.461C121.502 212.834 122.793 211.544 124.42 211.544H141.866C143.493 211.544 144.783 212.834 144.783 214.461C144.783 216.088 143.493 217.378 141.866 217.378Z" fill="black"/>
<path d="M125.373 215.302C125.317 215.302 125.261 215.302 125.205 215.302C125.149 215.302 125.093 215.302 125.037 215.246C124.981 215.246 124.924 215.19 124.868 215.19C124.812 215.134 124.756 215.134 124.756 215.078C124.588 214.91 124.532 214.685 124.532 214.461C124.532 214.237 124.644 214.012 124.756 213.844C124.812 213.788 124.812 213.788 124.868 213.732C124.924 213.676 124.981 213.676 125.037 213.676C125.093 213.676 125.149 213.62 125.205 213.62C125.317 213.62 125.429 213.62 125.541 213.62C125.598 213.62 125.654 213.62 125.71 213.676C125.766 213.676 125.822 213.732 125.878 213.732C125.934 213.788 125.99 213.788 125.99 213.844C126.159 214.012 126.215 214.237 126.215 214.461C126.215 214.685 126.102 214.91 125.99 215.078C125.934 215.134 125.934 215.134 125.878 215.19C125.822 215.246 125.766 215.246 125.71 215.246C125.654 215.246 125.598 215.302 125.541 215.302C125.485 215.302 125.429 215.302 125.373 215.302Z" fill="#ADCB53"/>
<path d="M135.246 214.461C135.246 214.012 135.639 213.62 136.088 213.62C136.537 213.62 136.929 214.012 136.929 214.461C136.929 214.91 136.537 215.302 136.088 215.302C135.583 215.302 135.246 214.91 135.246 214.461ZM129.861 214.461C129.861 214.012 130.254 213.62 130.703 213.62C131.151 213.62 131.544 214.012 131.544 214.461C131.544 214.91 131.151 215.302 130.703 215.302C130.254 215.302 129.861 214.91 129.861 214.461Z" fill="#ADCB53"/>
<path d="M141.417 215.302C141.193 215.302 140.968 215.19 140.8 215.078C140.632 214.91 140.576 214.685 140.576 214.461C140.576 214.405 140.576 214.349 140.576 214.293C140.576 214.237 140.576 214.181 140.632 214.124C140.632 214.068 140.688 214.012 140.688 213.956C140.744 213.9 140.744 213.844 140.8 213.844C141.137 213.507 141.698 213.507 141.978 213.844C142.146 214.012 142.203 214.237 142.203 214.461C142.203 214.685 142.09 214.91 141.978 215.078C141.866 215.19 141.642 215.302 141.417 215.302Z" fill="#ADCB53"/>
<path d="M156.451 217.659H151.627C149.888 217.659 148.429 216.256 148.429 214.461C148.429 212.666 149.832 211.263 151.627 211.263H156.451C158.19 211.263 159.649 212.666 159.649 214.461C159.649 216.256 158.19 217.659 156.451 217.659ZM151.571 211.824C150.112 211.824 148.934 213.002 148.934 214.461C148.934 215.92 150.112 217.098 151.571 217.098H156.395C157.854 217.098 159.032 215.92 159.032 214.461C159.032 213.002 157.854 211.824 156.395 211.824H151.571Z" fill="white"/>
<path d="M154.095 214.405C153.871 214.405 153.646 214.237 153.646 213.956V196.902C153.646 193.2 154.544 190.507 156.339 188.768C159.593 185.571 165.483 185.683 172.271 185.851C173.785 185.907 175.3 185.907 176.871 185.907H184.332C185.678 185.907 186.968 185.907 188.315 185.907C191.849 185.963 193.419 184.898 193.588 182.485V157.634C193.588 157.41 193.756 157.185 194.036 157.185C194.317 157.185 194.485 157.354 194.485 157.634V182.541C194.149 186.412 190.839 186.805 188.315 186.805C186.968 186.805 185.678 186.805 184.332 186.805H176.871C175.3 186.805 173.729 186.749 172.271 186.749C165.651 186.637 159.929 186.468 156.956 189.441C155.329 191.068 154.544 193.48 154.544 196.959V214.068C154.488 214.237 154.319 214.405 154.095 214.405Z" fill="white"/>
<path d="M155.049 213.956C155.049 214.461 154.6 214.91 154.095 214.91C153.59 214.91 153.141 214.461 153.141 213.956C153.141 213.451 153.59 213.002 154.095 213.002C154.6 213.002 155.049 213.395 155.049 213.956Z" fill="white"/>
<path d="M195.046 157.634C195.046 157.129 194.597 156.68 194.093 156.68C193.588 156.68 193.139 157.129 193.139 157.634C193.139 158.139 193.588 158.588 194.093 158.588C194.597 158.588 195.046 158.139 195.046 157.634Z" fill="white"/>
<path d="M156.619 214.405C156.395 214.405 156.171 214.237 156.171 213.956V196.902C156.171 193.2 157.068 190.507 158.863 188.768C162.117 185.571 168.007 185.683 174.795 185.851C176.31 185.907 177.824 185.907 179.395 185.907H189.044C189.268 185.907 189.493 186.076 189.493 186.356C189.493 186.637 189.324 186.805 189.044 186.805H179.395C177.824 186.805 176.254 186.749 174.795 186.749C168.176 186.637 162.454 186.468 159.48 189.441C157.854 191.068 157.068 193.48 157.068 196.959V214.068C157.012 214.237 156.844 214.405 156.619 214.405Z" fill="white"/>
<path d="M157.573 213.956C157.573 214.461 157.124 214.91 156.619 214.91C156.115 214.91 155.666 214.461 155.666 213.956C155.666 213.451 156.115 213.002 156.619 213.002C157.124 213.002 157.573 213.395 157.573 213.956Z" fill="white"/>
<path d="M188.988 187.254C189.492 187.254 189.941 186.805 189.941 186.3C189.941 185.795 189.492 185.346 188.988 185.346C188.483 185.346 188.034 185.795 188.034 186.3C188.034 186.861 188.483 187.254 188.988 187.254Z" fill="white"/>
<path d="M151.571 214.405C151.346 214.405 151.122 214.237 151.122 213.956V196.902C151.122 193.2 152.019 190.507 153.815 188.768C157.068 185.571 162.958 185.683 169.746 185.851C171.261 185.907 172.775 185.907 174.346 185.907H189.044C189.268 185.907 189.493 186.076 189.493 186.356C189.493 186.637 189.324 186.805 189.044 186.805H174.346C172.775 186.805 171.205 186.749 169.746 186.749C163.127 186.637 157.405 186.468 154.432 189.441C152.805 191.068 152.019 193.48 152.019 196.959V214.068C151.963 214.237 151.795 214.405 151.571 214.405Z" fill="white"/>
<path d="M152.524 213.956C152.524 214.461 152.075 214.91 151.571 214.91C151.066 214.91 150.617 214.461 150.617 213.956C150.617 213.451 151.066 213.002 151.571 213.002C152.075 213.002 152.524 213.395 152.524 213.956Z" fill="white"/>
<path d="M188.988 187.254C189.492 187.254 189.941 186.805 189.941 186.3C189.941 185.795 189.492 185.346 188.988 185.346C188.483 185.346 188.034 185.795 188.034 186.3C188.034 186.861 188.483 187.254 188.988 187.254Z" fill="white"/>
<path d="M192.129 262.312H120.324C118.361 262.312 116.79 260.741 116.79 258.778V241.668C116.79 239.705 118.361 238.134 120.324 238.134H192.129C194.093 238.134 195.663 239.705 195.663 241.668V258.778C195.663 260.685 194.037 262.312 192.129 262.312Z" fill="#C8D3DD"/>
<path d="M192.073 245.876H167.839V254.515H192.073V245.876Z" fill="black"/>
<path d="M188.483 250.868H171.429C171.037 250.868 170.756 250.532 170.756 250.195C170.756 249.859 171.093 249.522 171.429 249.522H188.483C188.876 249.522 189.156 249.859 189.156 250.195C189.156 250.532 188.876 250.868 188.483 250.868Z" fill="#ADCB53"/>
<path d="M141.866 253.112H124.42C122.793 253.112 121.502 251.822 121.502 250.195C121.502 248.568 122.793 247.278 124.42 247.278H141.866C143.493 247.278 144.783 248.568 144.783 250.195C144.783 251.822 143.493 253.112 141.866 253.112Z" fill="black"/>
<path d="M125.373 251.037C125.317 251.037 125.261 251.037 125.205 251.037C125.149 251.037 125.093 251.037 125.037 250.98C124.981 250.98 124.924 250.924 124.868 250.924C124.812 250.868 124.756 250.868 124.756 250.812C124.588 250.644 124.532 250.419 124.532 250.195C124.532 249.971 124.644 249.746 124.756 249.578C124.812 249.522 124.812 249.522 124.868 249.466C124.924 249.41 124.981 249.41 125.037 249.41C125.093 249.41 125.149 249.354 125.205 249.354C125.317 249.354 125.429 249.354 125.541 249.354C125.598 249.354 125.654 249.354 125.71 249.41C125.766 249.41 125.822 249.466 125.878 249.466C125.934 249.522 125.99 249.522 125.99 249.578C126.159 249.746 126.215 249.971 126.215 250.195C126.215 250.419 126.102 250.644 125.99 250.812C125.934 250.868 125.934 250.868 125.878 250.924C125.822 250.98 125.766 250.98 125.71 250.98C125.654 250.98 125.598 251.037 125.541 251.037C125.485 251.037 125.429 251.037 125.373 251.037Z" fill="#ADCB53"/>
<path d="M135.246 250.195C135.246 249.746 135.639 249.354 136.088 249.354C136.537 249.354 136.929 249.746 136.929 250.195C136.929 250.644 136.537 251.037 136.088 251.037C135.583 251.037 135.246 250.644 135.246 250.195ZM129.861 250.195C129.861 249.746 130.254 249.354 130.703 249.354C131.151 249.354 131.544 249.746 131.544 250.195C131.544 250.644 131.151 251.037 130.703 251.037C130.254 251.037 129.861 250.644 129.861 250.195Z" fill="#ADCB53"/>
<path d="M141.417 251.037C141.193 251.037 140.968 250.924 140.8 250.812C140.632 250.644 140.576 250.419 140.576 250.195C140.576 250.139 140.576 250.083 140.576 250.027C140.576 249.971 140.576 249.915 140.632 249.859C140.632 249.802 140.688 249.746 140.688 249.69C140.744 249.634 140.744 249.578 140.8 249.578C141.137 249.241 141.698 249.241 141.978 249.578C142.146 249.746 142.203 249.971 142.203 250.195C142.203 250.419 142.09 250.644 141.978 250.812C141.866 250.924 141.642 251.037 141.417 251.037Z" fill="#ADCB53"/>
<path d="M156.451 253.393H151.627C149.888 253.393 148.429 251.99 148.429 250.195C148.429 248.4 149.832 246.998 151.627 246.998H156.451C158.19 246.998 159.649 248.4 159.649 250.195C159.649 251.99 158.19 253.393 156.451 253.393ZM151.571 247.559C150.112 247.559 148.934 248.737 148.934 250.195C148.934 251.654 150.112 252.832 151.571 252.832H156.395C157.854 252.832 159.032 251.654 159.032 250.195C159.032 248.737 157.854 247.559 156.395 247.559H151.571Z" fill="#ADCB53"/>
<path d="M154.095 250.532C153.871 250.532 153.646 250.363 153.646 250.083V232.973C153.646 229.271 154.544 226.578 156.339 224.839C159.593 221.641 165.483 221.754 172.271 221.922C173.785 221.978 175.3 221.978 176.871 221.978H184.332C185.678 221.978 186.968 221.978 188.315 221.978C191.849 221.978 193.419 220.968 193.588 218.556V193.705C193.588 193.48 193.756 193.256 194.036 193.256C194.317 193.256 194.485 193.424 194.485 193.705V218.612C194.149 222.483 190.839 222.876 188.315 222.876C186.968 222.876 185.678 222.876 184.332 222.876H176.871C175.3 222.876 173.729 222.82 172.271 222.82C165.651 222.707 159.929 222.539 156.956 225.512C155.329 227.139 154.544 229.551 154.544 233.029V250.139C154.488 250.363 154.319 250.532 154.095 250.532Z" fill="white"/>
<path d="M154.095 251.037C154.622 251.037 155.049 250.61 155.049 250.083C155.049 249.556 154.622 249.129 154.095 249.129C153.568 249.129 153.141 249.556 153.141 250.083C153.141 250.61 153.568 251.037 154.095 251.037Z" fill="white"/>
<path d="M195.046 193.761C195.046 193.256 194.597 192.807 194.093 192.807C193.588 192.807 193.139 193.256 193.139 193.761C193.139 194.266 193.588 194.715 194.093 194.715C194.597 194.715 195.046 194.266 195.046 193.761Z" fill="white"/>
<path d="M156.619 250.532C156.395 250.532 156.171 250.363 156.171 250.083V232.973C156.171 229.271 157.068 226.578 158.863 224.839C162.117 221.641 168.007 221.754 174.795 221.922C176.31 221.978 177.824 221.978 179.395 221.978H189.044C189.268 221.978 189.493 222.146 189.493 222.427C189.493 222.707 189.324 222.876 189.044 222.876H179.395C177.824 222.876 176.254 222.82 174.795 222.82C168.176 222.707 162.454 222.539 159.48 225.512C157.854 227.139 157.068 229.551 157.068 233.029V250.139C157.012 250.363 156.844 250.532 156.619 250.532Z" fill="white"/>
<path d="M157.573 250.083C157.573 250.588 157.124 251.037 156.619 251.037C156.115 251.037 155.666 250.588 155.666 250.083C155.666 249.578 156.115 249.129 156.619 249.129C157.124 249.073 157.573 249.522 157.573 250.083Z" fill="white"/>
<path d="M188.988 223.381C189.492 223.381 189.941 222.932 189.941 222.427C189.941 221.922 189.492 221.473 188.988 221.473C188.483 221.473 188.034 221.922 188.034 222.427C188.034 222.932 188.483 223.381 188.988 223.381Z" fill="white"/>
<path d="M151.571 250.532C151.346 250.532 151.122 250.363 151.122 250.083V232.973C151.122 229.271 152.019 226.578 153.815 224.839C157.068 221.641 162.958 221.754 169.746 221.922C171.261 221.978 172.775 221.978 174.346 221.978H189.044C189.268 221.978 189.493 222.146 189.493 222.427C189.493 222.707 189.324 222.876 189.044 222.876H174.346C172.775 222.876 171.205 222.82 169.746 222.82C163.127 222.707 157.405 222.539 154.432 225.512C152.805 227.139 152.019 229.551 152.019 233.029V250.139C151.963 250.363 151.795 250.532 151.571 250.532Z" fill="white"/>
<path d="M152.524 250.083C152.524 250.588 152.075 251.037 151.571 251.037C151.066 251.037 150.617 250.588 150.617 250.083C150.617 249.578 151.066 249.129 151.571 249.129C152.075 249.073 152.524 249.522 152.524 250.083Z" fill="white"/>
<path d="M188.988 223.381C189.492 223.381 189.941 222.932 189.941 222.427C189.941 221.922 189.492 221.473 188.988 221.473C188.483 221.473 188.034 221.922 188.034 222.427C188.034 222.932 188.483 223.381 188.988 223.381Z" fill="white"/>
</svg>
