<svg width="342" height="390" viewBox="0 0 342 390" fill="none" xmlns="http://www.w3.org/2000/svg">
<g clip-path="url(#clip0_745_6479)">
<path d="M271.885 221.743C274.585 226.677 276.173 232.408 276.173 238.377C276.411 258.037 252.192 280.163 240.917 280.163C225.671 280.163 204.628 258.833 204.628 238.855C204.628 230.657 207.408 223.096 212.013 217.047C214.236 214.182 214.713 210.361 213.363 207.018C211.934 203.516 211.14 199.775 211.14 195.716C211.14 188.951 213.442 182.663 217.333 177.649C219.795 174.545 220.192 170.326 218.366 166.745C216.619 163.402 215.666 159.582 215.666 155.522C215.666 141.833 230.673 114.533 240.44 114.533C249.016 114.533 265.215 141.833 265.215 155.522C265.215 159.582 264.262 163.402 262.515 166.745C260.689 170.247 261.165 174.545 263.547 177.649C267.438 182.663 269.741 188.871 269.741 195.716C269.741 199.696 268.947 203.516 267.518 207.018C266.168 210.361 266.644 214.182 268.868 217.047C269.979 218.48 270.932 220.071 271.885 221.743Z" stroke="#C8D3DD" stroke-width="4" stroke-miterlimit="10" stroke-linecap="round" stroke-linejoin="round"/>
<path d="M240.44 146.131V388.01" stroke="#C8D3DD" stroke-width="4" stroke-miterlimit="10" stroke-linecap="round" stroke-linejoin="round"/>
<path d="M314.605 196.99C313.731 195.318 312.699 193.726 311.588 192.294C309.364 189.429 308.888 185.608 310.238 182.265C311.667 178.763 312.461 175.022 312.461 170.963C312.461 164.198 310.158 157.91 306.267 152.896C303.806 149.792 303.409 145.573 305.235 141.992C306.982 138.649 307.935 134.829 307.935 130.769C307.935 117.08 291.736 89.7795 283.16 89.7795C278.237 89.7795 274.029 95.1918 271.408 98.6938C267.12 104.345 263.785 110.871 261.324 117.478C260.371 120.104 259.577 122.731 259.021 125.437C258.783 126.631 258.624 127.824 258.545 129.018C258.465 130.451 258.624 131.645 258.703 133.157" stroke="#C8D3DD" stroke-width="4" stroke-miterlimit="10" stroke-linecap="round" stroke-linejoin="round"/>
<path d="M314.605 196.99C317.305 201.924 318.893 207.655 318.893 213.624C319.131 233.284 294.912 255.41 283.637 255.41C280.222 255.41 276.49 254.296 272.758 252.386" stroke="#C8D3DD" stroke-width="4" stroke-miterlimit="10" stroke-linecap="round" stroke-linejoin="round"/>
<path d="M283.16 121.377V385.861" stroke="#C8D3DD" stroke-width="4" stroke-miterlimit="10" stroke-linecap="round" stroke-linejoin="round"/>
<path d="M72.1001 386.339V311.682" stroke="#ADCB53" stroke-width="3.4539" stroke-linecap="round" stroke-linejoin="round"/>
<path d="M77.2617 311.92C77.2617 309.055 74.9589 306.747 72.1003 306.747C69.2417 306.747 66.939 309.055 66.939 311.92C66.939 314.786 69.2417 317.094 72.1003 317.094C74.9589 317.094 77.2617 314.786 77.2617 311.92Z" fill="#ADCB53"/>
<path d="M195.258 388.01V351.398" stroke="#ADCB53" stroke-width="3.4539" stroke-linecap="round" stroke-linejoin="round"/>
<path d="M200.42 351.637C200.42 348.771 198.117 346.463 195.259 346.463C192.4 346.463 190.097 348.771 190.097 351.637C190.097 354.502 192.4 356.81 195.259 356.81C198.117 356.81 200.42 354.502 200.42 351.637Z" fill="#ADCB53"/>
<path d="M181.045 386.498V333.251" stroke="#ADCB53" stroke-width="3.4539" stroke-miterlimit="10" stroke-linecap="round" stroke-linejoin="round"/>
<path d="M161.352 310.169C161.035 309.851 160.717 309.533 160.399 309.135C158.97 307.384 159.049 304.837 160.717 303.245L163.973 299.982C173.263 290.669 188.509 290.669 197.799 299.982L201.055 303.245C202.643 304.837 202.723 307.384 201.373 309.135C201.055 309.533 200.817 309.851 200.499 310.249C198.276 313.433 194.703 314.786 191.923 317.492C188.191 321.073 186.603 326.724 181.918 329.271C176.201 332.376 172.866 328.078 170.246 323.143C168.499 319.959 167.149 316.616 165.164 313.592C164.052 312.159 162.623 311.284 161.352 310.169Z" fill="white"/>
<path d="M179.933 335.877C183.983 334.763 188.112 334.286 192.321 334.365C196.211 334.445 200.023 335.559 203.834 335.48C204.231 335.48 204.549 335.48 204.946 335.48C206.693 335.559 208.202 334.365 208.519 332.614L209.075 329.033C210.663 318.924 203.676 309.373 193.591 307.782L190.018 307.224C188.271 306.986 186.603 308.1 186.206 309.771C186.127 310.09 185.968 310.488 185.889 310.806C184.539 314.865 182.951 318.765 181.76 322.904C180.568 327.043 180.171 331.182 179.774 335.48" fill="#C8D3DD"/>
<path d="M180.171 335.877C178.663 335.957 176.757 334.763 175.248 334.365C173.342 333.888 171.357 333.649 169.372 333.569C166.037 333.49 162.702 333.888 159.526 335.002C157.144 335.798 153.65 335.877 153.094 332.614L152.538 329.033C150.95 318.924 157.938 309.373 168.022 307.782L171.595 307.224C173.342 306.986 175.01 308.1 175.407 309.771C175.486 310.09 175.645 310.488 175.725 310.806L180.807 325.69C181.362 327.282 181.839 328.794 182.077 330.386C182.315 331.977 182.156 333.729 181.442 335.161C181.283 335.48 181.124 335.718 180.886 335.877C180.568 336.037 180.409 335.957 180.171 335.877Z" fill="#C8D3DD"/>
<path d="M175.645 335.32C175.645 332.535 177.868 332.853 180.648 332.853C183.427 332.853 185.65 332.614 185.65 335.32C185.65 338.106 183.427 342.802 180.648 342.802C177.868 342.802 175.645 338.106 175.645 335.32Z" fill="#ADCB53"/>
<path d="M44.229 386.18V357.129" stroke="#ADCB53" stroke-width="3.8259" stroke-miterlimit="10" stroke-linecap="round" stroke-linejoin="round"/>
<path d="M41.6089 354.422C44.6263 353.228 47.8025 352.512 50.9787 352.194C53.9961 351.955 57.0136 352.512 59.9516 352.114C60.2692 352.114 60.5074 352.035 60.825 352.035C62.1749 351.955 63.2866 350.92 63.366 349.567L63.5248 346.782C63.9219 338.902 57.8076 332.057 49.9465 331.659L47.1673 331.5C45.8174 331.42 44.6263 332.455 44.3881 333.728C44.3087 334.047 44.3087 334.286 44.2293 334.604C43.5146 337.788 42.6411 340.971 42.0853 344.235C41.5295 347.498 41.5295 350.761 41.6089 354.104" fill="white"/>
<path d="M43.2762 353.706C42.0851 353.626 40.7352 352.512 39.6235 352.114C38.1942 351.557 36.6855 351.159 35.1768 351C32.6358 350.602 30.0154 350.682 27.5539 351.159C25.6481 351.557 22.9483 351.318 22.8689 348.771L22.7895 345.986C22.4719 338.106 28.6655 331.341 36.6061 331.022L39.3853 330.943C40.7352 330.863 41.9263 331.898 42.0851 333.251C42.0851 333.569 42.1645 333.808 42.2439 334.126L44.7849 345.986C45.0231 347.259 45.3407 348.453 45.3407 349.726C45.3407 351 45.1025 352.273 44.3879 353.388C44.229 353.626 44.0702 353.786 43.9114 353.945C43.7526 354.104 43.5144 353.865 43.2762 353.706Z" fill="white"/>
<path d="M38.75 352.114C38.75 349.09 41.2116 349.329 44.229 349.329C47.2464 349.329 49.708 349.01 49.708 352.114C49.708 355.139 47.2464 360.392 44.229 360.392C41.2116 360.392 38.75 355.139 38.75 352.114Z" fill="#ADCB53"/>
<path d="M61.6187 248.645C61.6187 277.775 85.1227 301.335 114.185 301.335C143.248 301.335 166.752 277.775 166.752 248.645C166.752 228.986 142.771 185.608 127.208 159.502C121.332 149.633 107.039 149.633 101.083 159.502C85.5992 185.608 61.6187 228.986 61.6187 248.645Z" stroke="#C8D3DD" stroke-width="4" stroke-miterlimit="10" stroke-linecap="round" stroke-linejoin="round"/>
<path d="M93.8574 218.48C95.922 227.792 104.26 234.796 114.106 234.796C123.952 234.796 132.29 227.792 134.354 218.48" stroke="#ADCB53" stroke-width="4" stroke-linecap="round" stroke-linejoin="round"/>
<path d="M89.2519 219.276C88.9343 216.649 90.84 214.261 93.4604 213.943C96.0808 213.625 98.4629 215.535 98.7806 218.161C99.0982 220.788 97.1924 223.176 94.5721 223.494C91.9517 223.733 89.5695 221.902 89.2519 219.276Z" fill="#ADCB53"/>
<path d="M139.118 219.276C139.436 216.649 137.53 214.261 134.91 213.943C132.29 213.625 129.907 215.535 129.59 218.161C129.272 220.788 131.178 223.176 133.798 223.494C136.419 223.733 138.801 221.902 139.118 219.276Z" fill="#ADCB53"/>
<path d="M83.6138 246.894C85.8371 261.777 98.7008 273.318 114.185 273.318C129.669 273.318 142.533 261.777 144.756 246.894" stroke="#ADCB53" stroke-width="4" stroke-linecap="round" stroke-linejoin="round"/>
<path d="M78.9291 247.531C78.6908 244.904 80.676 242.596 83.2964 242.357C85.9168 242.118 88.2195 244.108 88.4577 246.735C88.696 249.361 86.7108 251.669 84.0904 251.908C81.47 252.147 79.1673 250.157 78.9291 247.531Z" fill="#ADCB53"/>
<path d="M149.441 247.531C149.679 244.904 147.694 242.596 145.074 242.357C142.453 242.118 140.151 244.108 139.912 246.735C139.674 249.361 141.659 251.669 144.28 251.908C146.9 252.147 149.203 250.157 149.441 247.531Z" fill="#ADCB53"/>
<path d="M114.185 195.318V388.01" stroke="#ADCB53" stroke-width="4" stroke-linecap="round" stroke-linejoin="round"/>
<path d="M114.185 200.333C116.817 200.333 118.95 198.195 118.95 195.557C118.95 192.92 116.817 190.782 114.185 190.782C111.554 190.782 109.421 192.92 109.421 195.557C109.421 198.195 111.554 200.333 114.185 200.333Z" fill="#ADCB53"/>
<path d="M1.90576 388.01H340.094" stroke="#ADCB53" stroke-width="4.8324" stroke-miterlimit="10" stroke-linecap="round" stroke-linejoin="round"/>
<path d="M1.90576 121.855C143.248 139.127 256.321 76.249 320.243 19.1816" stroke="#ADCB53" stroke-width="4.8324" stroke-linecap="round" stroke-linejoin="round"/>
<path d="M329.216 36.7714L340.094 0L302.853 8.91429L329.216 36.7714Z" fill="#ADCB53"/>
<path d="M340.094 388.01V2.70618" stroke="#ADCB53" stroke-width="2" stroke-miterlimit="10" stroke-linecap="round" stroke-linejoin="round" stroke-dasharray="9 9"/>
<path d="M1.90576 388.01V121.855" stroke="#ADCB53" stroke-width="2" stroke-miterlimit="10" stroke-linecap="round" stroke-linejoin="round" stroke-dasharray="9 9"/>
</g>
<defs>
<clipPath id="clip0_745_6479">
<rect width="342" height="390" fill="white"/>
</clipPath>
</defs>
</svg>
