<svg width="229" height="239" viewBox="0 0 229 239" fill="none" xmlns="http://www.w3.org/2000/svg">
<path d="M120.704 115.087C120.416 115.087 120.177 114.848 120.177 114.561V74.6613C120.177 71.979 122.332 69.8236 125.014 69.8236H215.255C215.542 69.8236 215.782 70.0631 215.782 70.3505C215.782 70.6379 215.542 70.8774 215.255 70.8774H125.062C122.955 70.8774 121.278 72.6017 121.278 74.6613V114.561C121.278 114.848 121.039 115.087 120.704 115.087Z" fill="white"/>
<path d="M138.426 230.618H60.6392V114.034H138.426V230.618ZM61.8845 229.372H137.228V115.279H61.8845V229.372Z" fill="white"/>
<path d="M119.889 114.56H79.1758V110.393C79.1758 108.669 80.6127 107.232 82.3371 107.232H116.728C118.452 107.232 119.889 108.669 119.889 110.393V114.56V114.56Z" fill="#AECC53"/>
<path d="M113.663 114.513H85.4026V119.446H113.663V114.513Z" fill="#AECC53"/>
<path d="M76.0144 137.552H68.2549V145.311H76.0144V137.552Z" fill="#AECC53"/>
<path d="M130.81 140.809H80.6123V142.054H130.81V140.809Z" fill="white"/>
<path d="M76.0144 160.207H68.2549V167.967H76.0144V160.207Z" fill="#AECC53"/>
<path d="M130.81 163.512H80.6123V164.758H130.81V163.512Z" fill="white"/>
<path d="M76.0144 182.911H68.2549V190.671H76.0144V182.911Z" fill="#AECC53"/>
<path d="M130.81 186.168H80.6123V187.414H130.81V186.168Z" fill="white"/>
<path d="M76.0144 205.615H68.2549V213.374H76.0144V205.615Z" fill="#AECC53"/>
<path d="M130.81 208.872H80.6123V210.117H130.81V208.872Z" fill="white"/>
<path d="M223.11 123.47L223.014 78.7806C223.014 73.9429 219.086 70.0153 214.249 70.0153H123.242C128.08 70.0153 132.008 73.9429 132.008 78.7806L132.103 123.47C132.103 128.307 136.031 132.235 140.869 132.235H226.702C227.277 132.235 227.804 132.235 228.379 132.235C229.289 132.235 229.001 131.804 228.379 131.517C227.948 131.325 227.517 131.133 227.133 130.846C224.738 129.313 223.11 126.583 223.11 123.47Z" fill="white"/>
<path d="M215.303 85.1031H173.344C173.056 85.1031 172.865 84.9115 172.865 84.6241C172.865 84.3367 173.056 84.1451 173.344 84.1451H215.303C215.59 84.1451 215.782 84.3367 215.782 84.6241C215.782 84.9115 215.542 85.1031 215.303 85.1031Z" fill="#ADCB53"/>
<path d="M215.303 89.6055H173.344C173.056 89.6055 172.865 89.414 172.865 89.1266C172.865 88.8392 173.056 88.6476 173.344 88.6476H215.303C215.59 88.6476 215.782 88.8392 215.782 89.1266C215.782 89.414 215.542 89.6055 215.303 89.6055Z" fill="#ADCB53"/>
<path d="M215.303 94.587H173.344C173.056 94.587 172.865 94.3954 172.865 94.108C172.865 93.8206 173.056 93.629 173.344 93.629H215.303C215.59 93.629 215.782 93.8206 215.782 94.108C215.782 94.3954 215.542 94.587 215.303 94.587Z" fill="#ADCB53"/>
<path d="M215.303 99.0893H173.344C173.056 99.0893 172.865 98.8977 172.865 98.6103C172.865 98.3229 173.056 98.1313 173.344 98.1313H215.303C215.59 98.1313 215.782 98.3229 215.782 98.6103C215.782 98.8977 215.542 99.0893 215.303 99.0893Z" fill="#ADCB53"/>
<path d="M215.303 103.975H173.344C173.056 103.975 172.865 103.783 172.865 103.496C172.865 103.209 173.056 103.017 173.344 103.017H215.303C215.59 103.017 215.782 103.209 215.782 103.496C215.782 103.783 215.542 103.975 215.303 103.975Z" fill="#ADCB53"/>
<path d="M215.303 108.717H173.344C173.056 108.717 172.865 108.525 172.865 108.238C172.865 107.951 173.056 107.759 173.344 107.759H215.303C215.59 107.759 215.782 107.951 215.782 108.238C215.782 108.525 215.542 108.717 215.303 108.717Z" fill="#ADCB53"/>
<path d="M215.303 113.267H173.344C173.056 113.267 172.865 113.076 172.865 112.788C172.865 112.501 173.056 112.309 173.344 112.309H215.303C215.59 112.309 215.782 112.501 215.782 112.788C215.782 113.076 215.542 113.267 215.303 113.267Z" fill="#ADCB53"/>
<path d="M161.752 114.129H138.905V84.3846H161.752V114.129ZM139.384 113.65H161.273V84.8636H139.384V113.65Z" fill="#181818"/>
<path d="M150.305 109.866C150.018 109.866 149.826 109.675 149.826 109.387V97.1734C149.826 96.8861 150.018 96.6945 150.305 96.6945C150.592 96.6945 150.784 96.8861 150.784 97.1734V109.387C150.784 109.627 150.592 109.866 150.305 109.866Z" fill="#ADCB53"/>
<path d="M150.305 107.711C146.425 107.711 143.264 104.55 143.264 100.67C143.264 96.8861 149.682 89.1266 149.969 88.7913C150.161 88.5518 150.544 88.5518 150.688 88.7913C150.975 89.1266 157.394 96.8861 157.394 100.67C157.346 104.55 154.184 107.711 150.305 107.711ZM150.305 89.8451C148.916 91.5694 144.222 97.7004 144.222 100.67C144.222 104.023 146.952 106.753 150.305 106.753C153.658 106.753 156.388 104.023 156.388 100.67C156.388 97.7483 151.694 91.5694 150.305 89.8451Z" fill="#ADCB53"/>
<path d="M168.889 85.3905C169.365 85.3905 169.751 85.0045 169.751 84.5283C169.751 84.0521 169.365 83.6661 168.889 83.6661C168.413 83.6661 168.027 84.0521 168.027 84.5283C168.027 85.0045 168.413 85.3905 168.889 85.3905Z" fill="#181818"/>
<path d="M168.889 94.9702C169.365 94.9702 169.751 94.5842 169.751 94.108C169.751 93.6318 169.365 93.2458 168.889 93.2458C168.413 93.2458 168.027 93.6318 168.027 94.108C168.027 94.5842 168.413 94.9702 168.889 94.9702Z" fill="#181818"/>
<path d="M168.889 104.119C169.365 104.119 169.751 103.733 169.751 103.256C169.751 102.78 169.365 102.394 168.889 102.394C168.413 102.394 168.027 102.78 168.027 103.256C168.027 103.733 168.413 104.119 168.889 104.119Z" fill="#181818"/>
<path d="M168.889 113.315C169.365 113.315 169.751 112.929 169.751 112.453C169.751 111.977 169.365 111.591 168.889 111.591C168.413 111.591 168.027 111.977 168.027 112.453C168.027 112.929 168.413 113.315 168.889 113.315Z" fill="#181818"/>
<path d="M185.605 158.387V160.447C185.605 162.411 184.025 163.991 182.061 163.991H154.28C152.316 163.991 150.735 165.572 150.735 167.536V223.433C150.735 225.397 152.316 226.978 154.28 226.978H222.631C224.594 226.978 226.175 225.397 226.175 223.433V165.333V164.039V158.387C226.175 156.424 224.594 154.843 222.631 154.843H189.198C187.186 154.795 185.605 156.424 185.605 158.387Z" fill="white"/>
<path d="M188.431 161.357V163.417C188.431 165.38 186.85 166.961 184.886 166.961H157.105C155.142 166.961 153.561 168.542 153.561 170.506V226.403C153.561 228.367 155.142 229.947 157.105 229.947H225.456C227.42 229.947 229.001 228.367 229.001 226.403V168.302V167.009V161.357C229.001 159.393 227.42 157.812 225.456 157.812H192.023C190.012 157.812 188.431 159.393 188.431 161.357Z" fill="#AECC53"/>
<path d="M205.005 209.255C199.4 209.255 194.85 205.088 194.85 199.963C194.85 195.077 203.999 179.463 204.382 178.792C204.526 178.552 204.765 178.457 205.005 178.457C205.244 178.457 205.483 178.6 205.627 178.792C206.01 179.463 215.159 195.077 215.159 199.963C215.159 205.04 210.609 209.255 205.005 209.255ZM205.005 180.564C202.083 185.641 196.287 196.466 196.287 199.915C196.287 204.226 200.215 207.77 205.005 207.77C209.794 207.77 213.722 204.226 213.722 199.915C213.722 196.466 207.926 185.641 205.005 180.564Z" fill="white"/>
<path d="M205.004 217.254C204.621 217.254 204.286 216.919 204.286 216.536V194.503C204.286 194.119 204.621 193.784 205.004 193.784C205.388 193.784 205.723 194.119 205.723 194.503V216.536C205.723 216.919 205.388 217.254 205.004 217.254Z" fill="white"/>
<path d="M180.097 209.255C174.493 209.255 169.943 205.088 169.943 199.963C169.943 195.077 179.091 179.463 179.475 178.792C179.618 178.552 179.858 178.457 180.097 178.457C180.337 178.457 180.576 178.6 180.72 178.792C181.103 179.463 190.252 195.077 190.252 199.963C190.252 205.04 185.701 209.255 180.097 209.255ZM180.097 180.564C177.176 185.641 171.38 196.466 171.38 199.915C171.38 204.226 175.307 207.77 180.097 207.77C184.887 207.77 188.815 204.226 188.815 199.915C188.815 196.466 183.019 185.641 180.097 180.564Z" fill="white"/>
<path d="M180.098 217.254C179.714 217.254 179.379 216.919 179.379 216.536V194.503C179.379 194.119 179.714 193.784 180.098 193.784C180.481 193.784 180.816 194.119 180.816 194.503V216.536C180.816 216.919 180.529 217.254 180.098 217.254Z" fill="white"/>
<path d="M40.3784 109.004H28.8828C16.8603 109.004 6.51434 101.436 2.44299 90.803C0.622859 86.109 0.479164 80.8881 1.82031 76.0503L19.83 11.2441C23.9972 -3.74803 45.2161 -3.74803 49.3832 11.2441C56.6158 37.2528 64.4232 65.2254 67.4408 76.0024C68.782 80.8881 68.6862 86.0611 66.8661 90.803C62.7468 101.436 52.4008 109.004 40.3784 109.004Z" fill="#ADCB53"/>
<path d="M34.6304 60.6749C29.6969 60.6749 25.1944 57.7531 23.1348 53.2507C22.9432 52.8196 23.1348 52.2927 23.5659 52.1011C23.997 51.9095 24.5239 52.1011 24.7155 52.5322C26.4877 56.412 30.3674 58.9027 34.5825 58.9027C38.8454 58.9027 42.7252 56.412 44.4495 52.5322C44.6411 52.1011 45.168 51.9095 45.5991 52.1011C46.0301 52.2927 46.2217 52.8196 46.0301 53.2507C44.0663 57.7531 39.5639 60.6749 34.6304 60.6749Z" fill="white"/>
<path d="M42.1025 52.0533C42.6293 50.329 44.4974 49.3231 46.2217 49.85C47.946 50.3769 48.9519 52.2449 48.425 53.9692C47.8981 55.6936 46.0301 56.6994 44.3058 56.1726C42.5335 55.6457 41.5277 53.7777 42.1025 52.0533Z" fill="white"/>
<path d="M27.1584 52.0533C26.6315 50.329 24.7635 49.3231 23.0392 49.85C21.3148 50.3769 20.309 52.2449 20.8358 53.9692C21.3627 55.6936 23.2307 56.6994 24.9551 56.1726C26.7273 55.6457 27.7332 53.7777 27.1584 52.0533Z" fill="white"/>
<path d="M34.6307 83.4746C26.5838 83.4746 19.3511 78.0621 17.052 70.3026C16.9083 69.8236 17.1957 69.3447 17.6268 69.201C18.1058 69.0573 18.5848 69.3447 18.7285 69.7757C20.7881 76.7689 27.3501 81.7024 34.6307 81.7024C41.9112 81.7024 48.4732 76.8168 50.5329 69.7757C50.6766 69.2968 51.1555 69.0573 51.6345 69.201C52.1135 69.3447 52.353 69.8236 52.2093 70.3026C49.9102 78.0621 42.6776 83.4746 34.6307 83.4746Z" fill="white"/>
<path d="M48.0901 69.5363C48.4733 67.764 50.1976 66.5666 51.9698 66.9497C53.7421 67.3329 54.9395 69.0573 54.5563 70.8774C54.1732 72.6975 52.4488 73.8471 50.6287 73.4639C48.8565 73.0807 47.7069 71.3564 48.0901 69.5363Z" fill="white"/>
<path d="M21.171 69.5363C20.7878 67.764 19.0635 66.5666 17.2434 66.9497C15.4232 67.3329 14.2737 69.0573 14.6569 70.8774C15.0401 72.6496 16.7644 73.8471 18.5845 73.4639C20.4047 73.0807 21.5542 71.3564 21.171 69.5363Z" fill="white"/>
<path d="M34.6305 238.713C34.1515 238.713 33.7683 238.329 33.7683 237.85V34.6184C33.7683 34.1394 34.1515 33.7562 34.6305 33.7562C35.1095 33.7562 35.4926 34.1394 35.4926 34.6184V237.85C35.4926 238.329 35.1095 238.713 34.6305 238.713Z" fill="white"/>
<path d="M34.6306 37.7319C33.002 37.7319 31.6609 36.3907 31.6609 34.7622C31.6609 33.1336 33.002 31.7925 34.6306 31.7925C36.2591 31.7925 37.6003 33.1336 37.6003 34.7622C37.6003 36.3907 36.2591 37.7319 34.6306 37.7319ZM34.6306 33.9C34.1516 33.9 33.7684 34.2832 33.7684 34.7622C33.7684 35.2411 34.1516 35.6243 34.6306 35.6243C35.1096 35.6243 35.4927 35.2411 35.4927 34.7622C35.4927 34.2832 35.1096 33.9 34.6306 33.9Z" fill="white"/>
<path d="M40.1866 239H0.862167C0.383185 239 0 238.617 0 238.138C0 237.659 0.383185 237.276 0.862167 237.276H40.1866C40.6656 237.276 41.0487 237.659 41.0487 238.138C41.0487 238.617 40.6656 239 40.1866 239Z" fill="#ADCB53"/>
<path d="M20.0694 238.473C19.6383 238.473 19.2551 238.09 19.2551 237.659V205.232C19.2551 204.801 19.6383 204.417 20.0694 204.417C20.5005 204.417 20.8837 204.801 20.8837 205.232V237.659C20.8837 238.138 20.5005 238.473 20.0694 238.473Z" fill="#ADCB53"/>
<path d="M23.0869 205.376C23.0869 203.699 21.7458 202.358 20.0693 202.358C18.3929 202.358 17.0518 203.699 17.0518 205.376C17.0518 207.052 18.3929 208.393 20.0693 208.393C21.7458 208.393 23.0869 207.052 23.0869 205.376Z" fill="#ADCB53"/>
<path d="M9.4361 238.473C9.00501 238.473 8.62183 238.09 8.62183 237.659V221.326C8.62183 220.894 9.00501 220.511 9.4361 220.511C9.86718 220.511 10.2504 220.894 10.2504 221.326V237.659C10.2504 238.138 9.91508 238.473 9.4361 238.473Z" fill="#ADCB53"/>
<path d="M9.4358 224.535C11.1024 224.535 12.4534 223.184 12.4534 221.517C12.4534 219.851 11.1024 218.5 9.4358 218.5C7.76923 218.5 6.41821 219.851 6.41821 221.517C6.41821 223.184 7.76923 224.535 9.4358 224.535Z" fill="#ADCB53"/>
<path d="M143.072 50.5685H99.2451C91.2461 50.5685 84.7319 44.0544 84.7319 36.0554C84.7319 28.0564 91.2461 21.5422 99.2451 21.5422H101.592C102.454 11.4357 110.932 3.6283 121.135 3.6283C131.385 3.6283 139.815 11.4357 140.677 21.5422H143.024C151.023 21.5422 157.537 28.0564 157.537 36.0554C157.537 44.0544 151.071 50.5685 143.072 50.5685ZM99.1972 22.9313C91.9646 22.9313 86.0731 28.8227 86.0731 36.0554C86.0731 43.288 91.9646 49.1795 99.1972 49.1795H143.024C150.257 49.1795 156.148 43.288 156.148 36.0554C156.148 28.8227 150.257 22.9313 143.024 22.9313H140.006C139.623 22.9313 139.336 22.6439 139.288 22.2607C138.809 12.5853 130.81 5.01734 121.087 5.01734C111.363 5.01734 103.412 12.5853 102.885 22.2607C102.885 22.6439 102.55 22.9313 102.167 22.9313H99.1972V22.9313Z" fill="#C8D3DD"/>
<path d="M133.588 20.9674C133.301 20.9674 133.061 20.8237 132.965 20.5363C131.433 16.1776 128.128 12.6331 123.865 10.813C123.529 10.6693 123.386 10.2861 123.529 9.95083C123.673 9.61554 124.056 9.47185 124.392 9.61554C128.99 11.5794 132.534 15.3633 134.163 20.0573C134.259 20.3926 134.115 20.7758 133.78 20.8716C133.732 20.9674 133.684 20.9674 133.588 20.9674Z" fill="#C8D3DD"/>
<path d="M152.029 36.1512C151.694 36.1512 151.406 35.8638 151.406 35.5285C151.406 30.2118 147.814 26.6673 142.497 26.6673C142.162 26.6673 141.875 26.38 141.875 26.0447C141.875 25.7094 142.162 25.422 142.497 25.422C148.58 25.422 152.652 29.4933 152.652 35.5764C152.7 35.8638 152.412 36.1512 152.029 36.1512Z" fill="#C8D3DD"/>
</svg>
