<svg width="70" height="71" viewBox="0 0 70 71" fill="none" xmlns="http://www.w3.org/2000/svg">
<g clip-path="url(#clip0_725_4661)">
<path d="M51.569 66.291C54.5873 64.9424 57.5415 63.3369 59.8534 60.9607C63.0002 57.8139 64.7341 53.5754 66.2754 49.4011C69.1653 41.7589 69.5506 33.7956 70.0002 25.6396C70.3855 19.0249 64.5415 12.0249 60.1103 7.78641C59.5965 7.27265 59.0185 6.75889 58.5048 6.24513C56.835 4.70384 55.0369 3.22678 52.9176 2.32769C49.5139 0.78641 45.3396 0.850631 41.7433 0.465309C37.8259 0.0157681 34.358 -0.0484521 30.4405 0.72219C26.0736 1.62127 19.2662 2.39192 15.7341 5.34604C11.3029 9.13503 8.02771 12.0892 5.26624 17.291C2.37633 22.8139 -0.320918 29.3002 0.000182824 35.658C0.192843 38.9974 1.66991 42.5295 2.50477 45.7405C4.17449 52.0341 7.51394 57.3002 12.7158 61.2818C18.1103 65.4561 23.6974 67.2543 29.9268 69.5662C38.0185 72.5204 44.1194 69.6304 51.569 66.291Z" fill="white"/>
<path d="M57.1052 21.1917C56.8578 18.7174 52.0083 16.738 46.0206 16.738C40.0825 16.738 35.2329 18.7174 34.936 21.1917V51.5753C36.1237 48.9526 39.8845 46.9238 46.0206 46.9238C52.1568 46.9238 55.8681 48.9526 57.1052 51.5753V21.1917Z" stroke="#3C3C3B" stroke-width="0.9234" stroke-miterlimit="10" stroke-linecap="round" stroke-linejoin="round"/>
<path d="M37.7568 30.2475C39.6867 29.1589 42.4579 28.4661 46.0208 28.4661C49.8311 28.4661 52.7012 29.2578 54.6312 30.4455" stroke="#3C3C3B" stroke-width="0.9234" stroke-miterlimit="10" stroke-linecap="round" stroke-linejoin="round"/>
<path d="M37.7568 26.9814C39.6867 25.8927 42.4579 25.2 46.0208 25.2C49.8311 25.2 52.7012 25.9917 54.6312 27.1793" stroke="#3C3C3B" stroke-width="0.9234" stroke-miterlimit="10" stroke-linecap="round" stroke-linejoin="round"/>
<path d="M37.7568 33.5134C39.6867 32.4247 42.4579 31.7319 46.0208 31.7319C49.8311 31.7319 52.7012 32.5237 54.6312 33.7113" stroke="#3C3C3B" stroke-width="0.9234" stroke-miterlimit="10" stroke-linecap="round" stroke-linejoin="round"/>
<path d="M15.9834 30.2475C17.9133 29.1589 20.6845 28.4661 24.2474 28.4661C28.0577 28.4661 30.9278 29.2578 32.8577 30.4455" stroke="#3C3C3B" stroke-width="0.9234" stroke-miterlimit="10" stroke-linecap="round" stroke-linejoin="round"/>
<path d="M15.9834 26.9814C17.9133 25.8927 20.6845 25.2 24.2474 25.2C28.0577 25.2 30.9278 25.9917 32.8577 27.1793" stroke="#3C3C3B" stroke-width="0.9234" stroke-miterlimit="10" stroke-linecap="round" stroke-linejoin="round"/>
<path d="M15.9834 33.5134C17.9133 32.4247 20.6845 31.7319 24.2474 31.7319C28.0577 31.7319 30.9278 32.5237 32.8577 33.7113" stroke="#3C3C3B" stroke-width="0.9234" stroke-miterlimit="10" stroke-linecap="round" stroke-linejoin="round"/>
<path d="M34.9363 21.1917C34.6889 18.7174 29.8393 16.738 23.8517 16.738C17.9135 16.738 13.064 18.7174 12.7671 21.1917V51.5753C13.9547 48.9526 17.7156 46.9238 23.8517 46.9238C29.9878 46.9238 33.6992 48.9526 34.9363 51.5753V21.1917Z" stroke="#3C3C3B" stroke-width="0.9234" stroke-miterlimit="10" stroke-linecap="round" stroke-linejoin="round"/>
<path d="M34.9853 54.0002C43.4575 54.0002 50.3256 47.1321 50.3256 38.6599C50.3256 30.1877 43.4575 23.3196 34.9853 23.3196C26.5131 23.3196 19.645 30.1877 19.645 38.6599C19.645 47.1321 26.5131 54.0002 34.9853 54.0002Z" fill="white"/>
<path d="M34.9853 54.0002C43.4575 54.0002 50.3256 47.1321 50.3256 38.6599C50.3256 30.1877 43.4575 23.3196 34.9853 23.3196C26.5131 23.3196 19.645 30.1877 19.645 38.6599C19.645 47.1321 26.5131 54.0002 34.9853 54.0002Z" fill="#ACCA52"/>
<path d="M34.9854 52.3178C42.5284 52.3178 48.6433 46.203 48.6433 38.66C48.6433 31.117 42.5284 25.0022 34.9854 25.0022C27.4424 25.0022 21.3276 31.117 21.3276 38.66C21.3276 46.203 27.4424 52.3178 34.9854 52.3178Z" fill="#ACCA52"/>
<path d="M34.9856 49.2002C40.8068 49.2002 45.5258 44.4811 45.5258 38.6599C45.5258 32.8387 40.8068 28.1196 34.9856 28.1196C29.1643 28.1196 24.4453 32.8387 24.4453 38.6599C24.4453 44.4811 29.1643 49.2002 34.9856 49.2002Z" stroke="white" stroke-miterlimit="10"/>
<path d="M34.9851 52.3176C27.4634 52.3176 21.2778 46.1815 21.2778 38.6104H22.1191C22.1191 45.6867 27.8593 51.4764 34.9851 51.4764C42.1109 51.4764 47.8512 45.7362 47.8512 38.6104H48.6924C48.6924 46.1815 42.5563 52.3176 34.9851 52.3176Z" fill="#3C3C3C"/>
<path d="M48.6924 38.6599H47.8512C47.8512 31.5836 42.1109 25.7939 34.9851 25.7939C27.8593 25.7939 22.1191 31.5341 22.1191 38.6599H21.2778C21.2778 31.1382 27.4139 24.9526 34.9851 24.9526C42.5563 24.9526 48.6924 31.0888 48.6924 38.6599Z" fill="#3C3C3C"/>
<path d="M36.1235 38.9565L34.9358 50.536L33.8472 38.9565H36.1235Z" fill="#030202"/>
<path d="M33.8472 38.3133L35.0348 26.7339L36.1235 38.3628L33.8472 38.3133Z" fill="white"/>
<path d="M34.985 40.1444C35.8049 40.1444 36.4696 39.4797 36.4696 38.6598C36.4696 37.8399 35.8049 37.1753 34.985 37.1753C34.1651 37.1753 33.5005 37.8399 33.5005 38.6598C33.5005 39.4797 34.1651 40.1444 34.985 40.1444Z" fill="#868686"/>
</g>
<defs>
<clipPath id="clip0_725_4661">
<rect width="70" height="70.6422" fill="white" transform="translate(0 0.144287)"/>
</clipPath>
</defs>
</svg>
