<svg width="157" height="53" viewBox="0 0 157 53" fill="none" xmlns="http://www.w3.org/2000/svg">
<path d="M13.7744 44.9117H5.74456C4.72315 44.9117 3.74355 44.5059 3.02131 43.7837C2.29906 43.0614 1.89333 42.0819 1.89333 41.0604V26.169L0.134611 23.2164C0.0464871 23.0678 0 22.8982 0 22.7254C0 22.5526 0.0464871 22.383 0.134611 22.2344L1.89333 19.2818V4.3711C1.88909 3.86266 1.98556 3.35841 2.17721 2.88744C2.36885 2.41648 2.6519 1.98814 3.00994 1.62711C3.36799 1.26608 3.79393 0.979534 4.26329 0.783988C4.73264 0.588442 5.23609 0.487775 5.74456 0.487793H13.7872V2.41341H5.74456C5.48896 2.41337 5.23594 2.46421 5.0002 2.56298C4.76446 2.66175 4.55073 2.80647 4.37149 2.9887C4.19226 3.17092 4.05108 3.38699 3.95622 3.62434C3.86136 3.86168 3.81468 4.11554 3.81894 4.3711V19.5257C3.81767 19.6982 3.76882 19.867 3.67775 20.0135L2.0795 22.7029L3.67775 25.3859C3.76882 25.5325 3.81767 25.7013 3.81894 25.8738V41.0348C3.81894 41.5455 4.02181 42.0353 4.38293 42.3964C4.74405 42.7575 5.23385 42.9604 5.74456 42.9604H13.7872L13.7744 44.9117Z" fill="#F4F6F8"/>
<path d="M45.8229 44.9117H37.7803V42.9861H45.8229C46.3336 42.9861 46.8234 42.7832 47.1845 42.422C47.5456 42.0609 47.7485 41.5711 47.7485 41.0604V25.893C47.7506 25.7215 47.7971 25.5535 47.8833 25.4052L49.488 22.7222L47.8833 20.0327C47.7971 19.8845 47.7506 19.7164 47.7485 19.5449V4.3711C47.7527 4.11554 47.7061 3.86168 47.6113 3.62434C47.5164 3.38699 47.3752 3.17092 47.196 2.9887C47.0168 2.80647 46.803 2.66175 46.5673 2.56298C46.3315 2.46421 46.0785 2.41337 45.8229 2.41341H37.7803V0.487793H45.8229C46.3313 0.487775 46.8348 0.588442 47.3041 0.783988C47.7735 0.979534 48.1995 1.26608 48.5575 1.62711C48.9156 1.98814 49.1986 2.41648 49.3902 2.88744C49.5819 3.35841 49.6783 3.86266 49.6741 4.3711V19.2561L51.4329 22.2087C51.521 22.3573 51.5675 22.5269 51.5675 22.6997C51.5675 22.8725 51.521 23.0421 51.4329 23.1908L49.6741 26.1434V41.0348C49.6741 42.0562 49.2684 43.0357 48.5461 43.758C47.8239 44.4802 46.8443 44.886 45.8229 44.886" fill="#F4F6F8"/>
<path d="M40.0905 24.3844C39.4892 24.3184 38.8823 24.4432 38.3559 24.7412C37.8295 25.0392 37.4101 25.4953 37.1573 26.0449C36.9046 26.5945 36.8312 27.2097 36.9475 27.8033C37.0638 28.397 37.3639 28.939 37.8054 29.3525C36.9016 31.5285 35.4267 33.4199 33.5364 34.8266C31.6461 36.2333 29.4108 37.103 27.0669 37.3438V25.052C28.6866 24.8472 30.2406 24.2856 31.617 23.4076C32.9933 22.5296 34.1577 21.3572 35.0261 19.9748C35.5777 19.9637 36.1146 19.7953 36.5737 19.4894C37.0328 19.1834 37.3949 18.7526 37.6173 18.2478C37.8398 17.7429 37.9133 17.185 37.8293 16.6397C37.7453 16.0945 37.5072 15.5846 37.1432 15.1701C36.7791 14.7556 36.3042 14.4538 35.7743 14.3002C35.2444 14.1466 34.6817 14.1475 34.1523 14.303C33.623 14.4585 33.1492 14.762 32.7865 15.1778C32.4239 15.5936 32.1876 16.1043 32.1056 16.6499C32.0449 17.0393 32.0655 17.4371 32.166 17.8182C32.2665 18.1993 32.4448 18.5555 32.6897 18.8643C32.0469 19.8157 31.2167 20.6257 30.2499 21.2449C29.283 21.8641 28.1999 22.2793 27.0669 22.4652V10.4494C27.6523 10.1598 28.1226 9.68065 28.4013 9.08993C28.68 8.49921 28.7507 7.8316 28.602 7.1956C28.4533 6.5596 28.0938 5.99259 27.5821 5.58671C27.0703 5.18083 26.4363 4.95996 25.7832 4.95996C25.13 4.95996 24.4961 5.18083 23.9843 5.58671C23.4726 5.99259 23.1131 6.5596 22.9644 7.1956C22.8157 7.8316 22.8864 8.49921 23.1651 9.08993C23.4438 9.68065 23.914 10.1598 24.4994 10.4494V22.4652C23.3639 22.2817 22.2781 21.8675 21.3089 21.2482C20.3396 20.6289 19.5074 19.8176 18.8638 18.8643C19.1087 18.5555 19.287 18.1993 19.3875 17.8182C19.488 17.4371 19.5086 17.0393 19.4479 16.6499C19.3659 16.1046 19.1298 15.5941 18.7675 15.1785C18.4052 14.7628 17.9316 14.4593 17.4026 14.3036C16.8737 14.1479 16.3112 14.1465 15.7815 14.2996C15.2518 14.4528 14.7768 14.754 14.4124 15.1679C14.0481 15.5818 13.8095 16.0911 13.7248 16.636C13.6401 17.1808 13.7128 17.7386 13.9343 18.2435C14.1558 18.7485 14.5169 19.1797 14.9752 19.4864C15.4334 19.7931 15.9697 19.9625 16.521 19.9748C17.3915 21.3595 18.5588 22.5334 19.9387 23.4115C21.3186 24.2896 22.8764 24.8499 24.4994 25.052V37.3438C22.1521 37.1063 19.9128 36.2381 18.0189 34.8312C16.125 33.4243 14.647 31.5312 13.7417 29.3525C14.2161 28.9043 14.5253 28.3088 14.6188 27.6629C14.7122 27.0169 14.5847 26.3582 14.2568 25.7939C13.9288 25.2295 13.4198 24.7925 12.8122 24.5538C12.2047 24.3152 11.5344 24.2888 10.91 24.4791C10.2856 24.6693 9.7439 25.065 9.37268 25.6018C9.00146 26.1387 8.82254 26.7853 8.86503 27.4366C8.90752 28.088 9.1689 28.7058 9.60672 29.1899C10.0445 29.674 10.6331 29.996 11.2769 30.1035C12.3494 32.8082 14.1551 35.1602 16.4909 36.8951C18.8268 38.6299 21.6002 39.6789 24.4994 39.9241V52.4213H27.0669V39.9241C29.9639 39.6766 32.7346 38.6266 35.068 36.8918C37.4013 35.1571 39.2051 32.8064 40.2767 30.1035C40.9639 29.9853 41.5852 29.6225 42.0258 29.082C42.4665 28.5415 42.6966 27.8599 42.674 27.1629C42.6513 26.466 42.3773 25.8007 41.9024 25.29C41.4276 24.7793 40.784 24.4577 40.0905 24.3844" fill="#F4F6F8"/>
<path d="M75.6505 3.53029H73.083C72.8261 3.06652 72.4433 2.68485 71.9788 2.42931C71.5143 2.17377 70.9869 2.05478 70.4577 2.08608C68.4486 2.08608 67.0558 3.51744 67.0558 5.74473C67.0558 7.97202 68.4679 9.43549 70.554 9.43549C71.3073 9.4793 72.0499 9.2404 72.6364 8.76553C73.2229 8.29066 73.611 7.61399 73.7249 6.86801H69.8737V5.1478H75.9329V7.07341C75.6751 8.32537 74.987 9.44749 73.9879 10.2448C72.9889 11.0422 71.7421 11.4644 70.4641 11.4381C68.9473 11.4381 67.4927 10.8356 66.4202 9.76307C65.3476 8.69053 64.7451 7.23586 64.7451 5.71907C64.7451 4.20228 65.3476 2.74761 66.4202 1.67508C67.4927 0.602544 68.9473 0 70.4641 0C72.961 0 74.9572 1.28374 75.6761 3.51103" fill="#F4F6F8"/>
<path d="M79.8413 11.3609H77.5947V2.47101H79.8413V3.85103C80.1202 3.38071 80.5194 2.9931 80.9977 2.72801C81.476 2.46293 82.0162 2.32992 82.5629 2.34263V4.71113H81.9723C80.6437 4.71113 79.8413 5.22463 79.8413 6.93843V11.3609Z" fill="#F4F6F8"/>
<path d="M87.9545 11.5087C85.3871 11.5087 83.5 9.71144 83.5 6.9193C83.5 4.12716 85.3293 2.32993 87.9545 2.32993C88.5394 2.2993 89.1243 2.39216 89.6709 2.60246C90.2175 2.81276 90.7137 3.13579 91.1272 3.55054C91.5408 3.96528 91.8624 4.46244 92.0711 5.00967C92.2798 5.55691 92.3709 6.14196 92.3386 6.72675C92.3396 7.01681 92.3181 7.3065 92.2744 7.59326H85.7786C85.781 7.86882 85.8384 8.14114 85.9474 8.39428C86.0563 8.64742 86.2146 8.87631 86.413 9.06755C86.6114 9.2588 86.8459 9.40856 87.1029 9.5081C87.3599 9.60763 87.6342 9.65494 87.9096 9.64725C88.2806 9.67019 88.6497 9.57919 88.9675 9.38645C89.2853 9.19372 89.5365 8.90847 89.6876 8.56891H92.1139C91.8484 9.45298 91.2946 10.2227 90.5408 10.7555C89.787 11.2883 88.8765 11.5534 87.9545 11.5087ZM85.7914 6.08488H90.0086C90.0023 5.81728 89.9418 5.55374 89.8306 5.31024C89.7195 5.06674 89.5601 4.84834 89.362 4.66829C89.164 4.48823 88.9314 4.35029 88.6785 4.26279C88.4255 4.17529 88.1574 4.14007 87.8904 4.15926C87.3603 4.1498 86.8469 4.34437 86.4563 4.70276C86.0656 5.06116 85.8276 5.55597 85.7914 6.08488Z" fill="#F4F6F8"/>
<path d="M97.8588 11.5088C95.2913 11.5088 93.3657 9.71159 93.3657 6.91946C93.3657 4.12732 95.1951 2.33008 97.8588 2.33008C98.4432 2.30039 99.0273 2.39394 99.5731 2.60465C100.119 2.81537 100.614 3.13854 101.027 3.55318C101.44 3.96782 101.761 4.46466 101.969 5.01143C102.178 5.5582 102.269 6.14268 102.236 6.7269C102.241 7.01707 102.219 7.30703 102.172 7.59341H95.6764C95.6806 7.86847 95.7391 8.14 95.8487 8.39234C95.9582 8.64469 96.1166 8.87289 96.3146 9.06379C96.5127 9.2547 96.7465 9.40455 97.0027 9.50471C97.2589 9.60487 97.5325 9.65336 97.8075 9.64741C98.1792 9.66986 98.5489 9.57874 98.8676 9.38614C99.1863 9.19354 99.4389 8.90858 99.5918 8.56907H102.025C101.759 9.45202 101.207 10.221 100.454 10.7536C99.7016 11.2863 98.7926 11.5521 97.8717 11.5088H97.8588ZM95.7086 6.08503H99.9256C99.9194 5.81744 99.8588 5.55389 99.7477 5.31039C99.6365 5.06689 99.4771 4.84849 99.2791 4.66844C99.081 4.48839 98.8485 4.35045 98.5955 4.26294C98.3425 4.17544 98.0745 4.14023 97.8075 4.15942C97.2774 4.14995 96.764 4.34452 96.3733 4.70292C95.9827 5.06131 95.7447 5.55612 95.7086 6.08503Z" fill="#F4F6F8"/>
<path d="M110.1 6.45074C110.1 5.02578 109.317 4.25555 108.129 4.25555C106.942 4.25555 106.126 5.02578 106.126 6.45074V11.361H103.88V2.47115H106.126V3.58157C106.447 3.18314 106.855 2.86448 107.32 2.65064C107.784 2.43679 108.292 2.33361 108.803 2.34919C110.87 2.34919 112.346 3.69069 112.346 6.14906V11.361H110.1V6.45074Z" fill="#F4F6F8"/>
<path d="M69.135 32.0163C66.8114 32.0163 65.0142 30.7968 64.9821 28.6786H67.3634C67.3684 28.8911 67.4174 29.1003 67.5075 29.2928C67.5976 29.4853 67.7266 29.6571 67.8866 29.7971C68.0465 29.9371 68.2338 30.0423 68.4365 30.1061C68.6393 30.17 68.8531 30.1909 69.0644 30.1678C70.1235 30.1678 70.7461 29.6093 70.7461 28.807C70.7461 26.3807 64.9692 27.8442 64.9692 23.7811C64.9692 21.7592 66.606 20.5718 68.9168 20.5718C71.2275 20.5718 72.768 21.7464 72.922 23.7811H70.4572C70.4197 23.392 70.2302 23.0334 69.9296 22.7834C69.6291 22.5333 69.242 22.4121 68.8525 22.446C67.9667 22.414 67.3121 22.8504 67.3121 23.7619C67.3121 26.0084 73.0504 24.7568 73.0504 28.7043C73.0504 30.4694 71.6382 32.0613 69.09 32.0613" fill="#F4F6F8"/>
<path d="M78.9884 32.0486C78.0826 32.0398 77.1998 31.7631 76.451 31.2535C75.7023 30.7438 75.1209 30.024 74.7805 29.1846C74.44 28.3453 74.3555 27.424 74.5377 26.5367C74.7198 25.6494 75.1604 24.8359 75.804 24.1985C76.4476 23.5612 77.2654 23.1285 78.1544 22.9551C79.0434 22.7816 79.9638 22.8751 80.7998 23.2237C81.6358 23.5723 82.3499 24.1606 82.8522 24.9143C83.3545 25.668 83.6226 26.5535 83.6226 27.4593C83.6436 28.0714 83.5377 28.6813 83.3117 29.2506C83.0856 29.8199 82.7442 30.3362 82.309 30.7672C81.8737 31.1982 81.3541 31.5346 80.7826 31.7551C80.2112 31.9756 79.6003 32.0756 78.9884 32.0486ZM78.9884 30.123C80.1758 30.123 81.3119 29.2565 81.3119 27.4914C81.3119 25.7262 80.2079 24.8597 79.0205 24.8597C77.833 24.8597 76.7611 25.707 76.7611 27.4914C76.7611 29.2758 77.7881 30.123 78.9884 30.123Z" fill="#F4F6F8"/>
<path d="M85.5225 24.8597H84.5083V23.0111H85.5225V22.5618C85.5225 20.3794 86.7549 19.3524 89.2582 19.4359V21.3294C88.167 21.2973 87.8011 21.6503 87.8011 22.6452V23.0111H89.3545V24.8597H87.8011V31.9202H85.5225V24.8597Z" fill="#F4F6F8"/>
<path d="M91.1705 24.8597H90.1114V23.0111H91.1705V20.8159H93.4299V23.0111H95.4197V24.8597H93.4299V29.1602C93.4299 29.7508 93.6674 30.0075 94.3734 30.0075H95.4197V31.901H94.0076C92.3066 31.901 91.1705 31.1821 91.1705 29.141V24.8597Z" fill="#F4F6F8"/>
<path d="M96.0493 23.0112H98.3278L99.8936 29.783L101.595 23.0112H103.97L105.639 29.7701L107.211 23.0112H109.361L106.762 31.9011H104.342L102.718 25.6942L101.1 31.9011H98.6613L96.0493 23.0112Z" fill="#F4F6F8"/>
<path d="M114.066 22.8696C114.633 22.8507 115.195 22.9692 115.706 23.2152C116.217 23.4611 116.661 23.827 116.999 24.2817V22.998H119.265V31.8879H116.999V30.6042C116.663 31.0679 116.218 31.4421 115.703 31.6939C115.188 31.9457 114.619 32.0674 114.047 32.0484C111.8 32.0484 110.009 30.1998 110.009 27.4269C110.009 24.654 111.8 22.8696 114.066 22.8696ZM114.644 24.8402C114.317 24.8425 113.995 24.9124 113.697 25.0452C113.399 25.178 113.131 25.371 112.911 25.6121C112.691 25.8532 112.524 26.1371 112.418 26.4461C112.313 26.7551 112.273 27.0824 112.301 27.4076C112.301 29.0893 113.437 30.0522 114.644 30.0522C114.974 30.0482 115.3 29.976 115.601 29.8399C115.902 29.7038 116.172 29.5069 116.393 29.2615C116.614 29.0161 116.783 28.7275 116.887 28.414C116.991 28.1005 117.029 27.7688 116.999 27.4398C116.999 25.7516 115.876 24.8209 114.644 24.8209" fill="#F4F6F8"/>
<path d="M123.707 31.9008H121.467V23.0109H123.707V24.391C123.988 23.921 124.389 23.5339 124.868 23.269C125.347 23.004 125.888 22.8707 126.435 22.8826V25.2511H125.845C124.51 25.2511 123.707 25.7646 123.707 27.4784V31.9008Z" fill="#F4F6F8"/>
<path d="M131.827 32.0487C129.26 32.0487 127.372 30.2515 127.372 27.4593C127.372 24.6672 129.195 22.87 131.827 22.87C132.412 22.8393 132.997 22.9322 133.543 23.1425C134.09 23.3528 134.586 23.6758 135 24.0906C135.413 24.5053 135.735 25.0025 135.944 25.5497C136.152 26.0969 136.243 26.682 136.211 27.2668C136.212 27.5569 136.191 27.8465 136.147 28.1333H129.625C129.63 28.4089 129.688 28.681 129.798 28.9337C129.908 29.1865 130.067 29.415 130.266 29.606C130.465 29.797 130.699 29.9467 130.956 30.0465C131.213 30.1462 131.487 30.1941 131.763 30.1873C132.134 30.2102 132.503 30.1192 132.821 29.9265C133.139 29.7338 133.39 29.4485 133.541 29.109H135.967C135.702 29.993 135.148 30.7628 134.394 31.2955C133.64 31.8283 132.73 32.0935 131.808 32.0487H131.827ZM129.645 26.6249H133.862C133.856 26.3573 133.795 26.0938 133.684 25.8503C133.573 25.6068 133.413 25.3884 133.215 25.2083C133.017 25.0283 132.785 24.8903 132.532 24.8028C132.279 24.7153 132.011 24.6801 131.744 24.6993C131.214 24.6898 130.7 24.8844 130.309 25.2428C129.919 25.6012 129.681 26.096 129.645 26.6249Z" fill="#F4F6F8"/>
<path d="M65.2715 41.2466H72.1841V43.0566H67.518V45.9258H71.0928V47.7102H67.518V52.4408H65.2715V41.2466Z" fill="#F4F6F8"/>
<path d="M77.7241 52.5887C76.8184 52.5798 75.9355 52.3031 75.1867 51.7935C74.438 51.2839 73.8567 50.564 73.5162 49.7247C73.1758 48.8853 73.0913 47.964 73.2734 47.0767C73.4556 46.1895 73.8961 45.3759 74.5397 44.7386C75.1833 44.1012 76.0011 43.6686 76.8901 43.4951C77.7791 43.3216 78.6996 43.4151 79.5356 43.7637C80.3716 44.1124 81.0856 44.7006 81.588 45.4543C82.0903 46.208 82.3584 47.0935 82.3584 47.9993C82.3794 48.6115 82.2735 49.2214 82.0474 49.7906C81.8214 50.3599 81.48 50.8763 81.0448 51.3073C80.6095 51.7383 80.0899 52.0746 79.5184 52.2951C78.947 52.5157 78.3361 52.6156 77.7241 52.5887ZM77.7241 50.6631C78.9116 50.6631 80.0477 49.7965 80.0477 48.0314C80.0477 46.2663 78.9372 45.3997 77.7562 45.3997C76.5751 45.3997 75.4904 46.247 75.4904 48.0314C75.4904 49.8158 76.5174 50.6631 77.7241 50.6631Z" fill="#F4F6F8"/>
<path d="M92.3965 52.4407H90.1307V51.3174C89.8168 51.7156 89.4144 52.035 88.9552 52.2501C88.4961 52.4652 87.993 52.57 87.4862 52.5562C85.4193 52.5562 83.9238 51.2083 83.9238 48.7692V43.5508H86.1704V48.4483C86.1704 49.8732 86.9598 50.6434 88.1409 50.6434C89.3219 50.6434 90.1307 49.8732 90.1307 48.4483V43.5508H92.3965V52.4407Z" fill="#F4F6F8"/>
<path d="M100.844 47.5304C100.844 46.1055 100.054 45.3352 98.8732 45.3352C97.6922 45.3352 96.8642 46.1055 96.8642 47.5304V52.4407H94.6176V43.5508H96.8642V44.6613C97.1856 44.2623 97.5952 43.9434 98.0608 43.7296C98.5263 43.5157 99.0352 43.4128 99.5472 43.4289C101.614 43.4289 103.09 44.7704 103.09 47.2287V52.4407H100.844V47.5304Z" fill="#F4F6F8"/>
<path d="M108.726 43.4098C109.283 43.403 109.834 43.5238 110.337 43.763C110.84 44.0023 111.281 44.3535 111.627 44.7899V40.5728H113.906V52.4409H111.653V51.1251C111.332 51.5984 110.895 51.9815 110.384 52.2377C109.872 52.4939 109.304 52.6147 108.732 52.5886C106.473 52.5886 104.676 50.74 104.676 47.9671C104.676 45.1942 106.473 43.4098 108.752 43.4098H108.726ZM109.31 45.3804C108.984 45.3837 108.662 45.4541 108.365 45.5873C108.067 45.7205 107.8 45.9135 107.58 46.1544C107.36 46.3952 107.192 46.6788 107.087 46.9873C106.982 47.2959 106.941 47.6228 106.967 47.9478C106.938 48.2772 106.977 48.6091 107.08 48.9231C107.184 49.2371 107.35 49.5267 107.57 49.7742C107.789 50.0217 108.056 50.2219 108.356 50.3625C108.655 50.5032 108.98 50.5814 109.31 50.5924C110.549 50.5924 111.666 49.6617 111.666 47.9799C111.666 46.2982 110.549 45.3611 109.31 45.3611" fill="#F4F6F8"/>
<path d="M119.586 43.4097C120.153 43.3907 120.716 43.5093 121.227 43.7552C121.738 44.0011 122.181 44.3671 122.52 44.8218V43.538H124.786V52.428H122.52V51.1442C122.183 51.608 121.738 51.9821 121.223 52.2339C120.709 52.4857 120.14 52.6074 119.567 52.5884C117.327 52.5884 115.53 50.7398 115.53 47.967C115.53 45.1941 117.327 43.4097 119.586 43.4097ZM120.164 45.3802C119.838 45.3826 119.515 45.4524 119.217 45.5852C118.919 45.7181 118.652 45.9111 118.432 46.1522C118.212 46.3932 118.044 46.6772 117.939 46.9862C117.834 47.2951 117.794 47.6225 117.821 47.9477C117.821 49.6294 118.957 50.5922 120.164 50.5922C120.495 50.5883 120.821 50.516 121.122 50.3799C121.423 50.2438 121.692 50.0469 121.914 49.8015C122.135 49.5561 122.303 49.2676 122.407 48.9541C122.512 48.6405 122.55 48.3088 122.52 47.9798C122.52 46.2917 121.397 45.3609 120.164 45.3609" fill="#F4F6F8"/>
<path d="M127.34 45.3998H126.281V43.5512H127.34V41.356H129.625V43.5512H131.615V45.3998H129.625V49.7003C129.625 50.2908 129.863 50.5476 130.569 50.5476H131.615V52.4411H130.203C128.502 52.4411 127.366 51.7222 127.366 49.681L127.34 45.3998Z" fill="#F4F6F8"/>
<path d="M132.97 41.1824C132.95 40.9061 133.015 40.6305 133.154 40.3912C133.293 40.152 133.502 39.9602 133.751 39.8408C134.001 39.7215 134.281 39.6801 134.555 39.7219C134.829 39.7638 135.084 39.887 135.286 40.0756C135.489 40.2642 135.63 40.5095 135.692 40.7795C135.753 41.0494 135.732 41.3317 135.631 41.5895C135.53 41.8473 135.354 42.0688 135.125 42.2251C134.897 42.3815 134.627 42.4654 134.35 42.4661C134.174 42.4747 133.999 42.4481 133.834 42.3879C133.669 42.3276 133.518 42.2349 133.389 42.1153C133.26 41.9956 133.157 41.8514 133.085 41.6912C133.013 41.531 132.974 41.358 132.97 41.1824V41.1824ZM133.214 43.5509H135.46V52.4408H133.214V43.5509Z" fill="#F4F6F8"/>
<path d="M141.616 52.5886C140.71 52.5785 139.828 52.3007 139.08 51.7903C138.332 51.2799 137.752 50.5597 137.412 49.7202C137.073 48.8808 136.989 47.9597 137.172 47.0728C137.355 46.186 137.796 45.3731 138.44 44.7364C139.084 44.0997 139.902 43.6676 140.79 43.4947C141.679 43.3217 142.599 43.4155 143.435 43.7644C144.271 44.1132 144.984 44.7014 145.486 45.4549C145.988 46.2085 146.256 47.0938 146.256 47.9993C146.276 48.6117 146.17 49.2217 145.943 49.791C145.716 50.3603 145.374 50.8766 144.938 51.3075C144.503 51.7384 143.983 52.0746 143.411 52.2951C142.839 52.5156 142.228 52.6155 141.616 52.5886V52.5886ZM141.616 50.663C142.803 50.663 143.946 49.7965 143.946 48.0313C143.946 46.2662 142.835 45.3997 141.648 45.3997C140.46 45.3997 139.388 46.2469 139.388 48.0313C139.388 49.8157 140.415 50.663 141.616 50.663" fill="#F4F6F8"/>
<path d="M154.132 47.5304C154.132 46.1055 153.349 45.3352 152.161 45.3352C150.974 45.3352 150.152 46.1055 150.152 47.5304V52.4407H147.912V43.5508H150.165V44.6613C150.487 44.2623 150.896 43.9434 151.362 43.7296C151.827 43.5157 152.336 43.4128 152.848 43.4289C154.915 43.4289 156.391 44.7704 156.391 47.2287V52.4407H154.145L154.132 47.5304Z" fill="#F4F6F8"/>
</svg>
