<svg width="116" height="39" viewBox="0 0 116 39" fill="none" xmlns="http://www.w3.org/2000/svg">
<g clip-path="url(#clip0_1228_360)">
<path d="M10.1773 33.0481H4.24439C3.48972 33.0481 2.76594 32.7496 2.23231 32.2181C1.69867 31.6867 1.39889 30.9658 1.39889 30.2142V19.2564L0.0994578 17.0837C0.0343472 16.9744 0 16.8496 0 16.7224C0 16.5953 0.0343472 16.4705 0.0994578 16.3611L1.39889 14.1884V3.21641C1.39576 2.84228 1.46704 2.47123 1.60864 2.12466C1.75023 1.77811 1.95937 1.46291 2.2239 1.19725C2.48845 0.931595 2.80316 0.720734 3.14995 0.576842C3.49673 0.432949 3.8687 0.358873 4.24439 0.358887H10.1867V1.77585H4.24439C4.05554 1.77582 3.86859 1.81323 3.69442 1.88591C3.52024 1.95859 3.36232 2.06508 3.22989 2.19918C3.09747 2.33326 2.99315 2.49226 2.92307 2.66691C2.85298 2.84156 2.81849 3.02836 2.82164 3.21641V14.3679C2.8207 14.4948 2.78461 14.619 2.71732 14.7269L1.53645 16.7059L2.71732 18.6802C2.78461 18.788 2.8207 18.9122 2.82164 19.0391V30.1953C2.82164 30.5711 2.97153 30.9315 3.23834 31.1973C3.50516 31.463 3.86705 31.6123 4.24439 31.6123H10.1867L10.1773 33.0481Z" fill="#AECC53"/>
<path d="M33.8562 33.0481H27.9139V31.6312H33.8562C34.2336 31.6312 34.5955 31.4819 34.8623 31.2162C35.1291 30.9504 35.279 30.59 35.279 30.2142V19.0533C35.2805 18.9271 35.3149 18.8034 35.3786 18.6944L36.5642 16.72L35.3786 14.741C35.3149 14.6319 35.2805 14.5083 35.279 14.3821V3.21641C35.2821 3.02836 35.2477 2.84156 35.1776 2.66691C35.1075 2.49226 35.0032 2.33326 34.8708 2.19918C34.7384 2.06508 34.5805 1.95859 34.4062 1.88591C34.2321 1.81323 34.0451 1.77582 33.8562 1.77585H27.9139V0.358887H33.8562C34.2319 0.358873 34.6039 0.432949 34.9506 0.576842C35.2975 0.720734 35.6122 0.931595 35.8768 1.19725C36.1413 1.46291 36.3504 1.77811 36.492 2.12466C36.6336 2.47123 36.7048 2.84228 36.7017 3.21641V14.1696L38.0012 16.3422C38.0663 16.4516 38.1007 16.5764 38.1007 16.7035C38.1007 16.8307 38.0663 16.9555 38.0012 17.0648L36.7017 19.2375V30.1953C36.7017 30.9469 36.402 31.6678 35.8683 32.1993C35.3347 32.7307 34.6109 33.0293 33.8562 33.0293" fill="#AECC53"/>
<path d="M29.6211 17.9434C29.1768 17.8948 28.7285 17.9866 28.3395 18.2059C27.9506 18.4252 27.6407 18.7608 27.454 19.1652C27.2672 19.5696 27.213 20.0223 27.2989 20.4592C27.3848 20.896 27.6065 21.2948 27.9327 21.5992C27.265 23.2004 26.1752 24.5921 24.7786 25.6272C23.3819 26.6623 21.7304 27.3023 19.9986 27.4796V18.4346C21.1953 18.2839 22.3435 17.8706 23.3604 17.2246C24.3773 16.5785 25.2376 15.7158 25.8793 14.6985C26.2868 14.6904 26.6835 14.5665 27.0227 14.3413C27.3619 14.1162 27.6294 13.7992 27.7938 13.4277C27.9582 13.0563 28.0125 12.6456 27.9504 12.2445C27.8883 11.8432 27.7125 11.468 27.4435 11.163C27.1745 10.858 26.8236 10.6359 26.4321 10.5229C26.0406 10.4098 25.6248 10.4106 25.2336 10.525C24.8426 10.6394 24.4925 10.8628 24.2246 11.1687C23.9567 11.4746 23.7821 11.8505 23.7214 12.2519C23.6766 12.5385 23.6918 12.8312 23.7661 13.1117C23.8403 13.3921 23.9721 13.6541 24.153 13.8814C23.6781 14.5814 23.0647 15.1776 22.3503 15.6332C21.6359 16.0888 20.8357 16.3944 19.9986 16.5312V7.68934C20.4312 7.47616 20.7786 7.12361 20.9845 6.68893C21.1904 6.25425 21.2427 5.76299 21.1328 5.29499C21.0229 4.82699 20.7573 4.40975 20.3792 4.11109C20.0012 3.81243 19.5326 3.6499 19.0501 3.6499C18.5675 3.6499 18.0991 3.81243 17.7211 4.11109C17.3429 4.40975 17.0774 4.82699 16.9674 5.29499C16.8576 5.76299 16.9098 6.25425 17.1157 6.68893C17.3216 7.12361 17.669 7.47616 18.1016 7.68934V16.5312C17.2627 16.3961 16.4604 16.0913 15.7443 15.6356C15.0281 15.1799 14.4133 14.5828 13.9377 13.8814C14.1186 13.6541 14.2504 13.3921 14.3246 13.1117C14.3989 12.8312 14.4141 12.5385 14.3692 12.2519C14.3087 11.8507 14.1342 11.4751 13.8665 11.1692C13.5988 10.8633 13.2489 10.6399 12.8581 10.5254C12.4673 10.4109 12.0518 10.4098 11.6603 10.5225C11.2689 10.6352 10.918 10.8568 10.6488 11.1614C10.3796 11.4659 10.2033 11.8407 10.1407 12.2417C10.0781 12.6426 10.1319 13.053 10.2956 13.4246C10.4592 13.7961 10.726 14.1134 11.0646 14.3391C11.4031 14.5648 11.7994 14.6895 12.2067 14.6985C12.8499 15.7175 13.7124 16.5813 14.7319 17.2274C15.7514 17.8736 16.9024 18.2859 18.1016 18.4346V27.4796C16.3673 27.3047 14.7127 26.6659 13.3134 25.6307C11.9141 24.5954 10.8221 23.2024 10.1532 21.5992C10.5038 21.2693 10.7322 20.8312 10.8012 20.3558C10.8703 19.8804 10.7761 19.3958 10.5338 18.9805C10.2915 18.5652 9.91536 18.2436 9.46651 18.068C9.01758 17.8924 8.52233 17.873 8.06099 18.013C7.59965 18.153 7.19943 18.4441 6.92515 18.8392C6.65087 19.2343 6.51868 19.7101 6.55007 20.1894C6.58146 20.6686 6.77459 21.1233 7.09807 21.4795C7.42158 21.8357 7.8564 22.0726 8.33207 22.1517C9.12457 24.142 10.4586 25.8727 12.1845 27.1493C13.9103 28.4259 15.9595 29.1978 18.1016 29.3783V38.5743H19.9986V29.3783C22.139 29.1961 24.1862 28.4234 25.9102 27.147C27.6343 25.8705 28.9669 24.1406 29.7587 22.1517C30.2664 22.0648 30.7255 21.7978 31.051 21.4001C31.3766 21.0024 31.5467 20.5008 31.5299 19.988C31.5132 19.4751 31.3107 18.9855 30.9598 18.6098C30.609 18.234 30.1335 17.9973 29.6211 17.9434Z" fill="#006D69"/>
<path d="M55.8945 2.59776H53.9975C53.8077 2.2565 53.5249 1.97564 53.1817 1.78761C52.8384 1.59957 52.4488 1.51201 52.0578 1.53504C50.5734 1.53504 49.5443 2.5883 49.5443 4.22725C49.5443 5.8662 50.5876 6.9431 52.129 6.9431C52.6855 6.97533 53.2342 6.79954 53.6675 6.45011C54.1008 6.10067 54.3876 5.60275 54.4718 5.05382H51.6262V3.788H56.1032V5.20496C55.9127 6.12622 55.4042 6.95193 54.6661 7.53863C53.928 8.12539 53.0068 8.43607 52.0625 8.41671C50.9418 8.41671 49.8671 7.97337 49.0746 7.18415C48.2822 6.39492 47.837 5.3245 47.837 4.20837C47.837 3.09224 48.2822 2.02183 49.0746 1.23261C49.8671 0.443381 50.9418 0 52.0625 0C53.9074 0 55.3823 0.944639 55.9134 2.58359" fill="#006D69"/>
<path d="M58.9912 8.35986H57.3313V1.81823H58.9912V2.83371C59.1973 2.48763 59.4922 2.2024 59.8456 2.00734C60.199 1.81228 60.5981 1.7144 61.0021 1.72376V3.46662H60.5657C59.584 3.46662 58.9912 3.84448 58.9912 5.10557V8.35986Z" fill="#006D69"/>
<path d="M64.9858 8.4688C63.0888 8.4688 61.6945 7.14633 61.6945 5.09173C61.6945 3.03714 63.046 1.71465 64.9858 1.71465C65.4179 1.69211 65.85 1.76044 66.2538 1.91519C66.6577 2.06994 67.0243 2.30764 67.3299 2.61284C67.6354 2.91802 67.873 3.28386 68.0272 3.68653C68.1814 4.08922 68.2488 4.51973 68.2249 4.95005C68.2256 5.16349 68.2098 5.37666 68.1775 5.58767H63.378C63.3799 5.79045 63.4223 5.99083 63.5027 6.1771C63.5832 6.36337 63.7002 6.5318 63.8468 6.67253C63.9934 6.81325 64.1667 6.92345 64.3566 6.9967C64.5464 7.06994 64.749 7.10475 64.9526 7.09909C65.2266 7.11597 65.4994 7.04901 65.7341 6.90718C65.9689 6.76536 66.1546 6.55546 66.2663 6.3056H68.0589C67.8628 6.95614 67.4536 7.52257 66.8967 7.91463C66.3397 8.30661 65.667 8.50176 64.9858 8.4688ZM63.3875 4.47773H66.5034C66.4988 4.28082 66.454 4.08689 66.3719 3.90771C66.2898 3.72853 66.172 3.56782 66.0257 3.43533C65.8793 3.30284 65.7075 3.20133 65.5206 3.13694C65.3337 3.07256 65.1356 3.04664 64.9383 3.06076C64.5467 3.0538 64.1674 3.19697 63.8787 3.4607C63.5901 3.72442 63.4142 4.08853 63.3875 4.47773Z" fill="#006D69"/>
<path d="M72.3034 8.4686C70.4065 8.4686 68.9836 7.14608 68.9836 5.0915C68.9836 3.0369 70.3353 1.7144 72.3034 1.7144C72.7352 1.69256 73.1667 1.7614 73.57 1.91645C73.9733 2.0715 74.339 2.30931 74.6441 2.61442C74.9493 2.91953 75.1865 3.28513 75.3401 3.68747C75.4946 4.08981 75.5618 4.5199 75.5374 4.9498C75.5411 5.16332 75.5249 5.37669 75.4901 5.58742H70.691C70.694 5.78982 70.7373 5.98962 70.8182 6.17531C70.8991 6.361 71.0162 6.52893 71.1625 6.6694C71.3088 6.80988 71.4816 6.92014 71.6709 6.99385C71.8602 7.06755 72.0623 7.10323 72.2655 7.09886C72.5401 7.11537 72.8133 7.04832 73.0487 6.9066C73.2842 6.76487 73.4709 6.55519 73.5839 6.30536H75.3815C75.185 6.95508 74.7771 7.5209 74.2208 7.91289C73.6649 8.3048 72.9933 8.50039 72.3129 8.4686H72.3034ZM70.7147 4.47748H73.8304C73.8259 4.28058 73.7811 4.08664 73.699 3.90746C73.6169 3.72828 73.4991 3.56757 73.3528 3.43508C73.2064 3.30259 73.0346 3.20108 72.8477 3.1367C72.6608 3.07231 72.4628 3.0464 72.2655 3.06052C71.8739 3.05355 71.4945 3.19673 71.2058 3.46046C70.9172 3.72418 70.7414 4.08828 70.7147 4.47748Z" fill="#006D69"/>
<path d="M81.347 4.74679C81.347 3.69823 80.7685 3.13146 79.8915 3.13146C79.0137 3.13146 78.4115 3.69823 78.4115 4.74679V8.36003H76.7521V1.81841H78.4115V2.63551C78.6487 2.34233 78.9502 2.10784 79.2937 1.95049C79.6366 1.79313 80.0119 1.71721 80.3895 1.72867C81.9167 1.72867 83.0072 2.71581 83.0072 4.5248V8.36003H81.347V4.74679Z" fill="#006D69"/>
<path d="M51.0808 23.5591C49.364 23.5591 48.0361 22.6618 48.0124 21.1031H49.7718C49.7755 21.2594 49.8118 21.4133 49.8783 21.555C49.9449 21.6967 50.0402 21.823 50.1584 21.926C50.2765 22.0291 50.4149 22.1066 50.5648 22.1535C50.7145 22.2004 50.8725 22.2159 51.0286 22.1988C51.8111 22.1988 52.2711 21.7879 52.2711 21.1976C52.2711 19.4122 48.0029 20.4891 48.0029 17.4993C48.0029 16.0114 49.2122 15.1377 50.9196 15.1377C52.6268 15.1377 53.765 16.002 53.8788 17.4993H52.0577C52.0301 17.2129 51.89 16.9491 51.6679 16.765C51.4458 16.5811 51.1598 16.4919 50.872 16.5168C50.2176 16.4932 49.7339 16.8144 49.7339 17.4851C49.7339 19.1382 53.9737 18.2172 53.9737 21.122C53.9737 22.4208 52.9303 23.5922 51.0475 23.5922" fill="#006D69"/>
<path d="M58.3609 23.5831C57.6916 23.5766 57.0394 23.373 56.4861 22.998C55.9329 22.623 55.5034 22.0933 55.2519 21.4757C55.0003 20.858 54.9378 20.1801 55.0725 19.5271C55.207 18.8743 55.5326 18.2756 56.0081 17.8067C56.4836 17.3376 57.0878 17.0193 57.7447 16.8916C58.4015 16.764 59.0816 16.8328 59.6992 17.0893C60.3169 17.3459 60.8445 17.7787 61.2157 18.3333C61.5868 18.8879 61.7849 19.5395 61.7849 20.206C61.8004 20.6565 61.7221 21.1053 61.5552 21.5242C61.3881 21.9431 61.1359 22.3231 60.8143 22.6402C60.4927 22.9574 60.1088 23.2048 59.6865 23.3671C59.2644 23.5294 58.813 23.6029 58.3609 23.5831ZM58.3609 22.1662C59.2382 22.1662 60.0776 21.5285 60.0776 20.2297C60.0776 18.9308 59.2619 18.2931 58.3846 18.2931C57.5072 18.2931 56.7152 18.9166 56.7152 20.2297C56.7152 21.5427 57.474 22.1662 58.3609 22.1662Z" fill="#006D69"/>
<path d="M63.1886 18.2929H62.4392V16.9326H63.1886V16.602C63.1886 14.9961 64.099 14.2404 65.9486 14.3018V15.6951C65.1425 15.6715 64.8721 15.9313 64.8721 16.6634V16.9326H66.0198V18.2929H64.8721V23.4884H63.1886V18.2929Z" fill="#006D69"/>
<path d="M67.3616 18.293H66.5791V16.9327H67.3616V15.3174H69.031V16.9327H70.5012V18.293H69.031V21.4575C69.031 21.892 69.2065 22.081 69.7281 22.081H70.5012V23.4743H69.4578C68.201 23.4743 67.3616 22.9453 67.3616 21.4433V18.293Z" fill="#006D69"/>
<path d="M70.9663 16.9326H72.6498L73.8067 21.9156L75.0638 16.9326H76.8185L78.0517 21.9061L79.2132 16.9326H80.8017L78.8814 23.4742H77.0934L75.8935 18.907L74.698 23.4742H72.8962L70.9663 16.9326Z" fill="#006D69"/>
<path d="M84.278 16.8286C84.697 16.8146 85.1122 16.9019 85.4898 17.0828C85.8673 17.2638 86.1954 17.5331 86.4451 17.8677V16.923H88.1193V23.4647H86.4451V22.52C86.1968 22.8613 85.8681 23.1367 85.4875 23.3219C85.107 23.5072 84.6874 23.5967 84.264 23.5827C82.6038 23.5827 81.2805 22.2224 81.2805 20.1821C81.2805 18.1416 82.6038 16.8286 84.278 16.8286ZM84.7051 18.2786C84.4635 18.2804 84.2256 18.3317 84.0054 18.4294C83.7852 18.5272 83.5872 18.6693 83.4247 18.8467C83.2621 19.024 83.1387 19.233 83.0612 19.4604C82.9836 19.6877 82.9533 19.9286 82.974 20.1679C82.974 21.4054 83.8133 22.1138 84.7051 22.1138C84.9489 22.111 85.1898 22.0578 85.4122 21.9576C85.6346 21.8575 85.8341 21.7126 85.9974 21.532C86.1614 21.3514 86.2855 21.1391 86.3624 20.9084C86.4392 20.6777 86.468 20.4336 86.4451 20.1915C86.4451 18.9493 85.6154 18.2645 84.7051 18.2645" fill="#006D69"/>
<path d="M91.4014 23.4745H89.7463V16.9329H91.4014V17.9484C91.609 17.6026 91.9053 17.3178 92.2592 17.1228C92.6131 16.9278 93.0128 16.8297 93.417 16.8384V18.5813H92.981C91.9947 18.5813 91.4014 18.9591 91.4014 20.2202V23.4745Z" fill="#006D69"/>
<path d="M97.4008 23.5831C95.5042 23.5831 94.1093 22.2606 94.1093 20.206C94.1093 18.1514 95.4562 16.8289 97.4008 16.8289C97.8331 16.8064 98.2653 16.8747 98.6687 17.0295C99.0729 17.1842 99.4393 17.4219 99.7452 17.7272C100.05 18.0323 100.288 18.3982 100.443 18.8008C100.596 19.2035 100.664 19.634 100.64 20.0644C100.641 20.2778 100.625 20.4909 100.593 20.702H95.7739C95.7776 20.9048 95.8204 21.1049 95.9017 21.2909C95.983 21.477 96.1005 21.6451 96.2475 21.7857C96.3945 21.9262 96.5674 22.0364 96.7573 22.1097C96.9472 22.1832 97.1496 22.2184 97.3536 22.2134C97.6277 22.2303 97.9003 22.1633 98.1353 22.0215C98.3702 21.8796 98.5557 21.6698 98.6672 21.4199H100.46C100.264 22.0704 99.8546 22.6368 99.2975 23.0289C98.7404 23.4209 98.068 23.616 97.3868 23.5831H97.4008ZM95.7887 19.592H98.9044C98.9 19.3951 98.8549 19.2012 98.7729 19.022C98.6909 18.8428 98.5727 18.6821 98.4264 18.5496C98.2801 18.4172 98.1087 18.3156 97.9217 18.2512C97.7348 18.1868 97.5368 18.1609 97.3395 18.1751C96.9479 18.1681 96.5682 18.3113 96.2793 18.575C95.9911 18.8387 95.8153 19.2028 95.7887 19.592Z" fill="#006D69"/>
<path d="M48.2261 30.3511H53.3335V31.683H49.8859V33.7943H52.5272V35.1074H49.8859V38.5884H48.2261V30.3511Z" fill="#006D69"/>
<path d="M57.4267 38.6973C56.7574 38.6909 56.1051 38.4872 55.5519 38.1123C54.9987 37.7372 54.5692 37.2075 54.3177 36.5899C54.0661 35.9723 54.0037 35.2943 54.1382 34.6414C54.2728 33.9885 54.5983 33.3899 55.0738 32.9208C55.5493 32.4519 56.1537 32.1335 56.8105 32.0059C57.4673 31.8782 58.1474 31.947 58.7651 32.2035C59.3827 32.4601 59.9104 32.893 60.2815 33.4476C60.6526 34.0022 60.8507 34.6538 60.8507 35.3203C60.8662 35.7707 60.788 36.2195 60.621 36.6384C60.4539 37.0573 60.2017 37.4373 59.8801 37.7544C59.5585 38.0716 59.1746 38.3191 58.7524 38.4814C58.3302 38.6436 57.8788 38.7172 57.4267 38.6973ZM57.4267 37.2804C58.304 37.2804 59.1434 36.6428 59.1434 35.3439C59.1434 34.045 58.3229 33.4074 57.4503 33.4074C56.5778 33.4074 55.7763 34.0309 55.7763 35.3439C55.7763 36.657 56.5351 37.2804 57.4267 37.2804Z" fill="#006D69"/>
<path d="M68.2676 38.5885H66.5935V37.7619C66.3616 38.0549 66.0642 38.29 65.725 38.4482C65.3858 38.6065 65.014 38.6836 64.6396 38.6735C63.1125 38.6735 62.0076 37.6816 62.0076 35.8868V32.0469H63.6674V35.6506C63.6674 36.6992 64.2507 37.266 65.1233 37.266C65.9959 37.266 66.5935 36.6992 66.5935 35.6506V32.0469H68.2676V38.5885Z" fill="#006D69"/>
<path d="M74.509 34.9753C74.509 33.9268 73.9253 33.3601 73.0528 33.3601C72.1802 33.3601 71.5685 33.9268 71.5685 34.9753V38.5887H69.9086V32.047H71.5685V32.8641C71.8059 32.5705 72.1086 32.3359 72.4526 32.1785C72.7965 32.0211 73.1725 31.9454 73.5508 31.9573C75.0779 31.9573 76.1684 32.9444 76.1684 34.7534V38.5887H74.509V34.9753Z" fill="#006D69"/>
<path d="M80.3326 31.9431C80.7441 31.9381 81.1512 32.027 81.5229 32.203C81.8945 32.3791 82.2203 32.6376 82.476 32.9586V29.8555H84.1598V38.5887H82.4952V37.6204C82.258 37.9687 81.9351 38.2506 81.5576 38.4391C81.1793 38.6277 80.7596 38.7166 80.337 38.6974C78.6679 38.6974 77.3402 37.3371 77.3402 35.2966C77.3402 33.2562 78.6679 31.9431 80.3518 31.9431H80.3326ZM80.7641 33.3931C80.5232 33.3956 80.2853 33.4474 80.0658 33.5455C79.8457 33.6434 79.6484 33.7855 79.4858 33.9627C79.3233 34.14 79.1992 34.3486 79.1216 34.5756C79.044 34.8027 79.0137 35.0433 79.0329 35.2824C79.0115 35.5248 79.0403 35.769 79.1164 36C79.1933 36.2312 79.3159 36.4443 79.4784 36.6264C79.6403 36.8085 79.8375 36.9557 80.0592 37.0593C80.2801 37.1628 80.5202 37.2204 80.7641 37.2284C81.6795 37.2284 82.5048 36.5435 82.5048 35.306C82.5048 34.0686 81.6795 33.379 80.7641 33.379" fill="#006D69"/>
<path d="M88.3565 31.9428C88.7755 31.9289 89.1914 32.0161 89.569 32.1972C89.9465 32.3781 90.2739 32.6473 90.5243 32.9819V32.0373H92.1986V38.579H90.5243V37.6343C90.2753 37.9756 89.9465 38.2509 89.566 38.4362C89.1863 38.6215 88.7659 38.711 88.3425 38.6971C86.6875 38.6971 85.3597 37.3368 85.3597 35.2963C85.3597 33.2559 86.6875 31.9428 88.3565 31.9428ZM88.7836 33.3929C88.5427 33.3946 88.3041 33.446 88.0839 33.5438C87.8637 33.6415 87.6664 33.7835 87.5039 33.9609C87.3413 34.1383 87.2172 34.3472 87.1396 34.5746C87.0621 34.802 87.0325 35.0428 87.0525 35.2821C87.0525 36.5196 87.8918 37.2282 88.7836 37.2282C89.0282 37.2252 89.269 37.1721 89.4914 37.0719C89.7138 36.9718 89.9126 36.8269 90.0766 36.6463C90.2399 36.4657 90.364 36.2534 90.4408 36.0227C90.5184 35.792 90.5465 35.5479 90.5243 35.3058C90.5243 34.0636 89.6946 33.3787 88.7836 33.3787" fill="#006D69"/>
<path d="M94.0857 33.4073H93.3032V32.047H94.0857V30.4316H95.774V32.047H97.2443V33.4073H95.774V36.5718C95.774 37.0064 95.9498 37.1953 96.4714 37.1953H97.2443V38.5886H96.201C94.9442 38.5886 94.1049 38.0596 94.1049 36.5577L94.0857 33.4073Z" fill="#006D69"/>
<path d="M98.2453 30.3041C98.2305 30.1009 98.2785 29.898 98.3812 29.722C98.484 29.5459 98.6384 29.4048 98.8223 29.317C99.0071 29.2291 99.2139 29.1986 99.4164 29.2295C99.6188 29.2603 99.8072 29.351 99.9565 29.4897C100.106 29.6285 100.211 29.8089 100.256 30.0076C100.302 30.2063 100.286 30.414 100.211 30.6037C100.137 30.7934 100.007 30.9564 99.8375 31.0714C99.6691 31.1865 99.4696 31.2483 99.2649 31.2488C99.1349 31.2551 99.0056 31.2355 98.8837 31.1912C98.7618 31.1469 98.6502 31.0787 98.5549 30.9906C98.4596 30.9026 98.3835 30.7965 98.3303 30.6786C98.2771 30.5607 98.2483 30.4333 98.2453 30.3041ZM98.4256 32.047H100.085V38.5886H98.4256V32.047Z" fill="#006D69"/>
<path d="M104.633 38.6973C103.964 38.6899 103.312 38.4855 102.76 38.1099C102.207 37.7343 101.779 37.2044 101.527 36.5866C101.277 35.9689 101.215 35.2912 101.35 34.6385C101.485 33.986 101.811 33.3878 102.287 32.9192C102.763 32.4507 103.367 32.1328 104.023 32.0055C104.68 31.8783 105.36 31.9473 105.977 32.204C106.595 32.4606 107.122 32.8935 107.493 33.448C107.864 34.0025 108.062 34.6539 108.062 35.3202C108.077 35.7709 107.998 36.2198 107.83 36.6387C107.663 37.0576 107.41 37.4376 107.088 37.7546C106.767 38.0717 106.382 38.3191 105.96 38.4814C105.537 38.6435 105.086 38.7171 104.633 38.6973ZM104.633 37.2804C105.51 37.2804 106.355 36.6428 106.355 35.3438C106.355 34.045 105.534 33.4074 104.657 33.4074C103.779 33.4074 102.987 34.0308 102.987 35.3438C102.987 36.6569 103.746 37.2804 104.633 37.2804Z" fill="#006D69"/>
<path d="M113.881 34.9753C113.881 33.9268 113.302 33.3601 112.425 33.3601C111.548 33.3601 110.94 33.9268 110.94 34.9753V38.5887H109.285V32.047H110.95V32.8641C111.188 32.5705 111.49 32.3359 111.834 32.1785C112.178 32.0211 112.554 31.9454 112.932 31.9573C114.459 31.9573 115.55 32.9444 115.55 34.7534V38.5887H113.891L113.881 34.9753Z" fill="#006D69"/>
</g>
<defs>
<clipPath id="clip0_1228_360">
<rect width="116" height="39" fill="white"/>
</clipPath>
</defs>
</svg>
