<svg width="59" height="49" viewBox="0 0 59 49" fill="none" xmlns="http://www.w3.org/2000/svg">
<path d="M24.8876 21.9364H0.916504V49H24.8876V21.9364Z" fill="white"/>
<path d="M40.5683 8.72913H16.5972V48.1563H40.5683V8.72913Z" fill="#006D68"/>
<path d="M58.1449 0H34.1738V48.1239H58.1449V0Z" fill="#AECC53"/>
<path d="M58.1451 46.4689H0.916504V49H58.1451V46.4689Z" fill="white"/>
<path d="M46.1593 29.5947C42.946 29.5947 40.3433 26.9662 40.3433 23.7212C40.3433 20.7033 45.1311 14.4079 45.6773 13.694C45.9022 13.402 46.4164 13.402 46.6413 13.694C47.1876 14.3755 52.0075 20.6708 52.0075 23.6887C52.0075 26.9338 49.3726 29.5947 46.1593 29.5947ZM46.1593 15.0894C44.5205 17.296 41.5643 21.7093 41.5643 23.6887C41.5643 26.2523 43.6208 28.3291 46.1593 28.3291C48.6978 28.3291 50.7543 26.2523 50.7543 23.6887C50.7543 21.7093 47.7981 17.296 46.1593 15.0894Z" fill="white"/>
<path d="M46.1594 33.0669C45.8059 33.0669 45.5488 32.7749 45.5488 32.4504V23.202C45.5488 22.8451 45.838 22.5854 46.1594 22.5854C46.4807 22.5854 46.7699 22.8775 46.7699 23.202V32.4504C46.7699 32.7749 46.5128 33.0669 46.1594 33.0669Z" fill="white"/>
</svg>
