<svg width="257" height="606" viewBox="0 0 257 606" fill="none" xmlns="http://www.w3.org/2000/svg">
<path d="M308.475 55.0706C291.231 50.3107 268.362 54.7066 252.309 60.7107C229.396 69.3124 208.071 88.4404 201.867 112.131C194.228 141.592 177.649 150.44 155.262 168.736C137.742 183.097 123.231 200.901 113.918 221.574C79.1177 299.133 103.991 380.101 159.027 442.707C177.325 463.518 197.194 482.877 215.962 503.334C230.065 518.734 256.139 539.48 255.048 561.507" stroke="#ADCB53" stroke-miterlimit="10"/>
<path d="M359.661 320.304C344.783 306.459 327.343 295.133 314.769 289.148C285.981 275.448 239.003 270.626 213.52 292.011C180.959 319.312 189.602 361.9 214.784 392.948C233.769 416.276 262.493 424.098 292.246 423.892C318.488 423.743 346.377 418.956 368.358 404.523C379.133 397.455 389.275 387.149 389.911 374.171C390.85 355.79 376.945 336.397 359.661 320.304Z" stroke="#ADCB53" stroke-miterlimit="10"/>
<path d="M285.269 457.105C320.724 460.248 362.905 454.983 393.304 436.608C405.685 429.09 421.424 414.849 422.118 398.985C425.319 321.686 339.706 234.024 263.374 231.129C221.245 229.534 178.229 247.168 160.281 286.616C146.729 316.348 146.097 352.446 160.605 382.441C182.591 427.939 234.994 452.642 285.269 457.105Z" stroke="#ADCB53" stroke-miterlimit="10"/>
</svg>
