<svg width="196" height="121" viewBox="0 0 196 121" fill="none" xmlns="http://www.w3.org/2000/svg">
<path d="M129.664 99.7325C128.832 99.7325 128.001 99.5741 127.188 99.1999C121.716 96.6667 122.204 90.0504 122.591 84.7345C122.755 82.5227 122.905 80.4356 122.654 78.8571C122.044 75.0381 122.755 72.1642 125.187 68.609C127.014 65.9462 129.683 63.6289 133.585 61.3259C134.325 60.8893 135.171 60.4911 136.065 60.0737C138.125 59.1093 140.257 58.1114 141.267 56.5377C142.35 54.8537 143.743 53.4143 145.406 52.2628C148.22 50.3149 151.517 49.3793 154.935 49.5616C156.637 49.6528 158.189 48.7892 158.986 47.3067C159.958 45.5075 161.307 44.001 163.004 42.8255C171.059 37.2504 185.046 37.5431 192.941 43.4492C194.628 44.7111 196.233 46.9036 195.189 48.9283C194.647 49.9743 193.569 50.526 192.598 50.9626C192.114 51.1785 191.611 51.3944 191.099 51.6151C188.512 52.7234 185.577 53.9805 183.885 56.0579C183.126 56.9887 182.551 58.001 181.995 58.9846C180.999 60.7358 179.974 62.5446 177.881 63.9935C176.184 65.169 174.288 65.9078 172.253 66.1861C170.575 66.4164 169.222 67.5631 168.719 69.1799C167.708 72.4233 165.683 75.1724 162.869 77.1155C161.206 78.267 159.364 79.0682 157.396 79.4904C155.916 79.8119 154.708 80.9106 154.244 82.3691C153.006 86.241 150.569 89.5179 147.204 91.8448C145.672 92.9052 144.337 93.2074 142.93 93.5241C142.432 93.6344 141.92 93.7544 141.378 93.9079C139.884 94.3349 138.502 95.3808 137.167 96.3932C136.679 96.7626 136.176 97.1416 135.683 97.4871C134.063 98.6146 131.878 99.7325 129.664 99.7325ZM154.113 50.9866C151.29 50.9866 148.582 51.831 146.237 53.4527C144.729 54.4938 143.472 55.794 142.49 57.3197C141.258 59.2389 138.826 60.3807 136.684 61.3835C135.823 61.7865 135.011 62.1703 134.325 62.5733C130.611 64.7659 128.088 66.9442 126.386 69.4246C124.152 72.6824 123.529 75.1772 124.085 78.6365C124.365 80.3781 124.205 82.5467 124.036 84.8448C123.659 89.9737 123.229 95.7886 127.798 97.8997C130.268 99.0416 133.28 97.3959 134.856 96.3164C135.325 95.995 135.794 95.6399 136.287 95.2657C137.728 94.1718 139.222 93.0395 140.977 92.5405C141.557 92.3774 142.089 92.2574 142.606 92.1375C143.931 91.84 145.072 91.581 146.373 90.679C149.472 88.5343 151.715 85.5117 152.861 81.9469C153.485 80.0038 155.104 78.5309 157.086 78.0991C158.866 77.7153 160.529 76.9908 162.037 75.9497C164.585 74.1889 166.413 71.7036 167.331 68.7673C167.994 66.6467 169.845 65.0778 172.05 64.7707C173.858 64.5213 175.541 63.864 177.049 62.8228C178.872 61.561 179.776 59.9729 180.728 58.2841C181.313 57.2525 181.918 56.1875 182.754 55.1607C184.673 52.805 187.782 51.476 190.523 50.3005C191.031 50.0846 191.524 49.8735 192.003 49.6576C192.781 49.3074 193.569 48.9139 193.898 48.2806C194.575 46.966 193.066 45.3492 192.071 44.6055C184.625 39.0352 171.431 38.7618 163.836 44.0154C162.327 45.0565 161.128 46.3951 160.268 47.9928C159.219 49.9407 157.086 51.1257 154.858 51.0058C154.611 50.9914 154.364 50.9866 154.113 50.9866Z" fill="#ADCB53"/>
<path d="M123.118 120.608C123.113 120.608 123.108 120.608 123.103 120.608C122.702 120.598 122.383 120.272 122.392 119.874C122.682 105.389 127.638 90.5062 135.644 80.0661C145.976 66.5891 159.721 55.9379 175.4 49.2641C175.768 49.1058 176.193 49.2737 176.353 49.6432C176.512 50.0078 176.338 50.43 175.971 50.5883C160.524 57.1661 146.977 67.6638 136.8 80.9394C128.972 91.1491 124.128 105.715 123.843 119.907C123.833 120.296 123.509 120.608 123.118 120.608Z" fill="#ADCB53"/>
<path d="M66.0537 99.7325C66.8852 99.7325 67.7168 99.5741 68.529 99.1999C74.0019 96.6667 73.5136 90.0504 73.1269 84.7345C72.9625 82.5227 72.8126 80.4356 73.064 78.8571C73.6732 75.0381 72.9625 72.1642 70.5306 68.609C68.7031 65.9462 66.0343 63.6289 62.1327 61.3259C61.393 60.8893 60.5469 60.4911 59.6525 60.0737C57.5929 59.1093 55.4608 58.1114 54.4503 56.5377C53.3673 54.8537 51.9749 53.4143 50.3118 52.2628C47.498 50.3149 44.2007 49.3793 40.7825 49.5616C39.0807 49.6528 37.5288 48.7892 36.731 47.3067C35.7593 45.5075 34.4104 44.001 32.7134 42.8255C24.6587 37.2504 10.6719 37.5431 2.77676 43.4492C1.08944 44.7111 -0.515704 46.9036 0.528596 48.9283C1.07009 49.9743 2.14822 50.526 3.12 50.9626C3.60348 51.1785 4.1063 51.3944 4.61879 51.6151C7.20536 52.7234 10.14 53.9805 11.8322 56.0579C12.5912 56.9887 13.1666 58.001 13.7226 58.9846C14.7185 60.7358 15.7435 62.5446 17.8369 63.9935C19.5339 65.169 21.4291 65.9078 23.4645 66.1861C25.1422 66.4164 26.4959 67.5631 26.9987 69.1799C28.0092 72.4233 30.035 75.1724 32.8488 77.1155C34.5119 78.267 36.3539 79.0682 38.3216 79.4904C39.8011 79.8119 41.0098 80.9106 41.4739 82.3691C42.7116 86.241 45.1483 89.5179 48.5133 91.8448C50.0459 92.9052 51.3803 93.2074 52.7872 93.5241C53.2851 93.6344 53.7976 93.7544 54.3391 93.9079C55.833 94.3349 57.2158 95.3808 58.5502 96.3932C59.0385 96.7626 59.5413 97.1416 60.0344 97.4871C61.6541 98.6146 63.8394 99.7325 66.0537 99.7325ZM41.6044 50.9866C44.4279 50.9866 47.1354 51.831 49.4802 53.4527C50.9886 54.4938 52.2457 55.794 53.2271 57.3197C54.46 59.2389 56.8918 60.3807 59.0336 61.3835C59.8942 61.7865 60.7064 62.1703 61.393 62.5733C65.106 64.7659 67.6298 66.9442 69.3316 69.4246C71.5652 72.6824 72.1889 75.1772 71.6329 78.6365C71.3525 80.3781 71.5121 82.5467 71.6813 84.8448C72.0584 89.9737 72.4887 95.7886 67.9199 97.8997C65.4493 99.0416 62.4373 97.3959 60.8612 96.3164C60.3922 95.995 59.9232 95.6399 59.4301 95.2657C57.9893 94.1718 56.4954 93.0395 54.7404 92.5405C54.1602 92.3774 53.6284 92.2574 53.1111 92.1375C51.7864 91.84 50.6454 91.581 49.3448 90.679C46.2458 88.5343 44.0025 85.5117 42.8566 81.9469C42.2329 80.0038 40.6133 78.5309 38.6311 78.0991C36.8519 77.7153 35.1888 76.9908 33.6803 75.9497C31.1324 74.1889 29.3049 71.7036 28.3863 68.7673C27.7239 66.6467 25.8722 65.0778 23.6676 64.7707C21.8594 64.5213 20.1769 63.864 18.6685 62.8228C16.8458 61.561 15.9417 59.9729 14.9893 58.2841C14.4043 57.2525 13.7999 56.1875 12.9635 55.1607C11.0441 52.805 7.93541 51.476 5.19412 50.3005C4.68647 50.0846 4.19333 49.8735 3.71469 49.6576C2.9363 49.3074 2.14822 48.9139 1.81946 48.2806C1.1426 46.966 2.65105 45.3492 3.647 44.6055C11.0925 39.0352 24.2865 38.7618 31.8818 44.0154C33.3903 45.0565 34.5893 46.3951 35.4498 47.9928C36.499 49.9407 38.6311 51.1257 40.8599 51.0058C41.1065 50.9914 41.353 50.9866 41.6044 50.9866Z" fill="#ADCB53"/>
<path d="M72.6 120.608C72.6049 120.608 72.6097 120.608 72.6145 120.608C73.0158 120.598 73.3349 120.272 73.3252 119.874C73.0351 105.389 68.0796 90.5062 60.0732 80.0661C49.7414 66.5891 35.9963 55.9379 20.3172 49.2641C19.9498 49.1058 19.5244 49.2737 19.3648 49.6432C19.2053 50.0078 19.3793 50.43 19.7468 50.5883C35.1937 57.1661 48.7406 67.6638 58.9177 80.9394C66.7452 91.1491 71.5896 105.715 71.8748 119.907C71.8845 120.296 72.2084 120.608 72.6 120.608Z" fill="#ADCB53"/>
<path d="M97.064 82.8009C94.2647 82.8009 90.0295 80.3683 86.2826 76.602C84.0151 74.3231 78.7549 68.3018 78.8371 61.5513C78.8758 58.5766 79.6445 55.6308 81.0708 53.0304C81.5301 52.1907 82.0619 51.3799 82.6517 50.6218C83.5848 49.4176 83.8024 47.8055 83.2174 46.4189C82.4438 44.5766 82.0522 42.6191 82.0522 40.604C82.0522 37.1975 83.1642 33.983 85.2673 31.301C86.3164 29.9672 86.4905 28.2112 85.7218 26.7143C84.7887 24.8959 84.3149 22.9336 84.3149 20.8801C84.3149 16.9843 86.7177 11.6251 88.9659 7.9068C90.0875 6.05005 94.0037 0 97.3155 0C102.9 0 110.316 14.3263 110.316 20.8801C110.316 22.9336 109.842 24.8959 108.909 26.7143C108.14 28.2112 108.314 29.9672 109.364 31.301C111.467 33.983 112.579 37.1975 112.579 40.604C112.579 42.6191 112.187 44.5718 111.414 46.4189C110.833 47.8055 111.051 49.4224 111.989 50.6315C114.479 53.8556 115.794 57.7082 115.794 61.7816C115.799 72.2073 104.901 82.8009 97.064 82.8009ZM82.3423 53.7164C81.0321 56.1106 80.3166 58.8261 80.2876 61.5657C80.2344 65.8741 82.8644 71.1133 87.3172 75.5897C90.7547 79.0441 94.6709 81.3615 97.0689 81.3615C104.21 81.3615 114.353 71.2333 114.353 61.7768C114.353 58.0249 113.14 54.4745 110.848 51.5046C109.596 49.8878 109.306 47.724 110.084 45.8624C110.785 44.1928 111.138 42.4224 111.138 40.604C111.138 37.5238 110.132 34.6115 108.227 32.1886C106.854 30.4374 106.617 28.0337 107.623 26.0618C108.45 24.4449 108.87 22.7033 108.87 20.8801C108.87 13.9761 101.42 1.43935 97.3203 1.43935C93.8683 1.43935 85.7701 13.9953 85.7701 20.8801C85.7701 22.7033 86.1907 24.4497 87.0175 26.0618C88.0279 28.0289 87.791 30.4374 86.4131 32.1886C84.5083 34.6115 83.5026 37.5238 83.5026 40.604C83.5026 42.4272 83.8556 44.1976 84.5566 45.8624C85.3398 47.724 85.0498 49.883 83.8024 51.4951C83.2561 52.1907 82.7678 52.9392 82.3423 53.7164Z" fill="#ADCB53"/>
<path d="M97.3155 113.694C96.9143 113.694 96.5903 113.373 96.5903 112.974V16.2359C96.5903 15.8377 96.9143 15.5162 97.3155 15.5162C97.7168 15.5162 98.0408 15.8377 98.0408 16.2359V112.974C98.0408 113.373 97.7168 113.694 97.3155 113.694Z" fill="#ADCB53"/>
</svg>
