<svg width="239" height="589" viewBox="0 0 239 589" fill="none" xmlns="http://www.w3.org/2000/svg">
<path d="M-61.1981 53.4957C-44.4364 48.8688 -22.2064 53.1418 -6.6017 58.9781C15.6709 67.3394 36.3999 85.9328 42.4302 108.961C49.8562 137.599 65.9718 146.2 87.7327 163.985C104.764 177.944 118.869 195.251 127.922 215.346C161.749 290.737 137.571 369.442 84.0733 430.299C66.2869 450.529 46.9733 469.347 28.7294 489.232C15.0206 504.202 -10.3249 524.367 -9.26428 545.779" stroke="#ADCB53" stroke-miterlimit="10"/>
<path d="M-110.954 311.316C-96.4914 297.859 -79.5388 286.849 -67.3164 281.031C-39.3333 267.714 6.33151 263.027 31.1032 283.815C62.7538 310.352 54.3523 351.75 29.8741 381.931C11.42 404.606 -16.502 412.21 -45.4231 412.01C-70.9319 411.864 -98.0415 407.212 -119.408 393.182C-129.882 386.311 -139.74 376.294 -140.358 363.678C-141.271 345.811 -127.755 326.959 -110.954 311.316Z" stroke="#ADCB53" stroke-miterlimit="10"/>
<path d="M-38.6412 444.295C-73.1047 447.35 -114.107 442.232 -143.657 424.371C-155.691 417.062 -170.991 403.22 -171.665 387.799C-174.777 312.66 -91.5566 227.448 -17.3579 224.634C23.5942 223.083 65.4076 240.225 82.8546 278.57C96.0279 307.471 96.6422 342.56 82.5392 371.717C61.168 415.944 10.2294 439.956 -38.6412 444.295Z" stroke="#ADCB53" stroke-miterlimit="10"/>
</svg>
