<svg width="277" height="289" viewBox="0 0 277 289" fill="none" xmlns="http://www.w3.org/2000/svg">
<path d="M249.277 68.9576C251.046 69.3571 252.872 69.8137 254.642 70.2132C252.359 71.4687 250.076 72.7814 247.793 74.0941" fill="#374151"/>
<path d="M249.277 68.9576C251.046 69.3571 252.872 69.8137 254.642 70.2132C252.359 71.4687 250.076 72.7814 247.793 74.0941" fill="#ADCB53"/>
<path d="M234.552 71.4687C226.22 71.4117 214.292 71.4687 214.292 71.697C214.292 79.5159 220.626 85.8509 228.445 85.8509C234.095 85.8509 238.947 82.5407 241.229 77.8037C237.805 77.4042 235.123 74.7789 234.552 71.4687Z" fill="white"/>
<path d="M234.438 70.2132C234.438 69.0146 234.723 67.8732 235.237 66.903C230.386 61.3099 224.679 54.9749 224.564 55.0891C219.028 59.9402 218.458 68.3869 223.366 73.9228C227.361 78.4886 233.81 79.63 239.061 77.1759C236.321 76.0345 234.438 73.3521 234.438 70.2132Z" fill="#AECC53"/>
<path d="M242.029 78.4315C237.52 78.4315 233.811 74.7218 233.811 70.2132C233.811 65.7045 237.52 61.9948 242.029 61.9948C246.538 61.9948 250.247 65.7045 250.247 70.2132C250.247 74.7218 246.538 78.4315 242.029 78.4315ZM242.029 63.3075C238.205 63.3075 235.123 66.3893 235.123 70.2132C235.123 74.037 238.205 77.1189 242.029 77.1189C245.853 77.1189 248.935 74.037 248.935 70.2132C248.935 66.3893 245.853 63.3075 242.029 63.3075Z" fill="#ADCB53"/>
<path d="M86.1077 288.913H36.0556C35.4849 288.913 35.0283 288.456 35.0283 287.886C35.0283 287.315 35.4849 286.858 36.0556 286.858H86.1077C86.6784 286.858 87.135 287.315 87.135 287.886C87.135 288.456 86.6784 288.913 86.1077 288.913Z" fill="#ADCB53"/>
<path d="M58.9419 288.285C58.4283 288.285 57.9717 287.829 57.9717 287.315V267.853C57.9717 267.34 58.4283 266.883 58.9419 266.883C59.4556 266.883 59.9121 267.34 59.9121 267.853V287.315C59.8551 287.829 59.4556 288.285 58.9419 288.285Z" fill="#ADCB53"/>
<path d="M62.5373 268.025C62.5373 266.027 60.9392 264.429 58.9417 264.429C56.9442 264.429 55.3462 266.027 55.3462 268.025C55.3462 270.022 56.9442 271.62 58.9417 271.62C60.8822 271.62 62.5373 270.022 62.5373 268.025Z" fill="#ADCB53"/>
<path d="M24.4132 288.913H1.5273C0.956576 288.913 0.5 288.456 0.5 287.886C0.5 287.315 0.956576 286.858 1.5273 286.858H24.4132C24.9839 286.858 25.4404 287.315 25.4404 287.886C25.4404 288.456 24.9839 288.913 24.4132 288.913Z" fill="#ADCB53"/>
<path d="M164.068 101.26H191.52C191.976 98.8062 192.205 96.295 192.205 93.6697C192.205 91.7293 191.919 89.4464 191.406 86.9923H164.125C161.158 86.9923 158.761 84.5953 158.761 81.6276C158.761 78.6598 161.158 76.2628 164.125 76.2628H188.267C186.669 71.8112 184.671 66.9601 182.445 61.9948H164.125C161.158 61.9948 158.761 59.5978 158.761 56.63C158.761 53.6623 161.158 51.2653 164.125 51.2653H165.438C165.837 51.4365 166.066 51.4936 166.123 51.2653H177.423C175.026 46.4712 172.572 41.6201 170.118 36.9973H169.775H164.182C161.215 36.9973 158.818 34.6003 158.818 31.6325C158.818 28.6648 161.215 26.2677 164.182 26.2677H164.297C156.021 11.7144 149.287 0.870728 149.287 0.870728C149.287 0.870728 149.23 0.984871 149.115 1.15609C149.001 0.984871 148.944 0.870728 148.944 0.870728C148.944 0.870728 142.21 11.7144 134.105 26.3248H134.22C137.187 26.3248 139.584 28.7218 139.584 31.6896C139.584 34.6573 137.187 37.0544 134.22 37.0544H128.627H128.284C125.83 41.6772 123.319 46.5283 120.979 51.3223H134.277C137.244 51.3223 139.641 53.7194 139.641 56.6871C139.641 59.6548 137.244 62.0519 134.277 62.0519H115.957C113.731 67.0171 111.733 71.8682 110.135 76.3199H134.277C137.244 76.3199 139.641 78.7169 139.641 81.6846C139.641 84.6524 137.244 87.0494 134.277 87.0494H106.996C106.483 89.5606 106.197 91.7864 106.197 93.7268C106.197 96.295 106.426 98.8633 106.882 101.317H134.334C137.301 101.317 139.699 103.714 139.699 106.682C139.699 109.65 137.301 112.047 134.334 112.047H110.364C116.413 124.831 128.569 134.134 143.066 136.131C144.949 136.131 152.026 136.474 155.45 136.131C169.947 134.077 182.103 124.774 188.153 112.047H164.182C161.215 112.047 158.818 109.65 158.818 106.682C158.703 103.657 161.1 101.26 164.068 101.26Z" fill="#ADCB53"/>
<path d="M149.116 200.394C148.602 200.394 148.203 199.995 148.203 199.481V82.4836C148.203 81.97 148.602 81.5705 149.116 81.5705C149.629 81.5705 150.029 81.97 150.029 82.4836V199.481C150.029 199.995 149.629 200.394 149.116 200.394Z" fill="white"/>
<path d="M48.0407 171.63C41.4204 171.63 34.8 170.203 28.6363 167.464C28.408 167.35 28.2367 167.293 28.0085 167.178C16.7653 161.928 8.20449 152.568 3.86702 140.925C-0.470447 129.283 -0.013871 116.613 5.12261 105.255C15.7951 81.6276 43.7032 71.1263 67.331 81.7988C90.9588 92.4712 101.46 120.379 90.7876 144.007C88.3335 149.429 84.9663 154.223 80.743 158.332L79.9439 157.533C84.0531 153.538 87.3633 148.801 89.7603 143.551C100.204 120.494 89.8745 93.2702 66.8745 82.8831C43.8174 72.439 16.5941 82.769 6.20697 105.769C1.18464 116.841 0.785136 129.169 5.00846 140.583C9.23179 151.94 17.5643 161.072 28.5221 166.208C28.7504 166.322 28.9216 166.379 29.1499 166.494C38.7951 170.831 49.7529 171.744 59.9117 169.005L60.197 170.089C56.202 171.059 52.0928 171.63 48.0407 171.63ZM47.9266 150.856C44.331 150.856 40.6784 150.114 37.14 148.516C30.7479 145.605 25.8397 140.412 23.3856 133.848C20.9315 127.285 21.1598 120.151 24.0134 113.759C26.9241 107.367 32.1176 102.459 38.6809 100.005C45.2442 97.5506 52.3782 97.7789 58.7702 100.633C65.1623 103.543 70.0705 108.737 72.5246 115.3C74.9787 121.863 74.7504 128.997 71.8968 135.389C67.5593 145.092 57.9712 150.856 47.9266 150.856ZM47.9836 99.4911C45.0159 99.4911 41.9911 100.062 39.0804 101.146C32.8025 103.543 27.8372 108.166 25.0407 114.273C22.2442 120.379 22.073 127.228 24.4129 133.506C26.7529 139.784 31.4328 144.749 37.5395 147.546C50.1524 153.253 65.0482 147.603 70.7554 134.99C73.4948 128.883 73.7231 122.035 71.3831 115.757C68.9861 109.479 64.3633 104.513 58.2566 101.717C55.0606 100.233 51.5221 99.4911 47.9836 99.4911Z" fill="#C8D3DD"/>
<path d="M37.4256 148.002C24.4702 142.181 18.763 126.943 24.5844 114.044C25.9541 111.077 27.7804 108.451 30.0062 106.34C26.8102 100.119 22.8722 94.2975 18.706 88.6474C13.2841 93.0419 8.77544 98.7491 5.69356 105.541C-4.75061 128.712 5.35112 155.935 28.2941 166.722C28.5223 166.836 29.3213 167.178 29.3213 167.178L37.8821 148.231C37.8251 148.173 37.5397 148.059 37.4256 148.002Z" fill="white"/>
<path d="M29.4356 167.464L29.1502 167.35C29.1502 167.35 28.3512 167.007 28.1229 166.893C16.9368 161.642 8.43309 152.397 4.1527 140.811C-0.127701 129.226 0.328876 116.613 5.40828 105.369C8.43309 98.6921 12.8276 92.9849 18.4778 88.362L18.706 88.1908L18.8773 88.4191C23.7284 94.9824 27.3239 100.633 30.2346 106.168L30.3487 106.34L30.1775 106.511C27.9517 108.737 26.1254 111.305 24.8698 114.159C22.0733 120.322 21.845 127.228 24.242 133.563C26.639 139.898 31.376 144.92 37.5398 147.717C37.6539 147.774 37.9393 147.888 37.9393 147.888L38.2247 148.002L29.4356 167.464ZM18.5919 88.9898C13.113 93.4985 8.8326 99.0916 5.92193 105.598C0.899594 116.727 0.443019 129.168 4.66634 140.64C8.88967 152.054 17.2792 161.243 28.3512 166.436C28.4654 166.494 28.8649 166.665 29.0931 166.779L37.4256 148.402C37.3686 148.402 37.3115 148.345 37.2544 148.345C30.9194 145.491 26.1254 140.355 23.6713 133.848C21.2172 127.342 21.4455 120.322 24.2991 113.987C25.6118 111.134 27.381 108.566 29.6068 106.34C26.8103 100.861 23.3289 95.3819 18.5919 88.9898Z" fill="white"/>
<path d="M29.664 81.9129C29.664 81.9129 29.0362 82.1983 28.7509 82.3124C19.6764 86.4216 11.8576 93.4985 6.8923 102.915C6.43573 103.714 5.63672 105.427 5.63672 105.427L24.5275 113.987C27.1528 108.166 31.6615 103.829 36.9692 101.317C37.1975 101.203 37.7682 100.975 37.7682 100.975L29.664 81.9129Z" fill="#ADCB53"/>
<path d="M24.7555 114.387L5.29395 105.598L5.40809 105.312C5.40809 105.312 6.2071 103.6 6.66367 102.744C11.5148 93.4985 19.1054 86.3075 28.6364 82.0271C28.9217 81.9129 29.5495 81.6276 29.5495 81.6276L29.8349 81.5134L38.2245 101.146L37.9391 101.26C37.9391 101.26 37.4255 101.489 37.1972 101.603C31.7183 104.171 27.3808 108.623 24.8696 114.101L24.7555 114.387ZM6.03588 105.312L24.4701 113.645C27.0384 108.109 31.4329 103.714 36.9689 101.089C37.083 101.032 37.3113 100.918 37.4825 100.861L29.5495 82.3124C29.3212 82.4266 29.093 82.5407 28.9217 82.5978C19.5049 86.8782 12.0284 93.9551 7.23439 103.087C6.83489 103.714 6.32124 104.799 6.03588 105.312Z" fill="#ADCB53"/>
<path d="M167.664 175.454L173.257 182.017V287.543L168.177 280.98L167.664 175.454Z" fill="white"/>
<path d="M228.217 151.484L233.297 157.99V287.886L228.217 281.322V151.484Z" fill="white"/>
<path d="M228.217 151.484L233.297 157.99L276.044 157.59L268.91 151.484H228.217Z" fill="#ADCB53"/>
<path d="M173.143 287.943C173.029 287.943 172.914 287.886 172.8 287.829C172.686 287.714 172.686 287.6 172.686 287.486L172.229 181.846C172.229 181.732 172.287 181.618 172.344 181.503C172.458 181.389 172.572 181.389 172.686 181.389H214.805C215.033 181.389 215.262 181.618 215.262 181.846L215.661 287.087C215.661 287.315 215.433 287.543 215.205 287.543L173.143 287.943ZM173.2 182.36L173.656 287.03L214.805 286.687L214.349 182.36H173.2Z" fill="#ADCB53"/>
<path d="M186.954 197.369C179.934 197.369 177.252 191.263 174.855 185.784C174.341 184.585 173.828 183.501 173.314 182.474L174.17 182.074C174.684 183.159 175.197 184.243 175.711 185.441C178.222 191.149 180.79 197.027 188.039 196.399C191.634 196.057 194.145 193.26 194.944 190.749C195.857 187.896 195.23 184.871 194.431 182.017L195.344 181.789C196.143 184.757 196.771 187.953 195.857 191.035C194.773 194.402 191.634 197.027 188.153 197.312C187.696 197.312 187.297 197.369 186.954 197.369Z" fill="#ADCB53"/>
<path d="M180.162 209.469C179.592 209.469 178.964 209.412 178.393 209.298C176.11 208.727 173.942 206.33 172.629 204.903L173.314 204.275C174.512 205.645 176.567 207.928 178.564 208.441C179.535 208.67 180.619 208.613 181.589 208.499C182.845 208.384 184.1 208.213 185.242 207.7C185.927 207.357 186.269 206.901 186.612 206.387C186.84 206.044 187.068 205.702 187.468 205.36C187.753 205.074 187.924 204.903 188.038 204.789C188.267 204.503 188.324 204.503 188.723 204.332C188.837 204.275 189.066 204.218 189.351 204.104C190.492 203.59 191.748 203.419 192.947 203.191C194.202 202.963 195.401 202.734 196.542 202.221C203.961 198.853 204.532 189.665 204.133 182.017L205.046 181.96C205.445 189.893 204.875 199.424 196.884 203.02C195.629 203.59 194.316 203.819 193.061 204.047C191.862 204.275 190.721 204.446 189.636 204.903C189.351 205.017 189.18 205.074 189.009 205.131C188.78 205.245 188.78 205.245 188.666 205.36C188.552 205.474 188.381 205.645 188.095 205.987C187.81 206.273 187.582 206.558 187.353 206.901C186.954 207.471 186.554 208.099 185.584 208.556C184.329 209.183 182.902 209.298 181.589 209.469C181.247 209.469 180.733 209.469 180.162 209.469Z" fill="#ADCB53"/>
<path d="M173.485 242.513C173.257 242.513 173.028 242.342 173.028 242.114C173.028 241.886 173.2 241.657 173.428 241.6C176.681 241.258 179.763 239.203 181.932 235.95C183.016 234.295 183.815 232.526 184.557 230.757C185.128 229.501 185.698 228.188 186.383 226.933C188.038 223.851 190.378 221.111 193.232 218.714C194.944 217.288 197.056 216.774 198.939 217.231C200.594 217.687 201.907 218.886 202.592 220.712C202.649 220.826 202.649 220.94 202.706 221.054C202.82 221.397 202.934 221.682 203.105 221.91C203.676 222.652 204.874 222.595 205.559 222.538C209.897 221.968 213.892 217.63 214.463 212.836C214.52 212.608 214.748 212.379 214.976 212.436C215.204 212.494 215.433 212.722 215.376 212.95C214.748 218.258 210.468 222.881 205.616 223.451C204.532 223.566 203.105 223.508 202.306 222.481C202.021 222.139 201.907 221.739 201.793 221.397C201.736 221.283 201.736 221.168 201.678 221.111C201.108 219.57 200.023 218.6 198.654 218.201C197.056 217.801 195.229 218.258 193.745 219.456C190.949 221.739 188.723 224.422 187.125 227.389C186.44 228.588 185.87 229.901 185.356 231.156C184.557 232.925 183.758 234.809 182.673 236.521C180.391 239.945 177.08 242.171 173.485 242.513Z" fill="#ADCB53"/>
<path d="M173.143 262.146C172.914 262.146 172.686 261.918 172.686 261.69C172.686 261.461 172.914 261.233 173.143 261.233C181.418 261.176 183.872 253.928 186.269 246.908C187.411 243.598 188.495 240.459 190.15 237.948C192.033 235.094 194.716 233.268 197.512 232.925C200.823 232.469 204.133 234.466 204.989 237.32C205.16 237.891 205.217 238.461 205.331 239.032C205.445 240.116 205.617 241.144 206.301 241.829C206.815 242.399 207.671 242.628 208.413 242.799C211.095 243.427 212.808 240.915 214.177 238.918L214.349 238.633C214.52 238.404 214.805 238.347 214.976 238.518C215.205 238.69 215.262 238.975 215.09 239.146L214.919 239.432C213.435 241.543 211.438 244.511 208.185 243.712C207.329 243.484 206.358 243.198 205.617 242.513C204.703 241.6 204.589 240.402 204.418 239.203C204.361 238.633 204.247 238.119 204.133 237.605C203.448 235.151 200.537 233.496 197.684 233.838C195.172 234.181 192.775 235.836 191.006 238.461C189.408 240.858 188.381 243.94 187.239 247.193C184.671 254.499 182.103 262.089 173.143 262.146Z" fill="#ADCB53"/>
<path d="M178.621 277.27C176.396 277.27 174.284 276.757 172.743 275.729C172.515 275.558 172.458 275.273 172.629 275.102C172.8 274.873 173.085 274.816 173.257 274.987C176.167 276.985 181.875 276.814 184.842 274.645C186.669 273.275 187.125 271.335 187.582 269.28C187.81 268.31 188.038 267.283 188.438 266.312C190.435 261.461 197.17 253.357 204.133 255.925C205.388 256.382 206.53 257.58 207.614 258.722C210.011 261.29 211.666 262.66 214.12 260.491C214.291 260.32 214.634 260.32 214.748 260.548C214.919 260.719 214.919 261.062 214.691 261.176C211.381 264.087 208.927 261.461 206.872 259.35C205.788 258.208 204.817 257.181 203.733 256.781C197.341 254.441 191.12 262.089 189.18 266.655C188.837 267.511 188.609 268.481 188.381 269.451C187.924 271.563 187.41 273.789 185.299 275.33C183.701 276.585 181.133 277.27 178.621 277.27Z" fill="#ADCB53"/>
<path d="M173.428 235.208L172.971 234.409C177.651 231.67 179.82 228.474 182.788 224.022L183.016 223.737C183.701 222.767 185.128 220.198 184.1 217.858C183.073 215.29 179.82 214.548 178.507 214.377C177.137 214.149 174.455 214.32 173.085 214.491L172.971 213.578C174.398 213.407 177.195 213.235 178.621 213.464C181.76 213.92 184.043 215.404 184.956 217.516C185.755 219.456 185.356 221.91 183.758 224.307L183.53 224.593C180.505 229.044 178.336 232.355 173.428 235.208Z" fill="#ADCB53"/>
<path d="M189.123 287.486L188.495 286.801C189.522 285.774 190.321 284.404 190.949 282.635C191.52 280.866 191.862 278.925 192.148 277.042C192.604 274.188 193.061 271.278 194.545 268.709C195.743 266.769 197.398 265.285 199.339 264.6C201.508 263.801 203.847 263.972 205.674 265.114C208.927 267.111 209.669 271.278 210.011 275.444C210.068 276.3 210.068 277.327 210.068 278.412C210.068 281.436 210.068 284.861 211.495 286.801L210.753 287.372C209.155 285.203 209.155 281.608 209.155 278.412C209.155 277.384 209.155 276.357 209.098 275.558C208.813 271.62 208.128 267.682 205.217 265.913C203.676 264.943 201.565 264.829 199.738 265.513C198.026 266.141 196.485 267.454 195.401 269.28C193.974 271.677 193.575 274.36 193.118 277.27C192.833 279.154 192.547 281.151 191.919 283.034C191.12 284.861 190.264 286.345 189.123 287.486Z" fill="#ADCB53"/>
<path d="M206.758 211.637C205.902 211.637 205.103 211.352 204.532 210.838C203.448 209.868 203.334 208.327 203.391 207.186C203.505 205.873 203.904 204.561 204.475 203.362C205.502 201.307 207.157 199.652 208.755 198.111C209.041 197.826 209.326 197.541 209.612 197.255C210.011 196.856 210.525 196.399 210.924 196C212.465 194.63 214.006 193.203 214.349 191.32L215.262 191.491C214.862 193.66 213.207 195.201 211.552 196.685C211.095 197.084 210.639 197.484 210.239 197.883C209.954 198.168 209.669 198.454 209.383 198.739C207.842 200.28 206.244 201.821 205.274 203.762C204.76 204.846 204.418 206.044 204.304 207.243C204.247 208.156 204.304 209.412 205.103 210.154C205.674 210.667 206.587 210.838 207.5 210.61C208.413 210.382 209.269 209.868 210.068 209.412L214.463 206.729L214.976 207.528L210.582 210.211C209.726 210.724 208.813 211.295 207.728 211.523C207.443 211.58 207.1 211.637 206.758 211.637Z" fill="#ADCB53"/>
<path d="M233.525 287.943L233.068 157.647H276.101L276.5 287.486L233.525 287.943ZM233.982 158.618L234.438 287.03L275.587 286.573L275.187 158.561H233.982V158.618Z" fill="#ADCB53"/>
<path d="M235.637 183.672C234.837 183.672 234.096 183.444 233.468 183.044L233.981 182.245C234.895 182.873 235.865 182.816 236.493 182.645C237.52 182.417 238.433 181.732 238.947 180.819C239.46 179.905 239.689 178.878 239.86 177.794C239.917 177.451 239.974 177.052 240.088 176.709C240.545 174.712 241.401 173.399 242.77 172.657C243.912 172.03 245.339 172.201 246.651 172.429C247.45 172.543 248.192 172.657 248.877 172.6C252.473 172.258 254.984 169.461 255.783 166.95C256.696 164.097 256.068 161.072 255.269 158.218L256.182 157.99C256.981 160.958 257.609 164.154 256.696 167.235C255.612 170.603 252.473 173.228 248.991 173.513C248.192 173.57 247.336 173.456 246.537 173.342C245.282 173.171 244.14 173 243.227 173.456C242.143 174.084 241.401 175.168 241.001 176.881C240.944 177.223 240.83 177.566 240.773 177.965C240.545 179.049 240.373 180.248 239.746 181.275C239.118 182.36 237.976 183.216 236.721 183.501C236.321 183.615 235.979 183.672 235.637 183.672Z" fill="#ADCB53"/>
<path d="M235.465 196.228C235.009 196.228 234.495 196.171 233.924 196.057L234.096 195.144C238.433 195.943 240.431 192.975 242.257 189.608C242.485 189.208 242.713 188.809 242.885 188.352C244.54 185.213 246.195 181.903 249.847 180.419C251.046 179.905 252.359 179.677 253.614 179.449C254.984 179.164 256.239 178.935 257.438 178.422C264.857 175.054 265.428 165.866 265.029 158.218L265.942 158.161C266.341 166.094 265.77 175.625 257.78 179.221C256.525 179.791 255.098 180.077 253.785 180.305C252.587 180.533 251.274 180.762 250.19 181.218C246.88 182.588 245.225 185.727 243.684 188.752C243.455 189.151 243.227 189.608 243.056 190.007C241.344 193.203 239.346 196.228 235.465 196.228Z" fill="#ADCB53"/>
<path d="M234.324 218.771L234.209 217.858C239.403 217.345 243.113 212.836 242.77 207.471C242.428 201.764 246.366 196.057 252.301 193.717C254.698 192.747 256.924 192.975 259.093 193.146C261.604 193.374 264.001 193.603 266.569 192.062C273.304 188.124 274.16 183.843 275.13 176.595L276.043 176.709C275.073 184.243 274.16 188.695 267.026 192.804C264.172 194.459 261.547 194.231 258.979 194.002C256.81 193.831 254.812 193.66 252.587 194.516C246.994 196.742 243.284 201.992 243.626 207.357C244.083 213.293 240.031 218.201 234.324 218.771Z" fill="#ADCB53"/>
<path d="M233.981 238.404V237.491C239.004 237.491 245.909 231.841 246.195 226.077C246.252 225.164 246.138 224.25 246.024 223.28C245.967 222.709 245.852 222.082 245.852 221.511C245.567 217.173 247.507 213.178 250.932 211.124C256.468 207.757 259.264 210.268 262.004 212.665C263.488 213.977 265.029 215.347 267.026 215.804C270.108 216.489 273.989 215.119 275.302 212.95L276.101 213.407C274.617 215.918 270.336 217.459 266.855 216.66C264.572 216.146 262.974 214.719 261.376 213.35C258.694 210.953 256.354 208.898 251.388 211.923C247.679 214.149 246.537 218.315 246.766 221.454C246.823 222.025 246.88 222.595 246.937 223.166C247.051 224.136 247.165 225.106 247.108 226.134C246.88 231.441 240.488 238.347 233.981 238.404Z" fill="#ADCB53"/>
<path d="M239.46 253.528C237.235 253.528 235.123 253.015 233.582 251.987L234.096 251.245C237.006 253.243 242.714 253.072 245.681 250.903C247.508 249.533 247.964 247.593 248.421 245.538C248.649 244.568 248.877 243.541 249.277 242.57C251.274 237.719 257.952 229.615 264.972 232.183C266.113 232.583 267.197 233.496 268.282 234.409C270.565 236.35 272.79 238.176 275.53 235.665L276.158 236.35C272.79 239.374 270.051 237.092 267.654 235.094C266.627 234.238 265.599 233.382 264.629 233.039C258.237 230.7 252.016 238.347 250.076 242.913C249.733 243.769 249.505 244.739 249.277 245.709C248.82 247.821 248.307 250.047 246.195 251.588C244.483 252.843 241.972 253.528 239.46 253.528Z" fill="#ADCB53"/>
<path d="M267.654 278.183C267.254 278.183 266.855 278.183 266.455 278.126C262.974 277.841 259.949 276.3 258.351 273.846C257.039 271.848 256.696 269.394 256.582 267.454C256.354 263.972 256.639 260.548 257.438 257.124C258.066 254.441 260.12 247.992 265.656 246.68C266.57 246.451 267.882 246.337 269.081 246.908C269.88 247.307 270.508 247.935 271.078 248.563C271.364 248.905 271.649 249.191 271.991 249.419C273.019 250.275 274.331 250.789 275.701 250.846V251.759C274.16 251.702 272.619 251.131 271.421 250.104C271.078 249.819 270.736 249.476 270.45 249.134C269.88 248.563 269.366 247.992 268.738 247.707C267.768 247.25 266.684 247.365 265.942 247.536C260.976 248.734 259.036 254.784 258.408 257.295C257.609 260.605 257.324 263.972 257.552 267.34C257.666 269.109 257.952 271.449 259.15 273.275C260.577 275.444 263.374 276.871 266.57 277.099C269.48 277.327 272.391 276.642 275.359 275.843L275.587 276.757C272.905 277.556 270.279 278.183 267.654 278.183Z" fill="#ADCB53"/>
<path d="M255.326 287.714C254.47 287.714 253.5 287.315 252.758 286.573C252.016 285.831 251.559 284.861 251.103 284.005C250.132 282.121 249.505 279.781 248.82 277.27C247.45 272.134 245.966 266.883 241.743 264.771C239.232 263.516 236.721 263.459 234.095 263.345L234.152 262.432C236.778 262.489 239.46 262.603 242.199 263.915C246.822 266.141 248.363 271.905 249.733 276.985C250.418 279.439 251.046 281.722 251.902 283.548C252.301 284.347 252.758 285.203 253.386 285.888C253.899 286.402 254.755 286.915 255.611 286.744L255.783 287.657C255.668 287.714 255.497 287.714 255.326 287.714Z" fill="#ADCB53"/>
<path d="M244.939 286.801C244.825 283.891 243.569 280.752 241.458 278.183C240.145 276.585 237.52 273.96 234.152 273.903V272.99C237.919 273.047 240.773 275.9 242.199 277.613C244.425 280.352 245.795 283.662 245.852 286.801H244.939Z" fill="#ADCB53"/>
<path d="M154.423 288.057H112.418C112.076 288.057 111.848 287.829 111.848 287.486V206.044C111.848 205.702 112.076 205.474 112.418 205.474H154.423C154.766 205.474 154.994 205.702 154.994 206.044V287.543C154.994 287.829 154.766 288.057 154.423 288.057ZM112.989 286.915H153.853V206.615H112.989V286.915Z" fill="#C8D3DD"/>
<path d="M120.75 249.533C119.78 248.963 119.038 248.221 118.467 247.25C117.954 246.28 117.668 245.139 117.668 243.826C117.668 242.513 117.954 241.372 118.467 240.402C118.981 239.432 119.723 238.633 120.75 238.119C121.721 237.548 122.862 237.32 124.232 237.32C125.088 237.32 125.887 237.434 126.629 237.719C127.428 237.948 128.056 238.29 128.512 238.747L127.485 241.087C126.458 240.345 125.373 240.002 124.289 240.002C123.262 240.002 122.462 240.345 121.892 240.972C121.321 241.6 121.093 242.57 121.093 243.883C121.093 245.196 121.378 246.166 121.892 246.794C122.462 247.479 123.262 247.764 124.289 247.764C125.373 247.764 126.458 247.422 127.485 246.68L128.512 249.02C127.998 249.419 127.371 249.762 126.629 250.047C125.83 250.275 125.031 250.446 124.232 250.446C122.919 250.389 121.778 250.104 120.75 249.533Z" fill="#C8D3DD"/>
<path d="M132.679 249.59C131.708 249.077 130.966 248.278 130.453 247.307C129.939 246.337 129.654 245.196 129.654 243.826C129.654 242.513 129.939 241.372 130.453 240.345C130.966 239.374 131.708 238.633 132.679 238.062C133.649 237.548 134.79 237.263 136.046 237.263C137.359 237.263 138.5 237.548 139.413 238.062C140.383 238.575 141.125 239.374 141.639 240.345C142.153 241.315 142.381 242.456 142.381 243.826C142.381 245.139 142.095 246.28 141.582 247.307C141.068 248.278 140.326 249.077 139.356 249.59C138.386 250.104 137.244 250.389 135.989 250.389C134.79 250.389 133.649 250.104 132.679 249.59ZM138.329 246.794C138.899 246.109 139.128 245.139 139.128 243.826C139.128 242.513 138.842 241.543 138.329 240.858C137.758 240.173 137.016 239.831 136.103 239.831C135.133 239.831 134.391 240.173 133.82 240.858C133.249 241.543 133.021 242.513 133.021 243.826C133.021 245.139 133.306 246.109 133.82 246.794C134.391 247.479 135.133 247.821 136.103 247.821C137.073 247.821 137.815 247.479 138.329 246.794Z" fill="#C8D3DD"/>
<path d="M149.115 254.67V256.211H143.865V254.784L146.319 252.273C146.775 251.759 147.003 251.36 147.003 250.96C147.003 250.446 146.718 250.218 146.147 250.218C145.862 250.218 145.577 250.275 145.234 250.389C144.892 250.503 144.606 250.675 144.264 250.903L143.636 249.533C143.922 249.305 144.321 249.077 144.778 248.963C145.234 248.791 145.748 248.734 146.204 248.734C146.718 248.734 147.232 248.848 147.631 249.02C148.031 249.191 148.373 249.419 148.544 249.762C148.773 250.104 148.887 250.446 148.887 250.846C148.887 251.302 148.773 251.645 148.601 252.044C148.43 252.387 148.145 252.786 147.745 253.243L146.262 254.784H149.115V254.67Z" fill="#C8D3DD"/>
<path d="M154.423 206.615H112.418C112.247 206.615 112.076 206.558 111.961 206.387L106.882 199.824C106.768 199.652 106.711 199.424 106.825 199.196C106.939 198.967 107.11 198.853 107.339 198.853H149.344C149.515 198.853 149.686 198.91 149.8 199.082L154.88 205.645C154.994 205.816 155.051 206.044 154.937 206.273C154.822 206.444 154.651 206.615 154.423 206.615ZM112.703 205.474H153.281L149.115 200.052H108.537L112.703 205.474Z" fill="#C8D3DD"/>
<path d="M112.418 288.057C112.246 288.057 112.075 288 111.961 287.829L106.882 281.265C106.825 281.151 106.768 281.037 106.768 280.923V199.481C106.768 199.253 106.939 199.025 107.167 198.968C107.395 198.91 107.681 198.967 107.795 199.139L112.874 205.702C112.931 205.816 112.988 205.93 112.988 206.044V287.543C112.988 287.771 112.817 288 112.589 288.057C112.532 288.057 112.475 288.057 112.418 288.057ZM107.909 280.752L111.847 285.831V206.216L107.909 201.136V280.752Z" fill="#C8D3DD"/>
<path d="M214.805 182.017H172.686L167.606 175.454H207.956L215.033 181.275C215.376 181.561 215.204 182.017 214.805 182.017Z" fill="#ADCB53"/>
<path d="M72.8672 251.588C69.4429 251.588 64.3635 248.62 59.7978 244.054C57.0583 241.315 50.7233 233.953 50.8375 225.734C50.8945 222.139 51.8077 218.543 53.5198 215.347C54.0906 214.32 54.7184 213.35 55.4032 212.436C56.4876 211.01 56.7159 209.126 56.0881 207.528C55.1749 205.302 54.6613 202.905 54.6613 200.451C54.6613 196.285 56.031 192.404 58.5422 189.094C59.7407 187.553 59.969 185.499 59.0558 183.729C57.9144 181.503 57.3437 179.106 57.3437 176.595C57.3437 168.32 67.0459 151.198 73.0955 151.198C79.8871 151.198 88.8474 168.605 88.8474 176.595C88.8474 179.106 88.2767 181.503 87.1352 183.729C86.2221 185.499 86.4504 187.553 87.6489 189.094C90.2171 192.347 91.5298 196.285 91.5298 200.451C91.5298 202.905 91.0732 205.302 90.103 207.528C89.4181 209.126 89.7035 211.01 90.7878 212.436C93.8126 216.374 95.4107 221.054 95.4107 226.02C95.4677 238.747 82.3412 251.588 72.8672 251.588ZM55.4032 216.374C53.8623 219.228 53.0062 222.481 52.9491 225.791C52.8921 230.928 56.031 237.206 61.3387 242.628C65.4479 246.794 70.0707 249.533 72.9243 249.533C81.428 249.533 93.4702 237.377 93.4702 226.077C93.4702 221.568 92.0434 217.345 89.304 213.749C87.763 211.752 87.4206 209.069 88.3908 206.786C89.2469 204.789 89.6464 202.677 89.6464 200.508C89.6464 196.799 88.4479 193.374 86.2221 190.464C84.5099 188.295 84.2246 185.327 85.4801 182.873C86.4504 180.933 86.964 178.878 86.964 176.709C86.964 168.662 78.0037 153.424 73.3238 153.424C69.2146 153.424 59.6836 168.491 59.6836 176.709C59.6836 178.878 60.1973 180.99 61.1675 182.873C62.4231 185.327 62.1377 188.295 60.4256 190.464C58.1427 193.374 57.0012 196.856 57.0012 200.508C57.0012 202.677 57.4007 204.789 58.2568 206.786C59.227 209.069 58.8846 211.752 57.3437 213.749C56.4876 214.548 55.8598 215.461 55.4032 216.374Z" fill="#ADCB53"/>
<path d="M73.1528 288.913C72.5821 288.913 72.1255 288.456 72.1255 287.886V171.059C72.1255 170.489 72.5821 170.032 73.1528 170.032C73.7235 170.032 74.1801 170.489 74.1801 171.059V287.886C74.1801 288.456 73.7235 288.913 73.1528 288.913Z" fill="#ADCB53"/>
</svg>
